<?xml version="1.0" standalone="no"?>
<!DOCTYPE svg PUBLIC "-//W3C//DTD SVG 20010904//EN"
 "http://www.w3.org/TR/2001/REC-SVG-20010904/DTD/svg10.dtd">
<svg version="1.0" xmlns="http://www.w3.org/2000/svg"
 width="880.000000pt" height="880.000000pt" viewBox="0 0 880.000000 880.000000"
 preserveAspectRatio="xMidYMid meet">
<metadata>
Created by potrace 1.11, written by Peter Selinger 2001-2013
</metadata>
<g transform="translate(0.000000,880.000000) scale(0.100000,-0.100000)"
fill="#000000" stroke="none">
<path d="M4028 8104 c-3 -3 -148 -15 -220 -18 -16 0 -28 -3 -28 -6 0 -3 -17
-5 -38 -6 -42 -1 -112 -10 -187 -24 -27 -5 -66 -12 -85 -15 -19 -3 -51 -10
-70 -15 -19 -5 -46 -11 -60 -14 -118 -23 -386 -106 -481 -149 -19 -8 -59 -26
-89 -38 -30 -13 -88 -42 -130 -63 -41 -21 -88 -46 -105 -54 -35 -18 -158 -93
-165 -102 -3 -3 -25 -18 -50 -34 -40 -26 -156 -114 -186 -141 -6 -5 -30 -26
-54 -45 -98 -81 -285 -277 -388 -409 -15 -19 -32 -39 -37 -45 -6 -6 -21 -28
-35 -48 -14 -21 -28 -38 -32 -38 -5 0 -8 -6 -8 -13 0 -7 -8 -22 -18 -33 -30
-32 -112 -163 -206 -329 -53 -92 -206 -397 -206 -409 0 -3 -11 -30 -25 -60
-14 -30 -25 -57 -25 -60 0 -4 -10 -28 -21 -54 -12 -26 -27 -60 -34 -77 -8 -16
-11 -33 -9 -37 3 -4 0 -8 -5 -8 -6 0 -10 -3 -9 -7 0 -5 -2 -15 -5 -23 -13 -30
-58 -155 -61 -170 -2 -8 -11 -33 -18 -55 -26 -70 -39 -110 -43 -125 -1 -8 -17
-58 -33 -110 -17 -52 -40 -131 -52 -175 -12 -44 -24 -87 -27 -95 -3 -8 -7 -22
-8 -30 -1 -8 -9 -40 -18 -70 -9 -30 -18 -66 -21 -80 -2 -14 -11 -52 -20 -85
-9 -33 -18 -71 -20 -85 -3 -14 -5 -25 -6 -25 -2 0 -10 -34 -24 -100 -2 -11 -7
-31 -10 -45 -3 -14 -8 -36 -10 -50 -3 -14 -7 -36 -11 -50 -3 -14 -7 -43 -10
-65 -3 -22 -7 -47 -10 -55 -2 -8 -7 -44 -11 -80 -3 -36 -8 -81 -10 -100 -6
-48 -5 -335 1 -390 3 -25 7 -67 10 -95 2 -27 6 -61 9 -75 3 -14 8 -41 10 -60
3 -19 7 -46 10 -60 3 -14 8 -38 12 -55 9 -49 65 -258 74 -280 5 -11 21 -53 35
-94 45 -131 178 -414 210 -451 8 -8 14 -19 15 -25 0 -5 18 -37 39 -70 21 -33
44 -71 51 -85 7 -14 16 -27 19 -30 4 -3 29 -36 56 -75 46 -66 142 -192 172
-225 7 -8 39 -44 71 -80 100 -113 291 -298 381 -370 17 -14 43 -36 58 -49 36
-32 211 -161 218 -161 3 0 15 -8 26 -18 10 -11 32 -25 47 -33 15 -8 29 -17 32
-20 22 -26 373 -217 510 -277 202 -89 515 -192 660 -217 19 -3 55 -11 80 -16
76 -18 200 -36 295 -44 33 -3 80 -7 105 -10 40 -4 296 -5 393 -2 20 1 37 5 37
10 0 5 6 4 13 -2 8 -6 16 -9 18 -6 4 4 60 12 129 19 61 7 154 18 175 22 11 2
40 7 65 10 71 9 139 20 220 35 30 6 66 12 80 14 14 2 36 7 50 9 14 3 36 8 50
11 14 2 39 7 55 11 17 3 41 8 55 9 14 2 25 4 25 5 0 2 10 4 55 13 14 3 66 15
115 27 50 12 97 23 105 25 8 2 27 8 43 14 15 6 27 9 27 6 0 -2 18 2 40 10 22
8 41 14 43 14 1 -1 22 5 47 12 25 7 50 13 57 15 30 6 292 94 363 121 8 4 17 7
20 8 27 9 120 45 155 60 17 7 59 25 95 40 36 15 91 40 123 56 31 16 57 26 57
23 0 -4 6 -2 13 4 7 6 65 38 131 72 65 34 139 75 165 90 25 16 71 43 101 61
30 17 57 34 60 38 11 14 162 111 172 111 6 0 8 3 5 6 -4 4 19 25 51 47 31 23
62 46 67 52 6 6 31 28 57 48 89 71 354 345 367 380 2 6 13 20 23 32 28 30 138
192 138 203 0 6 4 12 9 14 21 8 191 376 191 414 0 8 5 14 12 14 6 0 9 3 6 6
-3 3 5 44 18 92 13 48 26 98 29 111 2 14 9 47 14 75 38 193 46 534 17 686 -3
14 -8 45 -11 70 -8 69 -13 96 -42 220 -15 63 -27 121 -26 128 0 6 -3 12 -8 12
-5 0 -8 3 -7 8 1 4 -7 34 -17 67 -10 33 -19 63 -21 68 -1 4 -2 8 -4 10 -1 1
-3 9 -5 17 -1 8 -12 40 -23 70 -11 30 -34 96 -52 145 -17 50 -35 99 -40 110
-4 11 -18 47 -30 80 -12 33 -26 69 -31 80 -4 11 -27 67 -50 125 -23 58 -46
111 -51 118 -6 6 -8 12 -5 12 6 0 -10 37 -116 270 -50 112 -185 381 -243 485
-30 55 -58 108 -61 118 -3 9 -9 17 -14 17 -5 0 -9 7 -9 15 0 8 -4 15 -10 15
-5 0 -10 6 -10 13 0 8 -18 42 -40 76 -22 34 -40 66 -40 71 0 6 -4 10 -10 10
-5 0 -10 4 -10 9 0 12 -60 103 -74 113 -6 4 -8 8 -4 8 7 0 -98 156 -138 205
-9 11 -27 37 -41 58 -14 20 -30 37 -34 37 -5 0 -9 6 -9 13 0 7 -10 23 -22 37
-13 14 -41 48 -63 75 -22 28 -44 55 -50 61 -5 6 -35 40 -65 75 -99 116 -365
375 -450 439 -18 14 -38 30 -44 35 -38 35 -106 85 -115 85 -6 0 -11 4 -11 8 0
4 -15 16 -32 27 -18 10 -35 21 -38 24 -8 10 -100 71 -106 71 -3 0 -18 8 -32
19 -52 37 -234 133 -337 178 -130 56 -199 83 -214 83 -9 0 -21 4 -26 9 -6 5
-37 17 -70 26 -193 52 -244 65 -280 70 -22 4 -51 8 -65 11 -14 3 -38 7 -55 8
-16 2 -41 6 -55 10 -14 3 -52 9 -85 12 -66 7 -622 14 -627 8z"/>
</g>
</svg>
