<?xml version="1.0" standalone="no"?>
<!DOCTYPE svg PUBLIC "-//W3C//DTD SVG 1.1//EN" "http://www.w3.org/Graphics/SVG/1.1/DTD/svg11.dtd" >
<svg xmlns="http://www.w3.org/2000/svg" xmlns:xlink="http://www.w3.org/1999/xlink" version="1.1">
<metadata>
Created by FontForge 20190801 at Mon Sep 20 15:31:58 2010
 By www-data
2010 Christian Schwartz published by FSI FontShop International GmbH
</metadata>
<defs>
<font id="BauPro" horiz-adv-x="1" >
  <font-face 
    font-family="BauPro"
    font-weight="400"
    font-stretch="normal"
    units-per-em="1000"
    panose-1="2 11 5 4 2 1 1 2 1 2"
    ascent="778"
    descent="-222"
    x-height="498"
    cap-height="753"
    bbox="-845 -270 1379 1089"
    underline-thickness="134"
    underline-position="-108"
    unicode-range="U+000D-FB02"
  />
<missing-glyph horiz-adv-x="529" 
d="M80 0v754h369v-754h-369zM148 68h233v618h-233v-618z" />
    <glyph glyph-name="f_f" unicode="ff" horiz-adv-x="558" 
d="M355 433h-173v-433h-80v433h-80v65h80v124q0 76 45 110q30 23 77 23q39 0 72 -20l-12 -72h-3q-18 18 -51 18q-48 0 -48 -54v-129h173v130q0 76 45 110q30 23 77 23q39 0 72 -20l-12 -72h-3q-18 18 -51 18q-48 0 -48 -54v-135h101v-65h-101v-433h-80v433z" />
    <glyph glyph-name=".notdef" horiz-adv-x="529" 
d="M80 0v754h369v-754h-369zM148 68h233v618h-233v-618z" />
    <glyph glyph-name=".null" horiz-adv-x="0" 
 />
    <glyph glyph-name=".null" horiz-adv-x="0" 
 />
    <glyph glyph-name="nonmarkingreturn" horiz-adv-x="333" 
 />
    <glyph glyph-name="CR" unicode="&#xd;" horiz-adv-x="280" 
 />
    <glyph glyph-name="space" unicode=" " horiz-adv-x="280" 
 />
    <glyph glyph-name="exclam" unicode="!" horiz-adv-x="302" 
d="M127 247l-26 396v110h100v-110l-26 -396h-48zM95 0v128h112v-128h-112z" />
    <glyph glyph-name="quotedbl" unicode="&#x22;" horiz-adv-x="408" 
d="M259 459l-14 294h95l-14 -294h-67zM82 459l-14 294h95l-14 -294h-67z" />
    <glyph glyph-name="numbersign" unicode="#" horiz-adv-x="553" 
d="M168 467h-99l13 77h99l37 210h67l-37 -210h114l37 210h67l-37 -210h99l-13 -77h-99l-32 -174h99l-12 -77h-99l-39 -217h-67l39 217h-114l-39 -217h-67l39 217h-99l12 77h99zM349 467h-114l-32 -174h114z" />
    <glyph glyph-name="dollar" unicode="$" horiz-adv-x="656" 
d="M360 -7v-135h-68v136q-75 7 -126.5 38t-77.5 72.5t-40 100.5l83 17q18 -68 51 -106.5t110 -48.5v291q-59 13 -97.5 27.5t-70.5 38t-47 59t-15 84.5q0 85 61.5 137.5t168.5 56.5v95h68v-96q95 -7 145.5 -49t78.5 -127l-77 -20q-22 65 -54.5 93.5t-92.5 33.5v-263
q128 -26 186.5 -71t58.5 -144q0 -101 -65.5 -158t-179.5 -62zM360 345v-280q74 4 117.5 41t43.5 105q0 61 -34.5 87.5t-126.5 46.5zM292 441v251q-149 -8 -149 -121q0 -57 30 -83.5t119 -46.5z" />
    <glyph glyph-name="percent" unicode="%" horiz-adv-x="980" 
d="M222 328q-89 0 -137.5 59.5t-48.5 156.5q0 98 48 158t138 60q91 0 139 -59.5t48 -156.5q0 -99 -48.5 -158.5t-138.5 -59.5zM757 -10q-89 0 -137.5 59.5t-48.5 156.5q0 98 48 158t138 60q91 0 139 -59.5t48 -156.5q0 -99 -48.5 -158.5t-138.5 -59.5zM222 392q58 0 83 39
t25 115q0 151 -108 151t-108 -152q0 -76 25.5 -114.5t82.5 -38.5zM757 54q58 0 83 39t25 115q0 151 -108 151t-108 -152q0 -76 25.5 -114.5t82.5 -38.5zM202 0l504 753h74l-504 -753h-74z" />
    <glyph glyph-name="ampersand" unicode="&#x26;" horiz-adv-x="740" 
d="M300 436q68 -115 157 -217q43 96 65 247l73 -2q-30 -197 -84 -303q43 -47 66 -65t45 -18q25 0 33.5 23.5t9.5 81.5l55 -7v-4q0 -4 0.5 -9.5t0.5 -9.5q0 -158 -102 -158q-33 0 -67 21.5t-85 74.5q-80 -98 -201 -98q-100 0 -160 57t-60 154q0 86 42.5 140.5t116.5 98.5
q-44 88 -44 165q0 68 40 108.5t106 40.5q59 0 97 -38.5t38 -100.5t-37 -102t-105 -80zM416 146q-122 138 -185 249q-48 -33 -74.5 -76.5t-26.5 -111.5q0 -66 38.5 -102.5t100.5 -36.5q89 0 147 78zM273 483q51 31 77.5 61.5t26.5 74.5q0 36 -18.5 57t-51.5 21t-51.5 -25
t-18.5 -65q0 -54 36 -124z" />
    <glyph glyph-name="quotesingle" unicode="'" horiz-adv-x="231" 
d="M82 459l-14 294h95l-14 -294h-67z" />
    <glyph glyph-name="parenleft" unicode="(" horiz-adv-x="427" 
d="M318 -184q-236 208 -236 498q0 161 64.5 289t171.5 214l47 -49q-90 -83 -141.5 -188.5t-51.5 -265.5q0 -82 15.5 -151.5t45.5 -124t59.5 -92.5t72.5 -81z" />
    <glyph glyph-name="parenright" unicode=")" horiz-adv-x="427" 
d="M109 -184l-47 49q43 43 72.5 81t59.5 92.5t45.5 124t15.5 151.5q0 160 -51.5 265.5t-141.5 188.5l47 49q107 -86 171.5 -214t64.5 -289q0 -290 -236 -498z" />
    <glyph glyph-name="asterisk" unicode="*" horiz-adv-x="412" 
d="M132 407l-57 41l96 114l-127 32l22 68l117 -58l-14 149h73l-15 -149l119 58l22 -68l-128 -32l95 -114l-57 -41l-74 128z" />
    <glyph glyph-name="plus" unicode="+" horiz-adv-x="464" 
d="M267 296v-151h-70v151h-137v72h137v151h70v-151h137v-72h-137z" />
    <glyph glyph-name="comma" unicode="," horiz-adv-x="282" 
d="M87 -137l-1 54q53 11 54 83h-55v138h112v-130q0 -131 -110 -145z" />
    <glyph glyph-name="hyphen" unicode="-" horiz-adv-x="335" 
d="M60 223v78h214v-78h-214z" />
    <glyph glyph-name="period" unicode="." horiz-adv-x="282" 
d="M85 0v138h112v-138h-112z" />
    <glyph glyph-name="slash" unicode="/" horiz-adv-x="403" 
d="M8 -157l294 970h76l-293 -970h-77z" />
    <glyph glyph-name="zero" unicode="0" horiz-adv-x="762" 
d="M383 -12q-153 0 -235.5 106.5t-82.5 281.5q0 176 81.5 283.5t234.5 107.5q108 0 181 -55.5t104 -141t31 -195.5q0 -174 -81.5 -280.5t-232.5 -106.5zM383 64q114 0 170 82t56 233q0 146 -56.5 230t-171.5 84t-171.5 -82.5t-56.5 -233.5q0 -152 57.5 -232.5t172.5 -80.5z
" />
    <glyph glyph-name="one" unicode="1" horiz-adv-x="349" 
d="M163 0v563q-38 -29 -109 -32v64q61 11 96 45t56 113h43v-753h-86z" />
    <glyph glyph-name="two" unicode="2" horiz-adv-x="633" 
d="M57 0q0 3 -0.5 9.5t-0.5 9.5q0 48 15.5 91t37 73.5t60 63t68.5 52.5t78 49l10 6q41 24 62.5 39.5t46.5 39.5t36 52t11 64q0 143 -156 143q-81 0 -126 -39t-61 -123l-77 19q16 103 86 160.5t178 57.5q109 0 175.5 -56t66.5 -160q0 -47 -15 -85t-47.5 -70t-62.5 -53.5
t-81 -52.5q-111 -67 -157 -112.5t-51 -103.5h399v-74h-495z" />
    <glyph glyph-name="three" unicode="3" horiz-adv-x="658" 
d="M335 -12q-135 0 -207 54.5t-89 163.5l84 18q16 -85 58.5 -124t155.5 -39q79 0 127.5 38.5t48.5 108.5q0 77 -48 111.5t-126 34.5h-95v74h91q78 0 118.5 32t40.5 107q0 127 -166 127q-79 0 -121.5 -36.5t-59.5 -108.5l-77 21q16 88 82 142.5t178 54.5q114 0 182.5 -50
t68.5 -147q0 -133 -116 -176q68 -21 102.5 -70.5t34.5 -115.5q0 -109 -75 -164.5t-192 -55.5z" />
    <glyph glyph-name="four" unicode="4" horiz-adv-x="709" 
d="M525 285h147v-72h-147v-213h-88v213h-401v87q100 97 209 222.5t183 230.5h97v-468zM437 285v362q-141 -187 -317 -362h317z" />
    <glyph glyph-name="five" unicode="5" horiz-adv-x="608" 
d="M301 -10q-116 0 -181.5 58t-77.5 157l82 17q10 -78 51.5 -119t124.5 -41q167 0 167 190q0 182 -162 182q-98 0 -139 -74h-71l28 393h380v-78h-310l-15 -222q49 51 131 51q115 0 180.5 -66.5t65.5 -185.5q0 -120 -67.5 -191t-186.5 -71z" />
    <glyph glyph-name="six" unicode="6" horiz-adv-x="688" 
d="M352 -12q-156 0 -233 116q-54 80 -54 226q0 200 81 318.5t232 118.5q180 0 217 -176l-82 -17q-14 61 -45 90t-96 29q-99 0 -151.5 -73.5t-67.5 -219.5q37 54 94 81t122 27q119 0 190 -73t71 -184q0 -121 -77 -192t-201 -71zM352 64q92 0 141.5 46.5t49.5 138.5t-50.5 138
t-139.5 46q-88 0 -142 -45.5t-54 -135.5q0 -87 54 -137.5t141 -50.5z" />
    <glyph glyph-name="seven" unicode="7" horiz-adv-x="589" 
d="M157 0q16 376 318 680h-432v73h514v-86q-299 -283 -312 -667h-88z" />
    <glyph glyph-name="eight" unicode="8" horiz-adv-x="657" 
d="M328 -12q-127 0 -203 59.5t-76 157.5q0 142 142 189q-63 24 -91.5 66t-28.5 111q0 91 74 143.5t184 52.5t183.5 -52.5t73.5 -143.5q0 -68 -30.5 -110t-94.5 -67q147 -41 147 -189q0 -99 -77 -158t-203 -59zM328 64q89 0 141.5 35.5t52.5 109.5q0 145 -193 145
q-194 0 -194 -145q0 -72 53 -108.5t140 -36.5zM328 432q88 0 131.5 32t43.5 102q0 129 -174 129q-84 0 -129.5 -32t-45.5 -97q0 -70 43 -102t131 -32z" />
    <glyph glyph-name="nine" unicode="9" horiz-adv-x="678" 
d="M315 -12q-199 0 -237 174l79 18q18 -65 52 -90.5t109 -25.5q100 0 150.5 80.5t55.5 207.5q-32 -49 -88.5 -75.5t-123.5 -26.5q-119 0 -186.5 70t-67.5 181q0 121 76 193.5t202 72.5q117 0 189 -69q88 -84 88 -283q0 -203 -77 -315t-221 -112zM324 325q87 0 141 43.5
t54 133.5q0 88 -49 138.5t-135 50.5q-92 0 -141 -47.5t-49 -142.5q0 -176 179 -176z" />
    <glyph glyph-name="colon" unicode=":" horiz-adv-x="292" 
d="M90 290v128h112v-128h-112zM90 0v128h112v-128h-112z" />
    <glyph glyph-name="semicolon" unicode=";" horiz-adv-x="292" 
d="M92 -137l-1 54q53 11 54 83h-55v128h112v-120q0 -131 -110 -145zM90 290v128h112v-128h-112z" />
    <glyph glyph-name="less" unicode="&#x3c;" horiz-adv-x="454" 
d="M394 126l-344 165v62l344 165v-77l-261 -118l261 -122v-75z" />
    <glyph glyph-name="equal" unicode="=" horiz-adv-x="464" 
d="M60 376v72h344v-72h-344zM60 196v72h344v-72h-344z" />
    <glyph glyph-name="greater" unicode="&#x3e;" horiz-adv-x="454" 
d="M60 126v77l261 118l-261 122v75l344 -165v-62z" />
    <glyph glyph-name="question" unicode="?" horiz-adv-x="557" 
d="M37 568q27 204 244 204q120 0 175.5 -51.5t55.5 -129.5q0 -37 -9 -64.5t-30 -48.5t-38 -33t-51 -32l-17 -10q-46 -27 -63.5 -52.5t-17.5 -70.5v-33h-80v44q0 64 29.5 99.5t87.5 70.5q56 34 78 58.5t22 68.5q0 54 -33 80.5t-108 26.5q-78 0 -114 -32t-50 -110zM191 0v128
h112v-128h-112z" />
    <glyph glyph-name="at" unicode="@" horiz-adv-x="901" 
d="M419 -160q-172 0 -271.5 113.5t-99.5 281.5q0 183 122 301t298 118q168 0 276.5 -102t108.5 -254q0 -138 -54 -203t-137 -65q-89 0 -111 87q-58 -105 -170 -105q-71 0 -109 48t-38 129q0 127 61.5 210.5t158.5 83.5q44 0 74.5 -19.5t43.5 -51.5l12 59h74l-44 -259
q-4 -24 -4 -46q0 -73 59 -73q50 0 83.5 48.5t33.5 149.5q0 135 -86.5 217t-231.5 82q-153 0 -251 -97t-98 -256q0 -144 77.5 -236.5t222.5 -93.5q73 0 118.5 15t100.5 50l38 -54q-59 -42 -116 -60t-141 -18zM394 78q120 0 152 167q6 31 6 57q0 56 -25.5 84.5t-70.5 28.5
q-68 0 -106.5 -67.5t-38.5 -158.5q0 -111 83 -111z" />
    <glyph glyph-name="A" unicode="A" horiz-adv-x="633" 
d="M178 227l-78 -227h-85l268 754h70l265 -754h-90l-78 227h-272zM425 300l-111 325l-111 -325h222z" />
    <glyph glyph-name="B" unicode="B" horiz-adv-x="703" 
d="M83 0v753h300q245 0 245 -201q0 -108 -102 -155q144 -40 144 -184q0 -106 -71.5 -159.5t-186.5 -53.5h-329zM170 72h255q77 0 118 36.5t41 105.5q0 139 -168 139h-246v-281zM170 424h240q132 0 132 134q0 64 -38 93.5t-114 29.5h-220v-257z" />
    <glyph glyph-name="C" unicode="C" horiz-adv-x="743" 
d="M401 -9q-156 0 -249.5 107.5t-93.5 277.5q0 169 95 278.5t245 109.5q114 0 188.5 -52.5t112.5 -164.5l-77 -27q-52 172 -222 172q-115 0 -184 -86.5t-69 -228.5q0 -144 69 -228t187 -84q177 0 227 178l78 -29q-75 -223 -307 -223z" />
    <glyph glyph-name="D" unicode="D" horiz-adv-x="741" 
d="M83 0v753h243q178 0 267.5 -104t89.5 -271q0 -81 -19.5 -147.5t-61 -119t-112 -82t-166.5 -29.5h-241zM170 73h163q132 0 196.5 81t64.5 225q0 138 -64.5 220t-197.5 82h-162v-608z" />
    <glyph glyph-name="E" unicode="E" horiz-adv-x="615" 
d="M83 0v753h481v-73h-394v-265h327v-71h-327v-271h413v-73h-500z" />
    <glyph glyph-name="F" unicode="F" horiz-adv-x="622" 
d="M83 0v753h501v-73h-414v-283h322v-71h-322v-326h-87z" />
    <glyph glyph-name="G" unicode="G" horiz-adv-x="783" 
d="M398 -9q-156 0 -248 108t-92 277q0 168 93.5 278t245.5 110q112 0 186 -50t115 -157l-78 -30q-29 85 -81.5 125t-139.5 40q-118 0 -185 -87t-67 -228q0 -142 66.5 -227.5t186.5 -85.5q102 0 169.5 71.5t67.5 184.5v11h-204v73h289v-404h-56l-17 140q-82 -149 -251 -149z
" />
    <glyph glyph-name="H" unicode="H" horiz-adv-x="719" 
d="M549 411v342h87v-753h-87v336h-379v-336h-87v753h87v-342h379z" />
    <glyph glyph-name="I" unicode="I" horiz-adv-x="271" 
d="M92 0v753h87v-753h-87z" />
    <glyph glyph-name="J" unicode="J" horiz-adv-x="509" 
d="M240 -7q-87 0 -140.5 48t-53.5 147v66h83v-55q0 -73 24 -105t84 -32q34 0 56 13.5t33 39t14.5 52t3.5 63.5v523h87v-516q0 -43 -4.5 -76.5t-16.5 -66t-33 -54t-55.5 -34.5t-81.5 -13z" />
    <glyph glyph-name="K" unicode="K" horiz-adv-x="639" 
d="M170 372l334 382h101l-277 -313l291 -441h-101l-247 376l-101 -113v-263h-87v753h87v-381z" />
    <glyph glyph-name="L" unicode="L" horiz-adv-x="587" 
d="M83 0v753h87v-680h385v-73h-472z" />
    <glyph glyph-name="M" unicode="M" horiz-adv-x="866" 
d="M83 0v753h125l228 -646l223 646h124v-753h-87v632l-221 -632h-81l-229 632v-632h-82z" />
    <glyph glyph-name="N" unicode="N" horiz-adv-x="750" 
d="M83 0v753h103l399 -641v641h82v-753h-111l-391 628v-628h-82z" />
    <glyph glyph-name="O" unicode="O" horiz-adv-x="812" 
d="M409 -9q-151 0 -251 110t-100 275q0 168 97 278t252 110q154 0 250.5 -111t96.5 -275q0 -167 -95 -277t-250 -110zM409 65q122 0 189 84.5t67 229.5q0 134 -71 223.5t-187 89.5q-118 0 -189 -87.5t-71 -227.5q0 -142 73 -227t189 -85z" />
    <glyph glyph-name="P" unicode="P" horiz-adv-x="684" 
d="M83 0v753h316q112 0 177.5 -53.5t65.5 -157.5q0 -99 -66 -151t-177 -52h-229v-339h-87zM170 409h236q74 0 111.5 36t37.5 102q0 134 -149 134h-236v-272z" />
    <glyph glyph-name="Q" unicode="Q" horiz-adv-x="812" 
d="M657 99l103 -96l-53 -58l-110 102q-81 -56 -188 -56q-151 0 -251 110t-100 275q0 168 97 278t252 110q154 0 250.5 -111t96.5 -275q0 -169 -97 -279zM541 99l-104 97l53 58l110 -102q65 82 65 227q0 134 -71 223.5t-187 89.5q-118 0 -189 -87.5t-71 -227.5
q0 -142 73 -227t189 -85q76 0 132 34z" />
    <glyph glyph-name="R" unicode="R" horiz-adv-x="683" 
d="M83 0v753h308q105 0 170 -51.5t65 -148.5q0 -152 -167 -184q50 -15 79 -51t43 -108q16 -82 38 -143q15 -45 29 -62v-5h-89q-37 57 -60 196q-16 90 -52.5 120.5t-110.5 30.5h-166v-347h-87zM170 416h204q166 0 166 137q0 128 -142 128h-228v-265z" />
    <glyph glyph-name="S" unicode="S" horiz-adv-x="663" 
d="M339 -8q-134 0 -201 56.5t-91 156.5l83 17q10 -37 21 -61t33.5 -48.5t61 -36t93.5 -11.5q82 0 131.5 36.5t49.5 109.5q0 66 -40 92.5t-156 48.5q-68 13 -110.5 27t-79 38t-53 60.5t-16.5 89.5q0 90 65.5 142.5t178.5 52.5q115 0 173 -42.5t89 -134.5l-77 -20
q-25 71 -65 99t-115 28q-168 0 -168 -121q0 -63 37 -88t156 -48q69 -13 113.5 -27.5t81 -39.5t53.5 -63t17 -92q0 -106 -71 -163.5t-194 -57.5z" />
    <glyph glyph-name="T" unicode="T" horiz-adv-x="617" 
d="M265 0v680h-239v73h565v-73h-239v-680h-87z" />
    <glyph glyph-name="U" unicode="U" horiz-adv-x="706" 
d="M348 -9q-130 0 -199 72.5t-69 209.5v480h87v-470q0 -117 44 -167.5t140 -50.5q97 0 145 50.5t48 181.5v456h82v-469q0 -140 -69.5 -216.5t-208.5 -76.5z" />
    <glyph glyph-name="V" unicode="V" horiz-adv-x="643" 
d="M280 0l-265 753h90l213 -627l215 627h85l-268 -753h-70z" />
    <glyph glyph-name="W" unicode="W" horiz-adv-x="962" 
d="M239 0l-226 753h91l174 -600l172 600h69l173 -602l174 602h83l-221 -753h-71l-174 604l-173 -604h-71z" />
    <glyph glyph-name="X" unicode="X" horiz-adv-x="627" 
d="M320 454l194 299h91l-240 -366l252 -387h-100l-209 320l-207 -320h-91l255 387l-239 366h100z" />
    <glyph glyph-name="Y" unicode="Y" horiz-adv-x="624" 
d="M275 328l-265 425h100l211 -350l204 350h89l-252 -426v-327h-87v328z" />
    <glyph glyph-name="Z" unicode="Z" horiz-adv-x="620" 
d="M43 0v81l443 599h-421v73h508v-90l-433 -587h428v-76h-525z" />
    <glyph glyph-name="bracketleft" unicode="[" horiz-adv-x="405" 
d="M90 -172v975h249v-73h-165v-829h165v-73h-249z" />
    <glyph glyph-name="backslash" unicode="\" horiz-adv-x="403" 
d="M318 -157l-293 970h76l294 -970h-77z" />
    <glyph glyph-name="bracketright" unicode="]" horiz-adv-x="405" 
d="M66 -172v73h165v829h-165v73h249v-975h-249z" />
    <glyph glyph-name="asciicircum" unicode="^" horiz-adv-x="444" 
d="M26 409l165 344h62l165 -344h-77l-118 261l-122 -261h-75z" />
    <glyph glyph-name="underscore" unicode="_" horiz-adv-x="334" 
d="M-1 -131v68h336v-68h-336z" />
    <glyph glyph-name="grave" unicode="`" horiz-adv-x="500" 
d="M234 581l-120 146h105l68 -146h-53z" />
    <glyph glyph-name="a" unicode="a" horiz-adv-x="517" 
d="M352 295v44q0 101 -97 101q-49 0 -78 -20.5t-52 -67.5l-66 35q54 123 200 123q71 0 122 -42.5t51 -134.5v-227q0 -26 7 -36.5t26 -10.5q21 0 42 12h2l-8 -66q-28 -14 -53 -14q-75 0 -92 75q-61 -77 -158 -77q-71 0 -115 34t-44 101q0 40 18 70t45.5 48t70.5 30t84.5 16.5
t94.5 6.5zM352 237q-53 -2 -90 -7t-72 -16.5t-53 -33.5t-18 -54q0 -72 92 -72q60 0 100.5 30.5t40.5 79.5v73z" />
    <glyph glyph-name="b" unicode="b" horiz-adv-x="561" 
d="M312 -9q-104 0 -154 87l2 -78h-80v757h80v-330q50 83 155 83q92 0 146 -68.5t54 -189.5q0 -120 -51.5 -190.5t-151.5 -70.5zM304 57q129 0 129 199q0 98 -33 140.5t-97 42.5q-145 0 -145 -184q0 -198 146 -198z" />
    <glyph glyph-name="c" unicode="c" horiz-adv-x="514" 
d="M271 -10q-105 0 -166 75t-61 186q0 117 59.5 188t163.5 71q82 0 129 -39t71 -115l-73 -16q-17 53 -44 76.5t-83 23.5q-71 0 -106 -49.5t-35 -137.5q0 -87 35 -141t111 -54q59 0 90.5 33t46.5 97l73 -15q-47 -183 -211 -183z" />
    <glyph glyph-name="d" unicode="d" horiz-adv-x="565" 
d="M248 -12q-92 0 -147 69t-55 189t53 192t152 72q108 0 154 -83v330h80v-757h-80l2 77q-54 -89 -159 -89zM260 57q67 0 107 46t40 144q0 192 -148 192q-131 0 -131 -193q0 -189 132 -189z" />
    <glyph glyph-name="e" unicode="e" horiz-adv-x="528" 
d="M124 237q7 -179 149 -179q108 0 141 122l70 -14q-47 -176 -212 -176q-105 0 -166.5 73.5t-61.5 184.5q0 116 59 189t162 73q100 0 159.5 -67t63.5 -206h-364zM126 298h279q-9 76 -43 109.5t-97 33.5q-122 0 -139 -143z" />
    <glyph glyph-name="f" unicode="f" horiz-adv-x="305" 
d="M102 433h-80v65h80v130q0 76 45 110q30 23 77 23q39 0 72 -20l-12 -72h-3q-18 18 -51 18q-48 0 -48 -54v-135h101v-65h-101v-433h-80v433z" />
    <glyph glyph-name="g" unicode="g" horiz-adv-x="545" 
d="M115 196q-60 49 -60 134q0 83 54 131.5t148 48.5q117 0 175 -71q28 69 83 69q35 0 56 -24l-35 -64h-2q-12 16 -32 16q-15 0 -25.5 -14.5t-10.5 -35.5q0 -7 2.5 -24t2.5 -34q0 -88 -56 -133t-153 -45q-52 0 -97 17q-52 -13 -52 -48q0 -27 30.5 -34t97.5 -7h31
q120 0 173 -19q82 -30 82 -125q0 -156 -245 -156q-247 0 -247 143q0 63 64 97q-62 23 -62 87q0 32 22 56t56 35zM263 214q63 0 95.5 27t32.5 88q0 117 -132 117q-124 0 -124 -117q0 -115 128 -115zM160 4q-51 -26 -51 -77q0 -44 39.5 -64t134.5 -20q93 0 130.5 22t37.5 69
q0 22 -7.5 34t-29.5 20q-35 12 -120 12h-27q-74 0 -107 4z" />
    <glyph glyph-name="h" unicode="h" horiz-adv-x="523" 
d="M80 0v757h80v-329q45 82 141 82q65 0 107.5 -43.5t42.5 -128.5v-338h-80v343q0 94 -85 94q-126 0 -126 -144v-293h-80z" />
    <glyph glyph-name="i" unicode="i" horiz-adv-x="247" 
d="M83 0v498h81v-498h-81zM81 658v95h85v-95h-85z" />
    <glyph glyph-name="j" unicode="j" horiz-adv-x="247" 
d="M3 -127h1q14 -14 37 -14q42 0 42 66v573h81v-586q0 -55 -25 -88q-26 -34 -83 -34q-31 0 -59 15zM81 658v95h85v-95h-85z" />
    <glyph glyph-name="k" unicode="k" horiz-adv-x="470" 
d="M160 179v-179h-80v757h80v-474l178 215h89l-164 -196l189 -302h-91l-149 240z" />
    <glyph glyph-name="l" unicode="l" horiz-adv-x="247" 
d="M83 0v757h81v-757h-81z" />
    <glyph glyph-name="m" unicode="m" horiz-adv-x="814" 
d="M80 0v498h80l-2 -73q46 85 143 85q107 0 137 -91q21 39 60.5 65t93.5 26q66 0 108 -42.5t42 -129.5v-338h-80v343q0 94 -84 94q-127 0 -127 -144v-293h-80v343q0 94 -84 94q-127 0 -127 -144v-293h-80z" />
    <glyph glyph-name="n" unicode="n" horiz-adv-x="529" 
d="M80 0v498h80l-2 -73q20 37 57.5 61t89.5 24q66 0 109 -43t43 -129v-338h-80v343q0 94 -87 94q-130 0 -130 -144v-293h-80z" />
    <glyph glyph-name="o" unicode="o" horiz-adv-x="549" 
d="M274 -10q-105 0 -167.5 74t-62.5 187q0 112 61.5 185.5t169.5 73.5t169 -73.5t61 -187.5q0 -113 -61 -186t-170 -73zM275 58q76 0 112 52t36 138q0 85 -36.5 138.5t-111.5 53.5t-112 -51.5t-37 -135.5q0 -87 37 -141t112 -54z" />
    <glyph glyph-name="p" unicode="p" horiz-adv-x="561" 
d="M80 -197v695h80l-2 -75q53 87 157 87q92 0 146 -68.5t54 -189.5q0 -120 -51.5 -190.5t-151.5 -70.5q-60 0 -94 21.5t-58 61.5v-271h-80zM304 57q129 0 129 199q0 98 -33 140.5t-97 42.5q-145 0 -145 -184q0 -198 146 -198z" />
    <glyph glyph-name="q" unicode="q" horiz-adv-x="565" 
d="M405 -197v271q-53 -86 -157 -86q-92 0 -147 69t-55 189t53 192t152 72q109 0 156 -86l-2 74h80v-695h-80zM260 57q67 0 107 46t40 144q0 192 -148 192q-131 0 -131 -193q0 -189 132 -189z" />
    <glyph glyph-name="r" unicode="r" horiz-adv-x="372" 
d="M80 0v498h80l-2 -78q39 90 117 90q53 0 83 -28l-33 -69h-2q-22 28 -61 28q-44 0 -73 -42t-29 -126v-273h-80z" />
    <glyph glyph-name="s" unicode="s" horiz-adv-x="465" 
d="M246 -10q-183 0 -208 153l74 15q12 -50 38.5 -74.5t89.5 -24.5q48 0 78.5 21.5t30.5 61.5q0 37 -23.5 51t-90.5 30q-5 1 -8 2t-7.5 2t-8.5 2q-79 20 -118.5 50.5t-39.5 90.5q0 67 48 103.5t119 36.5q77 0 118.5 -25t65.5 -82l-67 -31q-14 38 -40 54t-74 16q-94 0 -94 -67
q0 -33 22 -45.5t88 -28.5q9 -2 13 -3q43 -11 68 -19.5t52.5 -25.5t40 -44.5t12.5 -66.5q0 -66 -50 -109t-129 -43z" />
    <glyph glyph-name="t" unicode="t" horiz-adv-x="307" 
d="M102 433h-80v65h80v139q46 39 76 84h3v-223h90v-65h-90v-324q0 -29 10 -39t34 -10q28 0 49 16h2l-12 -70q-32 -16 -70 -16q-47 0 -68 24q-24 24 -24 91v328z" />
    <glyph glyph-name="u" unicode="u" horiz-adv-x="529" 
d="M224 -12q-66 0 -109 43t-43 129v338h80v-343q0 -97 87 -97q58 0 94 36t36 111v293h80v-498h-80l2 73q-20 -37 -57.5 -61t-89.5 -24z" />
    <glyph glyph-name="v" unicode="v" horiz-adv-x="474" 
d="M196 0l-175 498h86l135 -412l132 412h79l-171 -498h-86z" />
    <glyph glyph-name="w" unicode="w" horiz-adv-x="746" 
d="M181 0l-160 498h86l114 -380l126 380h63l118 -380l117 380h80l-162 -498h-70l-117 374l-124 -374h-71z" />
    <glyph glyph-name="x" unicode="x" horiz-adv-x="455" 
d="M223 199l-126 -199h-85l168 257l-156 241h92l113 -177l111 177h85l-153 -235l171 -263h-93z" />
    <glyph glyph-name="y" unicode="y" horiz-adv-x="480" 
d="M207 -1l-186 499h86l140 -389l133 389h79l-216 -606q-17 -50 -40 -75q-31 -34 -83 -34q-42 0 -68 19l7 68h2q21 -21 54 -21q45 0 69 76z" />
    <glyph glyph-name="z" unicode="z" horiz-adv-x="467" 
d="M33 0v67l311 364h-282v67h365v-82l-297 -347h303v-69h-400z" />
    <glyph glyph-name="braceleft" unicode="{" horiz-adv-x="438" 
d="M368 -173q-106 11 -157.5 56.5t-51.5 134.5q0 21 6.5 72t6.5 76q0 120 -113 120h-11v68h11q113 0 113 120q0 25 -6.5 71t-6.5 67q0 89 51.5 134.5t157.5 56.5l8 -71q-77 -15 -104 -39.5t-27 -86.5q0 -26 5 -72t5 -73q0 -52 -26 -89t-77 -52q51 -15 77 -52t26 -89
q0 -27 -5 -78t-5 -77q0 -62 27 -86.5t104 -39.5z" />
    <glyph glyph-name="bar" unicode="|" horiz-adv-x="260" 
d="M93 -157v970h74v-970h-74z" />
    <glyph glyph-name="braceright" unicode="}" horiz-adv-x="438" 
d="M70 -173l-8 71q77 15 104 39.5t27 86.5q0 26 -5 77t-5 78q0 52 26 89t77 52q-51 15 -77 52t-26 89q0 27 5 73t5 72q0 62 -27 86.5t-104 39.5l8 71q106 -11 157.5 -56.5t51.5 -134.5q0 -21 -6.5 -67t-6.5 -71q0 -120 113 -120h11v-68h-11q-113 0 -113 -120q0 -25 6.5 -76
t6.5 -72q0 -89 -51.5 -134.5t-157.5 -56.5z" />
    <glyph glyph-name="asciitilde" unicode="~" horiz-adv-x="460" 
d="M302 226q-31 0 -59 17.5t-50 35t-38 17.5q-38 0 -45 -69l-60 10q18 129 112 129q30 0 56 -18t48 -35.5t43 -17.5q36 0 41 64l60 -8q-6 -55 -34.5 -90t-73.5 -35z" />
    <glyph glyph-name="uni00A0" unicode="&#xa0;" horiz-adv-x="280" 
 />
    <glyph glyph-name="exclamdown" unicode="&#xa1;" horiz-adv-x="302" 
d="M101 -184v110l26 396h48l26 -396v-110h-100zM95 441v128h112v-128h-112z" />
    <glyph glyph-name="cent" unicode="&#xa2;" horiz-adv-x="518" 
d="M237 -7q-92 17 -142.5 89t-50.5 169q0 106 51.5 175t141.5 82v115h67v-115q132 -15 173 -152l-73 -18q-13 45 -35.5 70t-64.5 32v-382q49 7 75.5 39.5t40.5 90.5l72 -15q-43 -167 -188 -181v-134h-67v135zM237 439q-112 -23 -112 -186q0 -167 112 -193v379z" />
    <glyph glyph-name="sterling" unicode="&#xa3;" horiz-adv-x="602" 
d="M152 339h-126v66h95q-29 70 -29 142q0 103 66 161.5t174 58.5q59 0 102.5 -16t70 -45t41.5 -61t24 -73l-81 -23q-15 74 -50 108t-107 34q-154 0 -154 -146q0 -65 33 -140h231v-66h-201q52 -112 52 -190q0 -10 -2 -28q87 -55 132 -55q44 0 63 21.5t26 74.5l76 -10
q-10 -82 -45 -122t-109 -40t-168 64q-48 -71 -129 -71q-52 0 -84.5 28t-32.5 77q0 47 33 73t75 26q41 0 87 -23q-1 40 -15.5 77t-47.5 98zM204 96q-39 24 -68 24q-42 0 -42 -34q0 -37 47 -37q45 0 63 47z" />
    <glyph glyph-name="currency" unicode="&#xa4;" horiz-adv-x="571" 
d="M397 209q-49 -33 -113 -33q-62 0 -109 33l-78 -82l-55 53l81 85q-30 48 -30 113q0 69 32 118l-83 88l55 53l81 -86q46 30 106 30q62 0 109 -30l81 86l55 -53l-82 -87q31 -51 31 -114q0 -66 -29 -118l80 -85l-55 -53zM284 244q58 0 89 35t31 99q0 61 -32.5 99t-87.5 38
q-54 0 -85 -36t-31 -96q0 -63 31 -101t85 -38z" />
    <glyph glyph-name="yen" unicode="&#xa5;" horiz-adv-x="614" 
d="M386 382l-28 -51v-25h221v-66h-221v-240h-86v240h-219v66h219v20l-32 56h-187v66h148l-176 305h96l195 -355l188 355h85l-167 -305h157v-66h-193z" />
    <glyph glyph-name="brokenbar" unicode="&#xa6;" horiz-adv-x="260" 
d="M167 296v-453h-74v453h74zM93 368v445h74v-445h-74z" />
    <glyph glyph-name="section" unicode="&#xa7;" horiz-adv-x="532" 
d="M268 -119q-163 0 -192 155l75 9q10 -51 36.5 -74t77.5 -23q99 0 99 85q0 41 -26 60t-105 39q-97 24 -145.5 61t-48.5 105q0 94 127 128q-76 43 -76 124q0 74 52 116.5t122 42.5q154 0 185 -127l-70 -18q-22 78 -112 78q-49 0 -75 -24t-26 -62q0 -43 27 -64t106 -41
q100 -25 147 -61.5t47 -104.5q0 -95 -127 -130q74 -39 74 -116q0 -75 -49.5 -116.5t-122.5 -41.5zM345 209q73 24 73 77q0 45 -48.5 70t-126.5 25q-42 0 -71 -14q-59 -25 -59 -72q0 -43 51 -68.5t125 -25.5q27 0 56 8z" />
    <glyph glyph-name="dieresis" unicode="&#xa8;" horiz-adv-x="500" 
d="M132 620v93h84v-93h-84zM284 620v93h84v-93h-84z" />
    <glyph glyph-name="copyright" unicode="&#xa9;" horiz-adv-x="892" 
d="M445 -9q-162 0 -274.5 111t-112.5 274q0 162 113 275t276 113q164 0 275.5 -112t111.5 -274q0 -164 -112.5 -275.5t-276.5 -111.5zM780 378q0 147 -95 241.5t-238 94.5q-145 0 -240 -95t-95 -243q0 -147 96.5 -241t236.5 -94q142 0 238.5 95t96.5 242zM440 130
q-93 0 -153.5 70.5t-60.5 175.5q0 106 62 177.5t153 71.5q149 0 199 -139l-65 -25q-17 52 -47.5 75t-83.5 23q-64 0 -103 -47.5t-39 -134.5q0 -86 38.5 -133t103.5 -47q108 0 138 101l64 -25q-50 -143 -206 -143z" />
    <glyph glyph-name="ordfeminine" unicode="&#xaa;" horiz-adv-x="478" 
d="M308 525v38q0 44 -20.5 63.5t-63.5 19.5q-42 0 -64 -18.5t-41 -58.5l-58 30q42 110 167 110q64 0 108.5 -36t44.5 -115v-195q0 -38 28 -38q17 0 37 11h1l-6 -59q-27 -12 -51 -12q-63 0 -78 63q-50 -65 -135 -65q-61 0 -98.5 29t-37.5 87q0 42 21.5 71t61.5 44t83.5 22
t100.5 9zM308 416v57q-46 -1 -77.5 -5t-59.5 -14t-42 -28t-14 -46q0 -29 16.5 -43.5t56.5 -14.5q51 0 85.5 26t34.5 68z" />
    <glyph glyph-name="guillemotleft" unicode="&#xab;" horiz-adv-x="500" 
d="M367 43l-130 198l130 198h82l-125 -198l125 -198h-82zM189 43l-130 198l130 198h82l-125 -198l125 -198h-82z" />
    <glyph glyph-name="logicalnot" unicode="&#xac;" horiz-adv-x="448" 
d="M299 175v150h-239v70h311v-220h-72z" />
    <glyph glyph-name="uni00AD" unicode="&#xad;" horiz-adv-x="335" 
d="M60 223v78h214v-78h-214z" />
    <glyph glyph-name="registered" unicode="&#xae;" horiz-adv-x="535" 
d="M267 297q-97 0 -164.5 66.5t-67.5 164.5q0 97 67.5 164.5t165.5 67.5q99 0 165.5 -67t66.5 -164q0 -99 -67 -165.5t-166 -66.5zM267 335q82 0 137 54.5t55 139.5q0 84 -54 138.5t-137 54.5t-137.5 -54.5t-54.5 -139.5t55 -139t136 -54zM182 411v243h100q40 0 64 -17.5
t24 -49.5q0 -49 -58 -61q24 -7 34 -29q3 -7 8.5 -30t9.5 -34q5 -15 12 -19v-3h-45q-6 7 -20 69q-9 38 -48 38h-40v-107h-41zM223 550h57q48 0 48 36q0 35 -44 35h-61v-71z" />
    <glyph glyph-name="macron" unicode="&#xaf;" horiz-adv-x="500" 
d="M139 596v64h222v-64h-222z" />
    <glyph glyph-name="degree" unicode="&#xb0;" horiz-adv-x="395" 
d="M197 406q-66 0 -107 44.5t-41 111.5q0 68 41 112t107 44q68 0 108.5 -44t40.5 -112q-1 -68 -41.5 -112t-107.5 -44zM197 455q46 0 70 27.5t24 79.5q0 49 -25 78.5t-69 29.5t-68 -28t-24 -77q0 -51 24 -80.5t68 -29.5z" />
    <glyph glyph-name="plusminus" unicode="&#xb1;" horiz-adv-x="464" 
d="M267 296v-151h-70v151h-137v72h137v151h70v-151h137v-72h-137zM60 0v72h344v-72h-344z" />
    <glyph glyph-name="twosuperior" unicode="&#xb2;" horiz-adv-x="380" 
d="M36 353q1 66 35.5 108t108.5 80q56 29 74.5 48.5t18.5 49.5t-21.5 45.5t-57.5 15.5q-40 0 -62.5 -22.5t-33.5 -68.5l-63 17q8 53 47.5 92.5t117.5 39.5q64 0 104.5 -32t40.5 -88q0 -48 -27 -75t-99 -63q-49 -25 -73.5 -44t-27.5 -42h227v-61h-309z" />
    <glyph glyph-name="threesuperior" unicode="&#xb3;" horiz-adv-x="383" 
d="M193 346q-137 0 -165 112l65 25q11 -39 31 -58t68 -19q40 0 62 17.5t22 44.5q0 59 -73 59h-50v56h50q68 0 68 58q0 28 -23 44t-59 16q-73 0 -89 -72l-63 18q12 52 51.5 82t102.5 30q69 0 109 -32t40 -86q0 -59 -57 -83q64 -26 64 -92q0 -57 -44 -88.5t-110 -31.5z" />
    <glyph glyph-name="acute" unicode="&#xb4;" horiz-adv-x="500" 
d="M214 581l68 146h105l-120 -146h-53z" />
    <glyph glyph-name="mu" unicode="&#xb5;" horiz-adv-x="537" 
d="M80 -197v695h80v-343q0 -97 87 -97q58 0 94 36t36 111v293h80v-498h-80l2 73q-20 -37 -55.5 -61t-83.5 -24q-52 0 -80 31v-216h-80z" />
    <glyph glyph-name="paragraph" unicode="&#xb6;" horiz-adv-x="659" 
d="M308 0v364h-46q-104 0 -166 49t-62 142q0 96 63.5 147t164.5 51h363v-71h-77v-682h-83v682h-74v-682h-83z" />
    <glyph glyph-name="periodcentered" unicode="&#xb7;" horiz-adv-x="282" 
d="M85 254v148h112v-148h-112z" />
    <glyph glyph-name="cedilla" unicode="&#xb8;" horiz-adv-x="495" 
d="M278 -209q-75 0 -102 56l48 19q14 -30 52 -30q47 0 47 38t-37 38q-26 0 -34 -18h-42v106h48v-59q15 13 39 13q35 0 58.5 -22.5t23.5 -61.5q0 -37 -29 -58t-72 -21z" />
    <glyph glyph-name="onesuperior" unicode="&#xb9;" horiz-adv-x="257" 
d="M113 353v269q-25 -19 -85 -22v53q96 9 120 99h34v-399h-69z" />
    <glyph glyph-name="ordmasculine" unicode="&#xba;" horiz-adv-x="484" 
d="M242 264q-92 0 -145.5 63.5t-53.5 160.5q0 95 53.5 158t145.5 63q93 0 146 -63t53 -160q0 -96 -53 -159t-146 -63zM242 325q125 0 125 160q0 73 -30.5 117t-94.5 44t-94.5 -42.5t-30.5 -114.5q0 -75 30.5 -119.5t94.5 -44.5z" />
    <glyph glyph-name="guillemotright" unicode="&#xbb;" horiz-adv-x="500" 
d="M229 43l125 198l-125 198h82l130 -198l-130 -198h-82zM51 43l125 198l-125 198h82l130 -198l-130 -198h-82z" />
    <glyph glyph-name="onequarter" unicode="&#xbc;" horiz-adv-x="825" 
d="M113 353v269q-25 -19 -85 -22v53q96 9 120 99h34v-399h-69zM116 0l480 753h65l-480 -753h-65zM670 0v104h-217v55q147 138 213 240h72v-240h65v-55h-65v-104h-68zM525 159h145v161q-62 -86 -145 -161z" />
    <glyph glyph-name="onehalf" unicode="&#xbd;" horiz-adv-x="825" 
d="M113 353v269q-25 -19 -85 -22v53q96 9 120 99h34v-399h-69zM86 0l480 753h65l-480 -753h-65zM469 0q1 66 35.5 108t108.5 80q56 29 74.5 48.5t18.5 49.5t-21.5 45.5t-57.5 15.5q-40 0 -62.5 -22.5t-33.5 -68.5l-63 17q8 53 47.5 92.5t117.5 39.5q64 0 104.5 -32t40.5 -88
q0 -48 -27 -75t-99 -63q-49 -25 -73.5 -44t-27.5 -42h227v-61h-309z" />
    <glyph glyph-name="threequarters" unicode="&#xbe;" horiz-adv-x="825" 
d="M193 346q-137 0 -165 112l65 25q11 -39 31 -58t68 -19q40 0 62 17.5t22 44.5q0 59 -73 59h-50v56h50q68 0 68 58q0 28 -23 44t-59 16q-73 0 -89 -72l-63 18q12 52 51.5 82t102.5 30q69 0 109 -32t40 -86q0 -59 -57 -83q64 -26 64 -92q0 -57 -44 -88.5t-110 -31.5zM171 0
l480 753h65l-480 -753h-65zM670 0v104h-217v55q147 138 213 240h72v-240h65v-55h-65v-104h-68zM525 159h145v161q-62 -86 -145 -161z" />
    <glyph glyph-name="questiondown" unicode="&#xbf;" horiz-adv-x="557" 
d="M520 3q-27 -204 -244 -204q-120 0 -175.5 51.5t-55.5 129.5q0 37 9 64.5t30 48.5t38 33t51 32l17 10q45 27 63 52.5t18 70.5v31h80v-42q0 -64 -29.5 -99.5t-87.5 -70.5q-56 -34 -78 -58.5t-22 -68.5q0 -54 33 -80.5t108 -26.5q78 0 114 32t50 110zM366 569v-128h-112v128
h112z" />
    <glyph glyph-name="Agrave" unicode="&#xc0;" horiz-adv-x="633" 
d="M178 227l-78 -227h-85l268 754h70l265 -754h-90l-78 227h-272zM425 300l-111 325l-111 -325h222zM296 807l-120 146h105l68 -146h-53z" />
    <glyph glyph-name="Aacute" unicode="&#xc1;" horiz-adv-x="633" 
d="M178 227l-78 -227h-85l268 754h70l265 -754h-90l-78 227h-272zM425 300l-111 325l-111 -325h222zM286 807l68 146h105l-120 -146h-53z" />
    <glyph glyph-name="Acircumflex" unicode="&#xc2;" horiz-adv-x="633" 
d="M178 227l-78 -227h-85l268 754h70l265 -754h-90l-78 227h-272zM425 300l-111 325l-111 -325h222zM187 807l94 146h70l94 -146h-51l-79 87l-79 -87h-49z" />
    <glyph glyph-name="Atilde" unicode="&#xc3;" horiz-adv-x="633" 
d="M178 227l-78 -227h-85l268 754h70l265 -754h-90l-78 227h-272zM425 300l-111 325l-111 -325h222zM369 816q-31 0 -64.5 21t-44.5 21q-28 0 -35 -46l-50 8q7 49 30 74t59 25q30 0 61.5 -21t47.5 -21q27 0 32 42l50 -7q-5 -43 -27 -69.5t-59 -26.5z" />
    <glyph glyph-name="Adieresis" unicode="&#xc4;" horiz-adv-x="633" 
d="M178 227l-78 -227h-85l268 754h70l265 -754h-90l-78 227h-272zM425 300l-111 325l-111 -325h222zM350 807v97h84v-97h-84zM198 807v97h84v-97h-84z" />
    <glyph glyph-name="Aring" unicode="&#xc5;" horiz-adv-x="633" 
d="M178 227l-78 -227h-85l257 724q-55 27 -55 95q0 44 26.5 74t72.5 30q45 0 72 -28.5t27 -75.5q0 -68 -52 -94l255 -725h-90l-78 227h-272zM425 300l-111 325l-111 -325h222zM316 756q53 0 53 63t-53 63q-52 0 -52 -61q0 -65 52 -65z" />
    <glyph glyph-name="AE" unicode="&#xc6;" horiz-adv-x="995" 
d="M209 207l-123 -207h-86l455 753h489v-73h-374v-265h307v-71h-307v-271h393v-73h-480v207h-274zM483 280v390l-231 -390h231z" />
    <glyph glyph-name="Ccedilla" unicode="&#xc7;" horiz-adv-x="743" 
d="M354 -6q-136 16 -216 121t-80 261q0 169 95 278.5t245 109.5q114 0 188.5 -52.5t112.5 -164.5l-77 -27q-52 172 -222 172q-115 0 -184 -86.5t-69 -228.5q0 -144 69 -228t187 -84q177 0 227 178l78 -29q-75 -223 -306 -223v-50q15 13 39 13q35 0 58.5 -22.5t23.5 -61.5
q0 -37 -29 -58t-72 -21q-75 0 -102 56l48 19q14 -30 52 -30q47 0 47 38t-37 38q-26 0 -34 -18h-42v100z" />
    <glyph glyph-name="Egrave" unicode="&#xc8;" horiz-adv-x="615" 
d="M83 0v753h481v-73h-394v-265h327v-71h-327v-271h413v-73h-500zM319 807l-120 146h105l68 -146h-53z" />
    <glyph glyph-name="Eacute" unicode="&#xc9;" horiz-adv-x="615" 
d="M83 0v753h481v-73h-394v-265h327v-71h-327v-271h413v-73h-500zM276 807l68 146h105l-120 -146h-53z" />
    <glyph glyph-name="Ecircumflex" unicode="&#xca;" horiz-adv-x="615" 
d="M83 0v753h481v-73h-394v-265h327v-71h-327v-271h413v-73h-500zM196 807l94 146h70l94 -146h-51l-79 87l-79 -87h-49z" />
    <glyph glyph-name="Edieresis" unicode="&#xcb;" horiz-adv-x="615" 
d="M83 0v753h481v-73h-394v-265h327v-71h-327v-271h413v-73h-500zM215 807v97h84v-97h-84zM367 807v97h84v-97h-84z" />
    <glyph glyph-name="Igrave" unicode="&#xcc;" horiz-adv-x="271" 
d="M92 0v753h87v-753h-87zM126 807l-120 146h105l68 -146h-53z" />
    <glyph glyph-name="Iacute" unicode="&#xcd;" horiz-adv-x="271" 
d="M92 0v753h87v-753h-87zM106 807l68 146h105l-120 -146h-53z" />
    <glyph glyph-name="Icircumflex" unicode="&#xce;" horiz-adv-x="271" 
d="M92 0v753h87v-753h-87zM7 807l94 146h70l94 -146h-51l-79 87l-79 -87h-49z" />
    <glyph glyph-name="Idieresis" unicode="&#xcf;" horiz-adv-x="271" 
d="M92 0v753h87v-753h-87zM171 807v97h84v-97h-84zM19 807v97h84v-97h-84z" />
    <glyph glyph-name="Eth" unicode="&#xd0;" horiz-adv-x="756" 
d="M98 337h-89v71h89v345h243q178 0 267.5 -104t89.5 -271q0 -81 -19.5 -147.5t-61 -119t-112 -82t-166.5 -29.5h-241v337zM185 408h151v-71h-151v-264h163q132 0 196.5 81t64.5 225q0 138 -64.5 220t-197.5 82h-162v-273z" />
    <glyph glyph-name="Ntilde" unicode="&#xd1;" horiz-adv-x="750" 
d="M83 0v753h103l399 -641v641h82v-753h-111l-391 628v-628h-82zM446 816q-31 0 -64.5 21t-44.5 21q-28 0 -35 -46l-50 8q14 99 89 99q30 0 61.5 -21t47.5 -21q27 0 32 42l50 -7q-5 -43 -27 -69.5t-59 -26.5z" />
    <glyph glyph-name="Ograve" unicode="&#xd2;" horiz-adv-x="812" 
d="M409 -9q-151 0 -251 110t-100 275q0 168 97 278t252 110q154 0 250.5 -111t96.5 -275q0 -167 -95 -277t-250 -110zM409 65q122 0 189 84.5t67 229.5q0 134 -71 223.5t-187 89.5q-118 0 -189 -87.5t-71 -227.5q0 -142 73 -227t189 -85zM390 807l-120 146h105l68 -146h-53z
" />
    <glyph glyph-name="Oacute" unicode="&#xd3;" horiz-adv-x="812" 
d="M409 -9q-151 0 -251 110t-100 275q0 168 97 278t252 110q154 0 250.5 -111t96.5 -275q0 -167 -95 -277t-250 -110zM409 65q122 0 189 84.5t67 229.5q0 134 -71 223.5t-187 89.5q-118 0 -189 -87.5t-71 -227.5q0 -142 73 -227t189 -85zM370 807l68 146h105l-120 -146h-53z
" />
    <glyph glyph-name="Ocircumflex" unicode="&#xd4;" horiz-adv-x="812" 
d="M409 -9q-151 0 -251 110t-100 275q0 168 97 278t252 110q154 0 250.5 -111t96.5 -275q0 -167 -95 -277t-250 -110zM409 65q122 0 189 84.5t67 229.5q0 134 -71 223.5t-187 89.5q-118 0 -189 -87.5t-71 -227.5q0 -142 73 -227t189 -85zM277 807l94 146h70l94 -146h-51
l-79 87l-79 -87h-49z" />
    <glyph glyph-name="Otilde" unicode="&#xd5;" horiz-adv-x="812" 
d="M409 -9q-151 0 -251 110t-100 275q0 168 97 278t252 110q154 0 250.5 -111t96.5 -275q0 -167 -95 -277t-250 -110zM409 65q122 0 189 84.5t67 229.5q0 134 -71 223.5t-187 89.5q-118 0 -189 -87.5t-71 -227.5q0 -142 73 -227t189 -85zM460 816q-31 0 -64.5 21t-44.5 21
q-28 0 -35 -46l-50 8q14 99 89 99q30 0 61.5 -21t47.5 -21q27 0 32 42l50 -7q-5 -43 -27 -69.5t-59 -26.5z" />
    <glyph glyph-name="Odieresis" unicode="&#xd6;" horiz-adv-x="812" 
d="M409 -9q-151 0 -251 110t-100 275q0 168 97 278t252 110q154 0 250.5 -111t96.5 -275q0 -167 -95 -277t-250 -110zM409 65q122 0 189 84.5t67 229.5q0 134 -71 223.5t-187 89.5q-118 0 -189 -87.5t-71 -227.5q0 -142 73 -227t189 -85zM440 807v97h84v-97h-84zM288 807v97
h84v-97h-84z" />
    <glyph glyph-name="multiply" unicode="&#xd7;" horiz-adv-x="464" 
d="M231 279l-110 -119l-47 45l113 122l-113 122l47 45l110 -119l110 119l47 -45l-113 -122l113 -122l-47 -45z" />
    <glyph glyph-name="Oslash" unicode="&#xd8;" horiz-adv-x="812" 
d="M681 623q73 -103 73 -245q0 -166 -98 -276.5t-251 -110.5q-134 0 -227 87l-73 -78h-94l121 130q-74 104 -74 246q0 165 97.5 276.5t251.5 111.5q135 0 229 -89l72 78h93zM186 189l398 430q-70 75 -177 75q-120 0 -192 -87.5t-72 -229.5q0 -108 43 -188zM625 563
l-397 -430q70 -70 177 -70q123 0 193.5 85t70.5 231q0 107 -44 184z" />
    <glyph glyph-name="Ugrave" unicode="&#xd9;" horiz-adv-x="706" 
d="M348 -9q-130 0 -199 72.5t-69 209.5v480h87v-470q0 -117 44 -167.5t140 -50.5q97 0 145 50.5t48 181.5v456h82v-469q0 -140 -69.5 -216.5t-208.5 -76.5zM337 807l-120 146h105l68 -146h-53z" />
    <glyph glyph-name="Uacute" unicode="&#xda;" horiz-adv-x="706" 
d="M348 -9q-130 0 -199 72.5t-69 209.5v480h87v-470q0 -117 44 -167.5t140 -50.5q97 0 145 50.5t48 181.5v456h82v-469q0 -140 -69.5 -216.5t-208.5 -76.5zM317 807l68 146h105l-120 -146h-53z" />
    <glyph glyph-name="Ucircumflex" unicode="&#xdb;" horiz-adv-x="706" 
d="M348 -9q-130 0 -199 72.5t-69 209.5v480h87v-470q0 -117 44 -167.5t140 -50.5q97 0 145 50.5t48 181.5v456h82v-469q0 -140 -69.5 -216.5t-208.5 -76.5zM228 807l94 146h70l94 -146h-51l-79 87l-79 -87h-49z" />
    <glyph glyph-name="Udieresis" unicode="&#xdc;" horiz-adv-x="706" 
d="M348 -9q-130 0 -199 72.5t-69 209.5v480h87v-470q0 -117 44 -167.5t140 -50.5q97 0 145 50.5t48 181.5v456h82v-469q0 -140 -69.5 -216.5t-208.5 -76.5zM394 807v97h84v-97h-84zM242 807v97h84v-97h-84z" />
    <glyph glyph-name="Yacute" unicode="&#xdd;" horiz-adv-x="624" 
d="M275 328l-265 425h100l211 -350l204 350h89l-252 -426v-327h-87v328zM281 807l68 146h105l-120 -146h-53z" />
    <glyph glyph-name="Thorn" unicode="&#xde;" horiz-adv-x="684" 
d="M83 0v753h87v-158h229q108 0 175.5 -54.5t67.5 -156.5q0 -99 -66 -151t-177 -52h-229v-181h-87zM170 251h236q74 0 111.5 36t37.5 102q0 134 -149 134h-236v-272z" />
    <glyph glyph-name="germandbls" unicode="&#xdf;" horiz-adv-x="531" 
d="M298 -10q-54 0 -85 20l21 59q30 -14 60 -14q50 0 80.5 38.5t30.5 121.5q0 179 -143 179h-14v68h7q72 0 97.5 33.5t25.5 83.5q0 56 -27.5 87t-81.5 31q-109 0 -109 -115v-582h-80v570q0 91 53 141t137 50q83 0 132.5 -50t49.5 -132q0 -48 -24 -87.5t-74 -58.5
q133 -34 133 -216q0 -115 -52 -171t-137 -56z" />
    <glyph glyph-name="agrave" unicode="&#xe0;" horiz-adv-x="517" 
d="M352 295v44q0 101 -97 101q-49 0 -78 -20.5t-52 -67.5l-66 35q54 123 200 123q71 0 122 -42.5t51 -134.5v-227q0 -26 7 -36.5t26 -10.5q21 0 42 12h2l-8 -66q-28 -14 -53 -14q-75 0 -92 75q-61 -77 -158 -77q-71 0 -115 34t-44 101q0 40 18 70t45.5 48t70.5 30t84.5 16.5
t94.5 6.5zM352 237q-53 -2 -90 -7t-72 -16.5t-53 -33.5t-18 -54q0 -72 92 -72q60 0 100.5 30.5t40.5 79.5v73zM241 591l-120 146h105l68 -146h-53z" />
    <glyph glyph-name="aacute" unicode="&#xe1;" horiz-adv-x="517" 
d="M352 295v44q0 101 -97 101q-49 0 -78 -20.5t-52 -67.5l-66 35q54 123 200 123q71 0 122 -42.5t51 -134.5v-227q0 -26 7 -36.5t26 -10.5q21 0 42 12h2l-8 -66q-28 -14 -53 -14q-75 0 -92 75q-61 -77 -158 -77q-71 0 -115 34t-44 101q0 40 18 70t45.5 48t70.5 30t84.5 16.5
t94.5 6.5zM352 237q-53 -2 -90 -7t-72 -16.5t-53 -33.5t-18 -54q0 -72 92 -72q60 0 100.5 30.5t40.5 79.5v73zM221 591l68 146h105l-120 -146h-53z" />
    <glyph glyph-name="acircumflex" unicode="&#xe2;" horiz-adv-x="517" 
d="M352 295v44q0 101 -97 101q-49 0 -78 -20.5t-52 -67.5l-66 35q54 123 200 123q71 0 122 -42.5t51 -134.5v-227q0 -26 7 -36.5t26 -10.5q21 0 42 12h2l-8 -66q-28 -14 -53 -14q-75 0 -92 75q-61 -77 -158 -77q-71 0 -115 34t-44 101q0 40 18 70t45.5 48t70.5 30t84.5 16.5
t94.5 6.5zM352 237q-53 -2 -90 -7t-72 -16.5t-53 -33.5t-18 -54q0 -72 92 -72q60 0 100.5 30.5t40.5 79.5v73zM128 591l94 146h70l94 -146h-51l-79 87l-79 -87h-49z" />
    <glyph glyph-name="atilde" unicode="&#xe3;" horiz-adv-x="517" 
d="M352 295v44q0 101 -97 101q-49 0 -78 -20.5t-52 -67.5l-66 35q54 123 200 123q71 0 122 -42.5t51 -134.5v-227q0 -26 7 -36.5t26 -10.5q21 0 42 12h2l-8 -66q-28 -14 -53 -14q-75 0 -92 75q-61 -77 -158 -77q-71 0 -115 34t-44 101q0 40 18 70t45.5 48t70.5 30t84.5 16.5
t94.5 6.5zM352 237q-53 -2 -90 -7t-72 -16.5t-53 -33.5t-18 -54q0 -72 92 -72q60 0 100.5 30.5t40.5 79.5v73zM310 600q-31 0 -64.5 21t-44.5 21q-28 0 -35 -46l-50 8q14 99 89 99q30 0 61.5 -21t47.5 -21q27 0 32 42l50 -7q-5 -43 -27 -69.5t-59 -26.5z" />
    <glyph glyph-name="adieresis" unicode="&#xe4;" horiz-adv-x="517" 
d="M352 295v44q0 101 -97 101q-49 0 -78 -20.5t-52 -67.5l-66 35q54 123 200 123q71 0 122 -42.5t51 -134.5v-227q0 -26 7 -36.5t26 -10.5q21 0 42 12h2l-8 -66q-28 -14 -53 -14q-75 0 -92 75q-61 -77 -158 -77q-71 0 -115 34t-44 101q0 40 18 70t45.5 48t70.5 30t84.5 16.5
t94.5 6.5zM352 237q-53 -2 -90 -7t-72 -16.5t-53 -33.5t-18 -54q0 -72 92 -72q60 0 100.5 30.5t40.5 79.5v73zM139 620v93h84v-93h-84zM291 620v93h84v-93h-84z" />
    <glyph glyph-name="aring" unicode="&#xe5;" horiz-adv-x="517" 
d="M352 295v44q0 101 -97 101q-49 0 -78 -20.5t-52 -67.5l-66 35q54 123 200 123q71 0 122 -42.5t51 -134.5v-227q0 -26 7 -36.5t26 -10.5q21 0 42 12h2l-8 -66q-28 -14 -53 -14q-75 0 -92 75q-61 -77 -158 -77q-71 0 -115 34t-44 101q0 40 18 70t45.5 48t70.5 30t84.5 16.5
t94.5 6.5zM352 237q-53 -2 -90 -7t-72 -16.5t-53 -33.5t-18 -54q0 -72 92 -72q60 0 100.5 30.5t40.5 79.5v73zM255 571q-46 0 -72.5 30t-26.5 74t26.5 74t72.5 30q44 0 71.5 -28.5t27.5 -75.5q0 -44 -26.5 -74t-72.5 -30zM255 612q53 0 53 63t-53 63q-52 0 -52 -61
q0 -65 52 -65z" />
    <glyph glyph-name="ae" unicode="&#xe6;" horiz-adv-x="820" 
d="M198 -11q-71 0 -115 34t-44 101q0 40 18 70t45.5 48t70.5 30t84.5 16.5t94.5 6.5v44q0 101 -97 101q-49 0 -78 -20.5t-52 -67.5l-66 35q54 123 200 123q106 0 140 -87q57 87 163 87q97 0 155.5 -67t62.5 -206h-354q7 -179 144 -179q58 0 88.5 30t47.5 92l70 -14
q-22 -82 -70 -129t-137 -47q-120 0 -179 106q-62 -107 -192 -107zM211 54q60 0 100.5 30.5t40.5 79.5v73q-53 -2 -90 -7t-72 -16.5t-53 -33.5t-18 -54q0 -72 92 -72zM428 298h269q-9 77 -40.5 110t-94.5 33q-118 0 -134 -143z" />
    <glyph glyph-name="ccedilla" unicode="&#xe7;" horiz-adv-x="514" 
d="M221 -5q-86 20 -131.5 90.5t-45.5 165.5q0 117 59.5 188t163.5 71q82 0 129 -39t71 -115l-73 -16q-17 53 -44 76.5t-83 23.5q-71 0 -106 -49.5t-35 -137.5q0 -87 35 -141t111 -54q59 0 90.5 33t46.5 97l73 -15q-47 -183 -213 -183v-49q15 13 39 13q35 0 58.5 -22.5
t23.5 -61.5q0 -37 -29 -58t-72 -21q-75 0 -102 56l48 19q14 -30 52 -30q47 0 47 38t-37 38q-26 0 -34 -18h-42v101z" />
    <glyph glyph-name="egrave" unicode="&#xe8;" horiz-adv-x="528" 
d="M124 237q7 -179 149 -179q108 0 141 122l70 -14q-47 -176 -212 -176q-105 0 -166.5 73.5t-61.5 184.5q0 116 59 189t162 73q100 0 159.5 -67t63.5 -206h-364zM126 298h279q-9 76 -43 109.5t-97 33.5q-122 0 -139 -143zM247 591l-120 146h105l68 -146h-53z" />
    <glyph glyph-name="eacute" unicode="&#xe9;" horiz-adv-x="528" 
d="M124 237q7 -179 149 -179q108 0 141 122l70 -14q-47 -176 -212 -176q-105 0 -166.5 73.5t-61.5 184.5q0 116 59 189t162 73q100 0 159.5 -67t63.5 -206h-364zM126 298h279q-9 76 -43 109.5t-97 33.5q-122 0 -139 -143zM231 591l68 146h105l-120 -146h-53z" />
    <glyph glyph-name="ecircumflex" unicode="&#xea;" horiz-adv-x="528" 
d="M124 237q7 -179 149 -179q108 0 141 122l70 -14q-47 -176 -212 -176q-105 0 -166.5 73.5t-61.5 184.5q0 116 59 189t162 73q100 0 159.5 -67t63.5 -206h-364zM126 298h279q-9 76 -43 109.5t-97 33.5q-122 0 -139 -143zM134 591l94 146h70l94 -146h-51l-79 87l-79 -87h-49
z" />
    <glyph glyph-name="edieresis" unicode="&#xeb;" horiz-adv-x="528" 
d="M124 237q7 -179 149 -179q108 0 141 122l70 -14q-47 -176 -212 -176q-105 0 -166.5 73.5t-61.5 184.5q0 116 59 189t162 73q100 0 159.5 -67t63.5 -206h-364zM126 298h279q-9 76 -43 109.5t-97 33.5q-122 0 -139 -143zM145 620v93h84v-93h-84zM297 620v93h84v-93h-84z
" />
    <glyph glyph-name="igrave" unicode="&#xec;" horiz-adv-x="247" 
d="M83 0v498h81v-498h-81zM105 591l-120 146h105l68 -146h-53z" />
    <glyph glyph-name="iacute" unicode="&#xed;" horiz-adv-x="247" 
d="M83 0v498h81v-498h-81zM96 591l68 146h105l-120 -146h-53z" />
    <glyph glyph-name="icircumflex" unicode="&#xee;" horiz-adv-x="247" 
d="M83 0v498h81v-498h-81zM-6 591l94 146h70l94 -146h-51l-79 87l-79 -87h-49z" />
    <glyph glyph-name="idieresis" unicode="&#xef;" horiz-adv-x="247" 
d="M83 0v498h81v-498h-81zM5 620v93h84v-93h-84zM157 620v93h84v-93h-84z" />
    <glyph glyph-name="eth" unicode="&#xf0;" horiz-adv-x="549" 
d="M140 589l104 58q-34 31 -68 59l44 51q54 -37 92 -73l100 56l28 -47l-87 -48q152 -163 152 -382q0 -123 -60.5 -198t-170.5 -75q-106 0 -168 75.5t-62 185.5q0 112 59.5 185.5t162.5 73.5q70 0 120 -47q-31 71 -101 144l-118 -65zM275 58q76 0 112.5 52t36.5 138
t-37 140.5t-112 54.5t-112 -52.5t-37 -137.5q0 -87 37 -141t112 -54z" />
    <glyph glyph-name="ntilde" unicode="&#xf1;" horiz-adv-x="529" 
d="M80 0v498h80l-2 -73q20 37 57.5 61t89.5 24q66 0 109 -43t43 -129v-338h-80v343q0 94 -87 94q-130 0 -130 -144v-293h-80zM317 600q-31 0 -64.5 21t-44.5 21q-28 0 -35 -46l-50 8q7 49 30 74t59 25q30 0 61.5 -21t47.5 -21q27 0 32 42l50 -7q-5 -43 -27 -69.5t-59 -26.5z
" />
    <glyph glyph-name="ograve" unicode="&#xf2;" horiz-adv-x="549" 
d="M274 -10q-105 0 -167.5 74t-62.5 187q0 112 61.5 185.5t169.5 73.5t169 -73.5t61 -187.5q0 -113 -61 -186t-170 -73zM275 58q76 0 112 52t36 138q0 85 -36.5 138.5t-111.5 53.5t-112 -51.5t-37 -135.5q0 -87 37 -141t112 -54zM258 591l-120 146h105l68 -146h-53z" />
    <glyph glyph-name="oacute" unicode="&#xf3;" horiz-adv-x="549" 
d="M274 -10q-105 0 -167.5 74t-62.5 187q0 112 61.5 185.5t169.5 73.5t169 -73.5t61 -187.5q0 -113 -61 -186t-170 -73zM275 58q76 0 112 52t36 138q0 85 -36.5 138.5t-111.5 53.5t-112 -51.5t-37 -135.5q0 -87 37 -141t112 -54zM246 591l68 146h105l-120 -146h-53z" />
    <glyph glyph-name="ocircumflex" unicode="&#xf4;" horiz-adv-x="549" 
d="M274 -10q-105 0 -167.5 74t-62.5 187q0 112 61.5 185.5t169.5 73.5t169 -73.5t61 -187.5q0 -113 -61 -186t-170 -73zM275 58q76 0 112 52t36 138q0 85 -36.5 138.5t-111.5 53.5t-112 -51.5t-37 -135.5q0 -87 37 -141t112 -54zM145 591l94 146h70l94 -146h-51l-79 87
l-79 -87h-49z" />
    <glyph glyph-name="otilde" unicode="&#xf5;" horiz-adv-x="549" 
d="M274 -10q-105 0 -167.5 74t-62.5 187q0 112 61.5 185.5t169.5 73.5t169 -73.5t61 -187.5q0 -113 -61 -186t-170 -73zM275 58q76 0 112 52t36 138q0 85 -36.5 138.5t-111.5 53.5t-112 -51.5t-37 -135.5q0 -87 37 -141t112 -54zM327 582q-31 0 -64.5 25t-44.5 25
q-28 0 -35 -46l-50 8q7 49 30 74t59 25q30 0 61.5 -25t47.5 -25q27 0 32 42l50 -7q-5 -43 -27 -69.5t-59 -26.5z" />
    <glyph glyph-name="odieresis" unicode="&#xf6;" horiz-adv-x="549" 
d="M274 -10q-105 0 -167.5 74t-62.5 187q0 112 61.5 185.5t169.5 73.5t169 -73.5t61 -187.5q0 -113 -61 -186t-170 -73zM275 58q76 0 112 52t36 138q0 85 -36.5 138.5t-111.5 53.5t-112 -51.5t-37 -135.5q0 -87 37 -141t112 -54zM156 620v93h84v-93h-84zM308 620v93h84v-93
h-84z" />
    <glyph glyph-name="divide" unicode="&#xf7;" horiz-adv-x="464" 
d="M60 296v72h344v-72h-344zM186 446v108h92v-108h-92zM186 110v108h92v-108h-92z" />
    <glyph glyph-name="oslash" unicode="&#xf8;" horiz-adv-x="549" 
d="M463 411q42 -67 42 -156q0 -117 -60.5 -191t-170.5 -74q-87 0 -146 51l-37 -41h-83l80 88q-44 69 -44 163q0 112 61.5 185.5t169.5 73.5q88 0 148 -52l35 39h83zM140 146l235 259q-38 38 -100 38q-77 0 -114.5 -52t-37.5 -138q0 -59 17 -107zM409 351l-234 -258
q38 -38 100 -38q78 0 114.5 52.5t36.5 140.5q0 60 -17 103z" />
    <glyph glyph-name="ugrave" unicode="&#xf9;" horiz-adv-x="529" 
d="M224 -12q-66 0 -109 43t-43 129v338h80v-343q0 -97 87 -97q58 0 94 36t36 111v293h80v-498h-80l2 73q-20 -37 -57.5 -61t-89.5 -24zM248 591l-120 146h105l68 -146h-53z" />
    <glyph glyph-name="uacute" unicode="&#xfa;" horiz-adv-x="529" 
d="M224 -12q-66 0 -109 43t-43 129v338h80v-343q0 -97 87 -97q58 0 94 36t36 111v293h80v-498h-80l2 73q-20 -37 -57.5 -61t-89.5 -24zM231 591l68 146h105l-120 -146h-53z" />
    <glyph glyph-name="ucircumflex" unicode="&#xfb;" horiz-adv-x="529" 
d="M224 -12q-66 0 -109 43t-43 129v338h80v-343q0 -97 87 -97q58 0 94 36t36 111v293h80v-498h-80l2 73q-20 -37 -57.5 -61t-89.5 -24zM135 591l94 146h70l94 -146h-51l-79 87l-79 -87h-49z" />
    <glyph glyph-name="udieresis" unicode="&#xfc;" horiz-adv-x="529" 
d="M224 -12q-66 0 -109 43t-43 129v338h80v-343q0 -97 87 -97q58 0 94 36t36 111v293h80v-498h-80l2 73q-20 -37 -57.5 -61t-89.5 -24zM146 620v93h84v-93h-84zM298 620v93h84v-93h-84z" />
    <glyph glyph-name="yacute" unicode="&#xfd;" horiz-adv-x="480" 
d="M207 -1l-186 499h86l140 -389l133 389h79l-216 -606q-17 -50 -40 -75q-31 -34 -83 -34q-42 0 -68 19l7 68h2q21 -21 54 -21q45 0 69 76zM202 591l68 146h105l-120 -146h-53z" />
    <glyph glyph-name="thorn" unicode="&#xfe;" horiz-adv-x="561" 
d="M80 -197v954h80v-330q50 83 155 83q92 0 146 -68.5t54 -189.5q0 -120 -51.5 -190.5t-151.5 -70.5q-59 0 -92.5 20.5t-59.5 60.5v-269h-80zM304 57q129 0 129 199q0 98 -33 140.5t-97 42.5q-145 0 -145 -184q0 -198 146 -198z" />
    <glyph glyph-name="ydieresis" unicode="&#xff;" horiz-adv-x="480" 
d="M207 -1l-186 499h86l140 -389l133 389h79l-216 -606q-17 -50 -40 -75q-31 -34 -83 -34q-42 0 -68 19l7 68h2q21 -21 54 -21q45 0 69 76zM120 620v93h84v-93h-84zM272 620v93h84v-93h-84z" />
    <glyph glyph-name="Amacron" unicode="&#x100;" horiz-adv-x="633" 
d="M178 227l-78 -227h-85l268 754h70l265 -754h-90l-78 227h-272zM425 300l-111 325l-111 -325h222zM205 822v64h222v-64h-222z" />
    <glyph glyph-name="amacron" unicode="&#x101;" horiz-adv-x="517" 
d="M352 295v44q0 101 -97 101q-49 0 -78 -20.5t-52 -67.5l-66 35q54 123 200 123q71 0 122 -42.5t51 -134.5v-227q0 -26 7 -36.5t26 -10.5q21 0 42 12h2l-8 -66q-28 -14 -53 -14q-75 0 -92 75q-61 -77 -158 -77q-71 0 -115 34t-44 101q0 40 18 70t45.5 48t70.5 30t84.5 16.5
t94.5 6.5zM352 237q-53 -2 -90 -7t-72 -16.5t-53 -33.5t-18 -54q0 -72 92 -72q60 0 100.5 30.5t40.5 79.5v73zM142 614v64h222v-64h-222z" />
    <glyph glyph-name="Abreve" unicode="&#x102;" horiz-adv-x="633" 
d="M178 227l-78 -227h-85l268 754h70l265 -754h-90l-78 227h-272zM425 300l-111 325l-111 -325h222zM314 808q-52 0 -86.5 34.5t-37.5 88.5h57q6 -35 21.5 -51t48.5 -16q32 0 48 16.5t22 50.5h55q-3 -53 -39.5 -88t-88.5 -35z" />
    <glyph glyph-name="abreve" unicode="&#x103;" horiz-adv-x="517" 
d="M352 295v44q0 101 -97 101q-49 0 -78 -20.5t-52 -67.5l-66 35q54 123 200 123q71 0 122 -42.5t51 -134.5v-227q0 -26 7 -36.5t26 -10.5q21 0 42 12h2l-8 -66q-28 -14 -53 -14q-75 0 -92 75q-61 -77 -158 -77q-71 0 -115 34t-44 101q0 40 18 70t45.5 48t70.5 30t84.5 16.5
t94.5 6.5zM352 237q-53 -2 -90 -7t-72 -16.5t-53 -33.5t-18 -54q0 -72 92 -72q60 0 100.5 30.5t40.5 79.5v73zM252 594q-52 0 -86.5 34.5t-37.5 88.5h57q6 -35 21.5 -51t48.5 -16q32 0 48 16.5t22 50.5h55q-3 -53 -39.5 -88t-88.5 -35z" />
    <glyph glyph-name="Aogonek" unicode="&#x104;" horiz-adv-x="633" 
d="M629 -126l-10 -63q-21 -12 -58 -12q-49 0 -76 23t-27 62q0 64 72 110l-80 233h-272l-78 -227h-85l268 754h70l264 -750q-47 -35 -66 -58t-19 -53q0 -36 42 -36q30 0 55 17zM425 300l-111 325l-111 -325h222z" />
    <glyph glyph-name="aogonek" unicode="&#x105;" horiz-adv-x="517" 
d="M505 -126l-10 -63q-21 -12 -58 -12q-49 0 -76 23t-27 62q0 63 81 114q-46 11 -59 68q-61 -77 -158 -77q-71 0 -115 34t-44 101q0 40 18 70t45.5 48t70.5 30t84.5 16.5t94.5 6.5v44q0 101 -97 101q-49 0 -78 -20.5t-52 -67.5l-66 35q54 123 200 123q71 0 122 -42.5
t51 -134.5v-227q0 -26 7 -36.5t26 -10.5q21 0 42 12h2l-7 -61q-32 -23 -48.5 -37t-31 -36t-14.5 -44q0 -36 42 -36q30 0 55 17zM352 237q-53 -2 -90 -7t-72 -16.5t-53 -33.5t-18 -54q0 -72 92 -72q60 0 100.5 30.5t40.5 79.5v73z" />
    <glyph glyph-name="Cacute" unicode="&#x106;" horiz-adv-x="743" 
d="M401 -9q-156 0 -249.5 107.5t-93.5 277.5q0 169 95 278.5t245 109.5q114 0 188.5 -52.5t112.5 -164.5l-77 -27q-52 172 -222 172q-115 0 -184 -86.5t-69 -228.5q0 -144 69 -228t187 -84q177 0 227 178l78 -29q-75 -223 -307 -223zM365 807l68 146h105l-120 -146h-53z" />
    <glyph glyph-name="cacute" unicode="&#x107;" horiz-adv-x="514" 
d="M271 -10q-105 0 -166 75t-61 186q0 117 59.5 188t163.5 71q82 0 129 -39t71 -115l-73 -16q-17 53 -44 76.5t-83 23.5q-71 0 -106 -49.5t-35 -137.5q0 -87 35 -141t111 -54q59 0 90.5 33t46.5 97l73 -15q-47 -183 -211 -183zM241 591l68 146h105l-120 -146h-53z" />
    <glyph glyph-name="Ccircumflex" unicode="&#x108;" horiz-adv-x="743" 
d="M401 -9q-156 0 -249.5 107.5t-93.5 277.5q0 169 95 278.5t245 109.5q114 0 188.5 -52.5t112.5 -164.5l-77 -27q-52 172 -222 172q-115 0 -184 -86.5t-69 -228.5q0 -144 69 -228t187 -84q177 0 227 178l78 -29q-75 -223 -307 -223zM277 807l94 146h70l94 -146h-51l-79 87
l-79 -87h-49z" />
    <glyph glyph-name="ccircumflex" unicode="&#x109;" horiz-adv-x="514" 
d="M271 -10q-105 0 -166 75t-61 186q0 117 59.5 188t163.5 71q82 0 129 -39t71 -115l-73 -16q-17 53 -44 76.5t-83 23.5q-71 0 -106 -49.5t-35 -137.5q0 -87 35 -141t111 -54q59 0 90.5 33t46.5 97l73 -15q-47 -183 -211 -183zM145 591l94 146h70l94 -146h-51l-79 87
l-79 -87h-49z" />
    <glyph glyph-name="Cdotaccent" unicode="&#x10a;" horiz-adv-x="743" 
d="M401 -9q-156 0 -249.5 107.5t-93.5 277.5q0 169 95 278.5t245 109.5q114 0 188.5 -52.5t112.5 -164.5l-77 -27q-52 172 -222 172q-115 0 -184 -86.5t-69 -228.5q0 -144 69 -228t187 -84q177 0 227 178l78 -29q-75 -223 -307 -223zM358 827v97h84v-97h-84z" />
    <glyph glyph-name="cdotaccent" unicode="&#x10b;" horiz-adv-x="514" 
d="M225 638v95h85v-95h-85zM271 -10q-105 0 -166 75t-61 186q0 117 59.5 188t163.5 71q82 0 129 -39t71 -115l-73 -16q-17 53 -44 76.5t-83 23.5q-71 0 -106 -49.5t-35 -137.5q0 -87 35 -141t111 -54q59 0 90.5 33t46.5 97l73 -15q-47 -183 -211 -183z" />
    <glyph glyph-name="Ccaron" unicode="&#x10c;" horiz-adv-x="743" 
d="M401 -9q-156 0 -249.5 107.5t-93.5 277.5q0 169 95 278.5t245 109.5q114 0 188.5 -52.5t112.5 -164.5l-77 -27q-52 172 -222 172q-115 0 -184 -86.5t-69 -228.5q0 -144 69 -228t187 -84q177 0 227 178l78 -29q-75 -223 -307 -223zM540 953l-94 -146h-70l-94 146h51
l79 -87l79 87h49z" />
    <glyph glyph-name="ccaron" unicode="&#x10d;" horiz-adv-x="514" 
d="M271 -10q-105 0 -166 75t-61 186q0 117 59.5 188t163.5 71q82 0 129 -39t71 -115l-73 -16q-17 53 -44 76.5t-83 23.5q-71 0 -106 -49.5t-35 -137.5q0 -87 35 -141t111 -54q59 0 90.5 33t46.5 97l73 -15q-47 -183 -211 -183zM399 737l-94 -146h-70l-94 146h51l79 -87
l79 87h49z" />
    <glyph glyph-name="Dcaron" unicode="&#x10e;" horiz-adv-x="741" 
d="M83 0v753h243q178 0 267.5 -104t89.5 -271q0 -81 -19.5 -147.5t-61 -119t-112 -82t-166.5 -29.5h-241zM170 73h163q132 0 196.5 81t64.5 225q0 138 -64.5 220t-197.5 82h-162v-608zM439 953l-94 -146h-70l-94 146h51l79 -87l79 87h49z" />
    <glyph glyph-name="dcaron" unicode="&#x10f;" horiz-adv-x="634" 
d="M248 -12q-92 0 -147 69t-55 189t53 192t152 72q108 0 154 -83v330h80v-757h-80l2 77q-54 -89 -159 -89zM260 57q67 0 107 46t40 144q0 192 -148 192q-131 0 -131 -193q0 -189 132 -189zM563 515l-2 48q51 8 52 76h-52v114h105v-106q0 -61 -28 -93.5t-75 -38.5z" />
    <glyph glyph-name="Dcroat" unicode="&#x110;" horiz-adv-x="756" 
d="M98 337h-89v71h89v345h243q178 0 267.5 -104t89.5 -271q0 -81 -19.5 -147.5t-61 -119t-112 -82t-166.5 -29.5h-241v337zM185 408h151v-71h-151v-264h163q132 0 196.5 81t64.5 225q0 138 -64.5 220t-197.5 82h-162v-273z" />
    <glyph glyph-name="dcroat" unicode="&#x111;" horiz-adv-x="565" 
d="M405 592h-152v65h152v100h80v-100h62v-65h-62v-592h-80l2 77q-54 -89 -159 -89q-92 0 -147 69t-55 189t53 192t152 72q108 0 154 -83v165zM260 57q67 0 107 46t40 144q0 192 -148 192q-131 0 -131 -193q0 -189 132 -189z" />
    <glyph glyph-name="Emacron" unicode="&#x112;" horiz-adv-x="615" 
d="M83 0v753h481v-73h-394v-265h327v-71h-327v-271h413v-73h-500zM225 822v64h222v-64h-222z" />
    <glyph glyph-name="emacron" unicode="&#x113;" horiz-adv-x="528" 
d="M124 237q7 -179 149 -179q108 0 141 122l70 -14q-47 -176 -212 -176q-105 0 -166.5 73.5t-61.5 184.5q0 116 59 189t162 73q100 0 159.5 -67t63.5 -206h-364zM126 298h279q-9 76 -43 109.5t-97 33.5q-122 0 -139 -143zM158 614v64h222v-64h-222z" />
    <glyph glyph-name="Ebreve" unicode="&#x114;" horiz-adv-x="615" 
d="M83 0v753h481v-73h-394v-265h327v-71h-327v-271h413v-73h-500zM298 808q-52 0 -86.5 34.5t-37.5 88.5h57q6 -35 21.5 -51t48.5 -16q32 0 48 16.5t22 50.5h55q-3 -53 -39.5 -88t-88.5 -35z" />
    <glyph glyph-name="ebreve" unicode="&#x115;" horiz-adv-x="528" 
d="M124 237q7 -179 149 -179q108 0 141 122l70 -14q-47 -176 -212 -176q-105 0 -166.5 73.5t-61.5 184.5q0 116 59 189t162 73q100 0 159.5 -67t63.5 -206h-364zM126 298h279q-9 76 -43 109.5t-97 33.5q-122 0 -139 -143zM268 594q-52 0 -86.5 34.5t-37.5 88.5h57
q6 -35 21.5 -51t48.5 -16q32 0 48 16.5t22 50.5h55q-3 -53 -39.5 -88t-88.5 -35z" />
    <glyph glyph-name="Edotaccent" unicode="&#x116;" horiz-adv-x="615" 
d="M83 0v753h481v-73h-394v-265h327v-71h-327v-271h413v-73h-500zM295 827v97h84v-97h-84z" />
    <glyph glyph-name="edotaccent" unicode="&#x117;" horiz-adv-x="528" 
d="M124 237q7 -179 149 -179q108 0 141 122l70 -14q-47 -176 -212 -176q-105 0 -166.5 73.5t-61.5 184.5q0 116 59 189t162 73q100 0 159.5 -67t63.5 -206h-364zM126 298h279q-9 76 -43 109.5t-97 33.5q-122 0 -139 -143zM225 638v95h85v-95h-85z" />
    <glyph glyph-name="Eogonek" unicode="&#x118;" horiz-adv-x="615" 
d="M83 0v753h481v-73h-394v-265h327v-71h-327v-271h413v-73h-42q-43 -32 -61.5 -54.5t-18.5 -52.5q0 -36 42 -36q30 0 55 17l-10 -63q-21 -12 -58 -12q-49 0 -76 23t-27 62q0 66 82 116h-386z" />
    <glyph glyph-name="eogonek" unicode="&#x119;" horiz-adv-x="528" 
d="M424 -126l-10 -63q-21 -12 -58 -12q-49 0 -76 23t-27 62q0 62 73 112q-34 -6 -54 -6q-105 0 -166.5 73.5t-61.5 184.5q0 116 59 189t162 73q100 0 159.5 -67t63.5 -206h-364q7 -179 149 -179q108 0 141 122l70 -14q-16 -58 -44 -97q-12 -18 -61 -76q-52 -61 -52 -100
q0 -36 42 -36q30 0 55 17zM126 298h279q-9 76 -43 109.5t-97 33.5q-122 0 -139 -143z" />
    <glyph glyph-name="Ecaron" unicode="&#x11a;" horiz-adv-x="615" 
d="M83 0v753h481v-73h-394v-265h327v-71h-327v-271h413v-73h-500zM466 953l-94 -146h-70l-94 146h51l79 -87l79 87h49z" />
    <glyph glyph-name="ecaron" unicode="&#x11b;" horiz-adv-x="528" 
d="M124 237q7 -179 149 -179q108 0 141 122l70 -14q-47 -176 -212 -176q-105 0 -166.5 73.5t-61.5 184.5q0 116 59 189t162 73q100 0 159.5 -67t63.5 -206h-364zM126 298h279q-9 76 -43 109.5t-97 33.5q-122 0 -139 -143zM393 737l-94 -146h-70l-94 146h51l79 -87l79 87h49z
" />
    <glyph glyph-name="Gcircumflex" unicode="&#x11c;" horiz-adv-x="783" 
d="M398 -9q-156 0 -248 108t-92 277q0 168 93.5 278t245.5 110q112 0 186 -50t115 -157l-78 -30q-29 85 -81.5 125t-139.5 40q-118 0 -185 -87t-67 -228q0 -142 66.5 -227.5t186.5 -85.5q102 0 169.5 71.5t67.5 184.5v11h-204v73h289v-404h-56l-17 140q-82 -149 -251 -149z
M277 807l94 146h70l94 -146h-51l-79 87l-79 -87h-49z" />
    <glyph glyph-name="gcircumflex" unicode="&#x11d;" horiz-adv-x="545" 
d="M115 196q-60 49 -60 134q0 83 54 131.5t148 48.5q117 0 175 -71q28 69 83 69q35 0 56 -24l-35 -64h-2q-12 16 -32 16q-15 0 -25.5 -14.5t-10.5 -35.5q0 -7 2.5 -24t2.5 -34q0 -88 -56 -133t-153 -45q-52 0 -97 17q-52 -13 -52 -48q0 -27 30.5 -34t97.5 -7h31
q120 0 173 -19q82 -30 82 -125q0 -156 -245 -156q-247 0 -247 143q0 63 64 97q-62 23 -62 87q0 32 22 56t56 35zM263 214q63 0 95.5 27t32.5 88q0 117 -132 117q-124 0 -124 -117q0 -115 128 -115zM160 4q-51 -26 -51 -77q0 -44 39.5 -64t134.5 -20q93 0 130.5 22t37.5 69
q0 22 -7.5 34t-29.5 20q-35 12 -120 12h-27q-74 0 -107 4zM151 591l94 146h70l94 -146h-51l-79 87l-79 -87h-49z" />
    <glyph glyph-name="Gbreve" unicode="&#x11e;" horiz-adv-x="783" 
d="M398 -9q-156 0 -248 108t-92 277q0 168 93.5 278t245.5 110q112 0 186 -50t115 -157l-78 -30q-29 85 -81.5 125t-139.5 40q-118 0 -185 -87t-67 -228q0 -142 66.5 -227.5t186.5 -85.5q102 0 169.5 71.5t67.5 184.5v11h-204v73h289v-404h-56l-17 140q-82 -149 -251 -149z
M390 808q-52 0 -86.5 34.5t-37.5 88.5h57q6 -35 21.5 -51t48.5 -16q32 0 48 16.5t22 50.5h55q-3 -53 -39.5 -88t-88.5 -35z" />
    <glyph glyph-name="gbreve" unicode="&#x11f;" horiz-adv-x="545" 
d="M115 196q-60 49 -60 134q0 83 54 131.5t148 48.5q117 0 175 -71q28 69 83 69q35 0 56 -24l-35 -64h-2q-12 16 -32 16q-15 0 -25.5 -14.5t-10.5 -35.5q0 -7 2.5 -24t2.5 -34q0 -88 -56 -133t-153 -45q-52 0 -97 17q-52 -13 -52 -48q0 -27 30.5 -34t97.5 -7h31
q120 0 173 -19q82 -30 82 -125q0 -156 -245 -156q-247 0 -247 143q0 63 64 97q-62 23 -62 87q0 32 22 56t56 35zM263 214q63 0 95.5 27t32.5 88q0 117 -132 117q-124 0 -124 -117q0 -115 128 -115zM160 4q-51 -26 -51 -77q0 -44 39.5 -64t134.5 -20q93 0 130.5 22t37.5 69
q0 22 -7.5 34t-29.5 20q-35 12 -120 12h-27q-74 0 -107 4zM280 594q-52 0 -86.5 34.5t-37.5 88.5h57q6 -35 21.5 -51t48.5 -16q32 0 48 16.5t22 50.5h55q-3 -53 -39.5 -88t-88.5 -35z" />
    <glyph glyph-name="Gdotaccent" unicode="&#x120;" horiz-adv-x="783" 
d="M398 -9q-156 0 -248 108t-92 277q0 168 93.5 278t245.5 110q112 0 186 -50t115 -157l-78 -30q-29 85 -81.5 125t-139.5 40q-118 0 -185 -87t-67 -228q0 -142 66.5 -227.5t186.5 -85.5q102 0 169.5 71.5t67.5 184.5v11h-204v73h289v-404h-56l-17 140q-82 -149 -251 -149z
M357 827v97h84v-97h-84z" />
    <glyph glyph-name="gdotaccent" unicode="&#x121;" horiz-adv-x="545" 
d="M115 196q-60 49 -60 134q0 83 54 131.5t148 48.5q117 0 175 -71q28 69 83 69q35 0 56 -24l-35 -64h-2q-12 16 -32 16q-15 0 -25.5 -14.5t-10.5 -35.5q0 -7 2.5 -24t2.5 -34q0 -88 -56 -133t-153 -45q-52 0 -97 17q-52 -13 -52 -48q0 -27 30.5 -34t97.5 -7h31
q120 0 173 -19q82 -30 82 -125q0 -156 -245 -156q-247 0 -247 143q0 63 64 97q-62 23 -62 87q0 32 22 56t56 35zM263 214q63 0 95.5 27t32.5 88q0 117 -132 117q-124 0 -124 -117q0 -115 128 -115zM160 4q-51 -26 -51 -77q0 -44 39.5 -64t134.5 -20q93 0 130.5 22t37.5 69
q0 22 -7.5 34t-29.5 20q-35 12 -120 12h-27q-74 0 -107 4zM231 638v95h85v-95h-85z" />
    <glyph glyph-name="Gcommaaccent" unicode="&#x122;" horiz-adv-x="783" 
d="M398 -9q-156 0 -248 108t-92 277q0 168 93.5 278t245.5 110q112 0 186 -50t115 -157l-78 -30q-29 85 -81.5 125t-139.5 40q-118 0 -185 -87t-67 -228q0 -142 66.5 -227.5t186.5 -85.5q102 0 169.5 71.5t67.5 184.5v11h-204v73h289v-404h-56l-17 140q-82 -149 -251 -149z
M358 -270l-1 44q42 9 43 66h-44v110h90v-104q0 -106 -88 -116z" />
    <glyph glyph-name="gcommaaccent" unicode="&#x123;" horiz-adv-x="545" 
d="M115 196q-60 49 -60 134q0 83 54 131.5t148 48.5q117 0 175 -71q28 69 83 69q35 0 56 -24l-35 -64h-2q-12 16 -32 16q-15 0 -25.5 -14.5t-10.5 -35.5q0 -7 2.5 -24t2.5 -34q0 -88 -56 -133t-153 -45q-52 0 -97 17q-52 -13 -52 -48q0 -27 30.5 -34t97.5 -7h31
q120 0 173 -19q82 -30 82 -125q0 -156 -245 -156q-247 0 -247 143q0 63 64 97q-62 23 -62 87q0 32 22 56t56 35zM263 214q63 0 95.5 27t32.5 88q0 117 -132 117q-124 0 -124 -117q0 -115 128 -115zM160 4q-51 -26 -51 -77q0 -44 39.5 -64t134.5 -20q93 0 130.5 22t37.5 69
q0 22 -7.5 34t-29.5 20q-35 12 -120 12h-27q-74 0 -107 4zM311 846l1 -44q-42 -9 -43 -66h44v-110h-90v104q0 106 88 116z" />
    <glyph glyph-name="Hcircumflex" unicode="&#x124;" horiz-adv-x="719" 
d="M549 411v342h87v-753h-87v336h-379v-336h-87v753h87v-342h379zM229 807l94 146h70l94 -146h-51l-79 87l-79 -87h-49z" />
    <glyph glyph-name="hcircumflex" unicode="&#x125;" horiz-adv-x="523" 
d="M80 0v757h80v-329q45 82 141 82q65 0 107.5 -43.5t42.5 -128.5v-338h-80v343q0 94 -85 94q-126 0 -126 -144v-293h-80zM139 807l94 146h70l94 -146h-51l-79 87l-79 -87h-49z" />
    <glyph glyph-name="Hbar" unicode="&#x126;" horiz-adv-x="719" 
d="M2 544v61h81v148h87v-148h379v148h87v-148h81v-61h-81v-544h-87v336h-379v-336h-87v544h-81zM549 411v133h-379v-133h379z" />
    <glyph glyph-name="hbar" unicode="&#x127;" horiz-adv-x="523" 
d="M18 592v65h62v100h80v-100h142v-65h-142v-164q45 82 141 82q65 0 107.5 -43.5t42.5 -128.5v-338h-80v343q0 94 -85 94q-126 0 -126 -144v-293h-80v592h-62z" />
    <glyph glyph-name="Itilde" unicode="&#x128;" horiz-adv-x="271" 
d="M92 0v753h87v-753h-87zM189 816q-31 0 -64.5 21t-44.5 21q-28 0 -35 -46l-50 8q14 99 89 99q30 0 61.5 -21t47.5 -21q27 0 32 42l50 -7q-5 -43 -27 -69.5t-59 -26.5z" />
    <glyph glyph-name="itilde" unicode="&#x129;" horiz-adv-x="247" 
d="M83 0v498h81v-498h-81zM176 600q-31 0 -64.5 21t-44.5 21q-28 0 -35 -46l-50 8q14 99 89 99q30 0 61.5 -21t47.5 -21q27 0 32 42l50 -7q-5 -43 -27 -69.5t-59 -26.5z" />
    <glyph glyph-name="Imacron" unicode="&#x12a;" horiz-adv-x="271" 
d="M92 0v753h87v-753h-87zM24 822v64h222v-64h-222z" />
    <glyph glyph-name="imacron" unicode="&#x12b;" horiz-adv-x="247" 
d="M83 0v498h81v-498h-81zM12 614v64h222v-64h-222z" />
    <glyph glyph-name="Ibreve" unicode="&#x12c;" horiz-adv-x="271" 
d="M92 0v753h87v-753h-87zM133 808q-52 0 -86.5 34.5t-37.5 88.5h57q6 -35 21.5 -51t48.5 -16q32 0 48 16.5t22 50.5h55q-3 -53 -39.5 -88t-88.5 -35z" />
    <glyph glyph-name="ibreve" unicode="&#x12d;" horiz-adv-x="247" 
d="M83 0v498h81v-498h-81zM122 594q-52 0 -86.5 34.5t-37.5 88.5h57q6 -35 21.5 -51t48.5 -16q32 0 48 16.5t22 50.5h55q-3 -53 -39.5 -88t-88.5 -35z" />
    <glyph glyph-name="Iogonek" unicode="&#x12e;" horiz-adv-x="271" 
d="M196 -126l-10 -63q-21 -12 -58 -12q-49 0 -76 23t-27 62q0 60 67 107v762h87v-753q-43 -32 -61.5 -54.5t-18.5 -52.5q0 -36 42 -36q30 0 55 17z" />
    <glyph glyph-name="iogonek" unicode="&#x12f;" horiz-adv-x="247" 
d="M187 -126l-10 -63q-21 -12 -58 -12q-49 0 -76 23t-27 62q0 62 67 107v507h81v-498q-40 -32 -57 -54.5t-17 -52.5q0 -36 42 -36q30 0 55 17zM81 658v95h85v-95h-85z" />
    <glyph glyph-name="Idotaccent" unicode="&#x130;" horiz-adv-x="271" 
d="M92 0v753h87v-753h-87zM93 827v97h85v-97h-85z" />
    <glyph glyph-name="dotlessi" unicode="&#x131;" horiz-adv-x="247" 
d="M83 0v498h81v-498h-81z" />
    <glyph glyph-name="IJ" unicode="&#x132;" horiz-adv-x="780" 
d="M92 0v753h87v-753h-87zM511 -7q-87 0 -140.5 48t-53.5 147v66h83v-55q0 -73 24 -105t84 -32q34 0 56 13.5t33 39t14.5 52t3.5 63.5v523h87v-516q0 -43 -4.5 -76.5t-16.5 -66t-33 -54t-55.5 -34.5t-81.5 -13z" />
    <glyph glyph-name="ij" unicode="&#x133;" horiz-adv-x="494" 
d="M83 0v498h81v-498h-81zM81 658v95h85v-95h-85zM250 -127h1q14 -14 37 -14q42 0 42 66v573h81v-586q0 -55 -25 -88q-26 -34 -83 -34q-31 0 -59 15zM328 658v95h85v-95h-85z" />
    <glyph glyph-name="Jcircumflex" unicode="&#x134;" horiz-adv-x="509" 
d="M240 -7q-87 0 -140.5 48t-53.5 147v66h83v-55q0 -73 24 -105t84 -32q34 0 56 13.5t33 39t14.5 52t3.5 63.5v523h87v-516q0 -43 -4.5 -76.5t-16.5 -66t-33 -54t-55.5 -34.5t-81.5 -13zM257 807l94 146h70l94 -146h-51l-79 87l-79 -87h-49z" />
    <glyph glyph-name="jcircumflex" unicode="&#x135;" horiz-adv-x="247" 
d="M3 -127h1q14 -14 37 -14q42 0 42 66v573h81v-586q0 -55 -25 -88q-26 -34 -83 -34q-31 0 -59 15zM-4 591l94 146h70l94 -146h-51l-79 87l-79 -87h-49z" />
    <glyph glyph-name="Kcommaaccent" unicode="&#x136;" horiz-adv-x="639" 
d="M170 372l334 382h101l-277 -313l291 -441h-101l-247 376l-101 -113v-263h-87v753h87v-381zM282 -270l-1 44q42 9 43 66h-44v110h90v-104q0 -106 -88 -116z" />
    <glyph glyph-name="kcommaaccent" unicode="&#x137;" horiz-adv-x="470" 
d="M160 179v-179h-80v757h80v-474l178 215h89l-164 -196l189 -302h-91l-149 240zM204 -270l-1 44q42 9 43 66h-44v110h90v-104q0 -106 -88 -116z" />
    <glyph glyph-name="kgreenlandic" unicode="&#x138;" horiz-adv-x="470" 
d="M160 179v-179h-80v498h80v-215l178 215h89l-164 -196l189 -302h-91l-149 240z" />
    <glyph glyph-name="Lacute" unicode="&#x139;" horiz-adv-x="587" 
d="M83 0v753h87v-680h385v-73h-472zM97 807l68 146h105l-120 -146h-53z" />
    <glyph glyph-name="lacute" unicode="&#x13a;" horiz-adv-x="247" 
d="M83 0v757h81v-757h-81zM94 807l68 146h105l-120 -146h-53z" />
    <glyph glyph-name="Lcommaaccent" unicode="&#x13b;" horiz-adv-x="587" 
d="M83 0v753h87v-680h385v-73h-472zM282 -270l-1 44q42 9 43 66h-44v110h90v-104q0 -106 -88 -116z" />
    <glyph glyph-name="lcommaaccent" unicode="&#x13c;" horiz-adv-x="247" 
d="M83 0v757h81v-757h-81zM79 -270l-1 44q42 9 43 66h-44v110h90v-104q0 -106 -88 -116z" />
    <glyph glyph-name="Lcaron" unicode="&#x13d;" horiz-adv-x="587" 
d="M83 0v753h87v-680h385v-73h-472zM303 515l-2 48q51 8 52 76h-52v114h105v-106q0 -61 -28 -93.5t-75 -38.5z" />
    <glyph glyph-name="lcaron" unicode="&#x13e;" horiz-adv-x="306" 
d="M83 0v757h81v-757h-81zM235 515l-2 48q51 8 52 76h-52v114h105v-106q0 -61 -28 -93.5t-75 -38.5z" />
    <glyph glyph-name="Ldot" unicode="&#x13f;" horiz-adv-x="587" 
d="M83 0v753h87v-680h385v-73h-472zM369 330v97h84v-97h-84z" />
    <glyph glyph-name="ldot" unicode="&#x140;" horiz-adv-x="310" 
d="M83 0v757h81v-757h-81zM234 279v95h85v-95h-85z" />
    <glyph glyph-name="Lslash" unicode="&#x141;" horiz-adv-x="622" 
d="M118 282l-95 -38v73l95 38v398h87v-363l278 112v-73l-278 -112v-244h385v-73h-472v282z" />
    <glyph glyph-name="lslash" unicode="&#x142;" horiz-adv-x="314" 
d="M198 352v-352h-82v309l-93 -48v73l93 49v374h82v-331l93 48v-73z" />
    <glyph glyph-name="Nacute" unicode="&#x143;" horiz-adv-x="750" 
d="M83 0v753h103l399 -641v641h82v-753h-111l-391 628v-628h-82zM350 807l68 146h105l-120 -146h-53z" />
    <glyph glyph-name="nacute" unicode="&#x144;" horiz-adv-x="529" 
d="M80 0v498h80l-2 -73q20 37 57.5 61t89.5 24q66 0 109 -43t43 -129v-338h-80v343q0 94 -87 94q-130 0 -130 -144v-293h-80zM239 591l68 146h105l-120 -146h-53z" />
    <glyph glyph-name="Ncommaaccent" unicode="&#x145;" horiz-adv-x="750" 
d="M83 0v753h103l399 -641v641h82v-753h-111l-391 628v-628h-82zM327 -270l-1 44q42 9 43 66h-44v110h90v-104q0 -106 -88 -116z" />
    <glyph glyph-name="ncommaaccent" unicode="&#x146;" horiz-adv-x="529" 
d="M80 0v498h80l-2 -73q20 37 57.5 61t89.5 24q66 0 109 -43t43 -129v-338h-80v343q0 94 -87 94q-130 0 -130 -144v-293h-80zM221 -270l-1 44q42 9 43 66h-44v110h90v-104q0 -106 -88 -116z" />
    <glyph glyph-name="Ncaron" unicode="&#x147;" horiz-adv-x="750" 
d="M83 0v753h103l399 -641v641h82v-753h-111l-391 628v-628h-82zM526 953l-94 -146h-70l-94 146h51l79 -87l79 87h49z" />
    <glyph glyph-name="ncaron" unicode="&#x148;" horiz-adv-x="529" 
d="M80 0v498h80l-2 -73q20 37 57.5 61t89.5 24q66 0 109 -43t43 -129v-338h-80v343q0 94 -87 94q-130 0 -130 -144v-293h-80zM405 737l-94 -146h-70l-94 146h51l79 -87l79 87h49z" />
    <glyph glyph-name="napostrophe" unicode="&#x149;" horiz-adv-x="632" 
d="M183 0v498h80l-2 -73q20 37 57.5 61t89.5 24q66 0 109 -43t43 -129v-338h-80v343q0 94 -87 94q-130 0 -130 -144v-293h-80zM40 495l-2 48q51 8 52 76h-52v134h105v-126q0 -61 -28 -93.5t-75 -38.5z" />
    <glyph glyph-name="Eng" unicode="&#x14a;" horiz-adv-x="750" 
d="M83 0v753h103l399 -611v611h82v-818q0 -65 -32 -104q-33 -41 -106 -41q-37 0 -75 18l8 82h1q29 -18 61 -18q61 0 61 76v35l-420 645v-628h-82z" />
    <glyph glyph-name="eng" unicode="&#x14b;" horiz-adv-x="529" 
d="M297 -127h1q14 -14 37 -14q42 0 42 66v418q0 94 -87 94q-130 0 -130 -144v-293h-80v498h80l-2 -73q20 37 57.5 61t89.5 24q66 0 109 -43t43 -129v-426q0 -55 -25 -88q-26 -34 -82 -34q-31 0 -59 15z" />
    <glyph glyph-name="Omacron" unicode="&#x14c;" horiz-adv-x="812" 
d="M409 -9q-151 0 -251 110t-100 275q0 168 97 278t252 110q154 0 250.5 -111t96.5 -275q0 -167 -95 -277t-250 -110zM409 65q122 0 189 84.5t67 229.5q0 134 -71 223.5t-187 89.5q-118 0 -189 -87.5t-71 -227.5q0 -142 73 -227t189 -85zM295 822v64h222v-64h-222z" />
    <glyph glyph-name="omacron" unicode="&#x14d;" horiz-adv-x="549" 
d="M274 -10q-105 0 -167.5 74t-62.5 187q0 112 61.5 185.5t169.5 73.5t169 -73.5t61 -187.5q0 -113 -61 -186t-170 -73zM275 58q76 0 112 52t36 138q0 85 -36.5 138.5t-111.5 53.5t-112 -51.5t-37 -135.5q0 -87 37 -141t112 -54zM163 614v64h222v-64h-222z" />
    <glyph glyph-name="Obreve" unicode="&#x14e;" horiz-adv-x="812" 
d="M409 -9q-151 0 -251 110t-100 275q0 168 97 278t252 110q154 0 250.5 -111t96.5 -275q0 -167 -95 -277t-250 -110zM409 65q122 0 189 84.5t67 229.5q0 134 -71 223.5t-187 89.5q-118 0 -189 -87.5t-71 -227.5q0 -142 73 -227t189 -85zM403 808q-52 0 -86.5 34.5
t-37.5 88.5h57q6 -35 21.5 -51t48.5 -16q32 0 48 16.5t22 50.5h55q-3 -53 -39.5 -88t-88.5 -35z" />
    <glyph glyph-name="obreve" unicode="&#x14f;" horiz-adv-x="549" 
d="M274 -10q-105 0 -167.5 74t-62.5 187q0 112 61.5 185.5t169.5 73.5t169 -73.5t61 -187.5q0 -113 -61 -186t-170 -73zM275 58q76 0 112 52t36 138q0 85 -36.5 138.5t-111.5 53.5t-112 -51.5t-37 -135.5q0 -87 37 -141t112 -54zM271 594q-52 0 -86.5 34.5t-37.5 88.5h57
q6 -35 21.5 -51t48.5 -16q32 0 48 16.5t22 50.5h55q-3 -53 -39.5 -88t-88.5 -35z" />
    <glyph glyph-name="Ohungarumlaut" unicode="&#x150;" horiz-adv-x="812" 
d="M409 -9q-151 0 -251 110t-100 275q0 168 97 278t252 110q154 0 250.5 -111t96.5 -275q0 -167 -95 -277t-250 -110zM409 65q122 0 189 84.5t67 229.5q0 134 -71 223.5t-187 89.5q-118 0 -189 -87.5t-71 -227.5q0 -142 73 -227t189 -85zM448 807l54 146h89l-97 -146h-46z
M314 807l54 146h89l-97 -146h-46z" />
    <glyph glyph-name="ohungarumlaut" unicode="&#x151;" horiz-adv-x="549" 
d="M274 -10q-105 0 -167.5 74t-62.5 187q0 112 61.5 185.5t169.5 73.5t169 -73.5t61 -187.5q0 -113 -61 -186t-170 -73zM275 58q76 0 112 52t36 138q0 85 -36.5 138.5t-111.5 53.5t-112 -51.5t-37 -135.5q0 -87 37 -141t112 -54zM315 591l54 146h89l-97 -146h-46zM181 591
l54 146h89l-97 -146h-46z" />
    <glyph glyph-name="OE" unicode="&#x152;" horiz-adv-x="1177" 
d="M398 -9q-147 0 -243.5 110t-96.5 275q0 164 96.5 276t245.5 112q165 0 257 -126v115h469v-73h-384v-265h317v-71h-317v-271h403v-73h-488v118q-95 -127 -259 -127zM398 65q125 0 193.5 84.5t68.5 229.5q0 135 -70 224t-190 89q-114 0 -183.5 -87.5t-69.5 -227.5
q0 -142 69.5 -227t181.5 -85z" />
    <glyph glyph-name="oe" unicode="&#x153;" horiz-adv-x="904" 
d="M463 100q-56 -110 -189 -110q-106 0 -168 75.5t-62 185.5q0 112 61.5 185.5t169.5 73.5q129 0 187 -109q54 109 179 109q98 0 158.5 -67.5t64.5 -205.5h-364q7 -179 149 -179q59 0 92 30.5t49 91.5l70 -14q-47 -176 -212 -176q-128 0 -185 110zM275 58q76 0 112 52
t36 138q0 85 -36.5 138.5t-111.5 53.5t-112 -51.5t-37 -135.5q0 -87 37 -141t112 -54zM502 298h279q-9 76 -43 109.5t-97 33.5q-122 0 -139 -143z" />
    <glyph glyph-name="Racute" unicode="&#x154;" horiz-adv-x="683" 
d="M83 0v753h308q105 0 170 -51.5t65 -148.5q0 -152 -167 -184q50 -15 79 -51t43 -108q16 -82 38 -143q15 -45 29 -62v-5h-89q-37 57 -60 196q-16 90 -52.5 120.5t-110.5 30.5h-166v-347h-87zM170 416h204q166 0 166 137q0 128 -142 128h-228v-265zM317 807l68 146h105
l-120 -146h-53z" />
    <glyph glyph-name="racute" unicode="&#x155;" horiz-adv-x="372" 
d="M80 0v498h80l-2 -78q39 90 117 90q53 0 83 -28l-33 -69h-2q-22 28 -61 28q-44 0 -73 -42t-29 -126v-273h-80zM170 591l68 146h105l-120 -146h-53z" />
    <glyph glyph-name="Rcommaaccent" unicode="&#x156;" horiz-adv-x="683" 
d="M83 0v753h308q105 0 170 -51.5t65 -148.5q0 -152 -167 -184q50 -15 79 -51t43 -108q16 -82 38 -143q15 -45 29 -62v-5h-89q-37 57 -60 196q-16 90 -52.5 120.5t-110.5 30.5h-166v-347h-87zM170 416h204q166 0 166 137q0 128 -142 128h-228v-265zM308 -270l-1 44
q42 9 43 66h-44v110h90v-104q0 -106 -88 -116z" />
    <glyph glyph-name="rcommaaccent" unicode="&#x157;" horiz-adv-x="372" 
d="M80 0v498h80l-2 -78q39 90 117 90q53 0 83 -28l-33 -69h-2q-22 28 -61 28q-44 0 -73 -42t-29 -126v-273h-80zM79 -270l-1 44q42 9 43 66h-44v110h90v-104q0 -106 -88 -116z" />
    <glyph glyph-name="Rcaron" unicode="&#x158;" horiz-adv-x="683" 
d="M83 0v753h308q105 0 170 -51.5t65 -148.5q0 -152 -167 -184q50 -15 79 -51t43 -108q16 -82 38 -143q15 -45 29 -62v-5h-89q-37 57 -60 196q-16 90 -52.5 120.5t-110.5 30.5h-166v-347h-87zM170 416h204q166 0 166 137q0 128 -142 128h-228v-265zM462 953l-94 -146h-70
l-94 146h51l79 -87l79 87h49z" />
    <glyph glyph-name="rcaron" unicode="&#x159;" horiz-adv-x="372" 
d="M80 0v498h80l-2 -78q39 90 117 90q53 0 83 -28l-33 -69h-2q-22 28 -61 28q-44 0 -73 -42t-29 -126v-273h-80zM341 737l-94 -146h-70l-94 146h51l79 -87l79 87h49z" />
    <glyph glyph-name="Sacute" unicode="&#x15a;" horiz-adv-x="663" 
d="M339 -8q-134 0 -201 56.5t-91 156.5l83 17q10 -37 21 -61t33.5 -48.5t61 -36t93.5 -11.5q82 0 131.5 36.5t49.5 109.5q0 66 -40 92.5t-156 48.5q-68 13 -110.5 27t-79 38t-53 60.5t-16.5 89.5q0 90 65.5 142.5t178.5 52.5q115 0 173 -42.5t89 -134.5l-77 -20
q-25 71 -65 99t-115 28q-168 0 -168 -121q0 -63 37 -88t156 -48q69 -13 113.5 -27.5t81 -39.5t53.5 -63t17 -92q0 -106 -71 -163.5t-194 -57.5zM289 807l68 146h105l-120 -146h-53z" />
    <glyph glyph-name="sacute" unicode="&#x15b;" horiz-adv-x="465" 
d="M246 -10q-183 0 -208 153l74 15q12 -50 38.5 -74.5t89.5 -24.5q48 0 78.5 21.5t30.5 61.5q0 37 -23.5 51t-90.5 30q-5 1 -8 2t-7.5 2t-8.5 2q-79 20 -118.5 50.5t-39.5 90.5q0 67 48 103.5t119 36.5q77 0 118.5 -25t65.5 -82l-67 -31q-14 38 -40 54t-74 16q-94 0 -94 -67
q0 -33 22 -45.5t88 -28.5q9 -2 13 -3q43 -11 68 -19.5t52.5 -25.5t40 -44.5t12.5 -66.5q0 -66 -50 -109t-129 -43zM196 591l68 146h105l-120 -146h-53z" />
    <glyph glyph-name="Scircumflex" unicode="&#x15c;" horiz-adv-x="663" 
d="M339 -8q-134 0 -201 56.5t-91 156.5l83 17q10 -37 21 -61t33.5 -48.5t61 -36t93.5 -11.5q82 0 131.5 36.5t49.5 109.5q0 66 -40 92.5t-156 48.5q-68 13 -110.5 27t-79 38t-53 60.5t-16.5 89.5q0 90 65.5 142.5t178.5 52.5q115 0 173 -42.5t89 -134.5l-77 -20
q-25 71 -65 99t-115 28q-168 0 -168 -121q0 -63 37 -88t156 -48q69 -13 113.5 -27.5t81 -39.5t53.5 -63t17 -92q0 -106 -71 -163.5t-194 -57.5zM192 807l94 146h70l94 -146h-51l-79 87l-79 -87h-49z" />
    <glyph glyph-name="scircumflex" unicode="&#x15d;" horiz-adv-x="465" 
d="M246 -10q-183 0 -208 153l74 15q12 -50 38.5 -74.5t89.5 -24.5q48 0 78.5 21.5t30.5 61.5q0 37 -23.5 51t-90.5 30q-5 1 -8 2t-7.5 2t-8.5 2q-79 20 -118.5 50.5t-39.5 90.5q0 67 48 103.5t119 36.5q77 0 118.5 -25t65.5 -82l-67 -31q-14 38 -40 54t-74 16q-94 0 -94 -67
q0 -33 22 -45.5t88 -28.5q9 -2 13 -3q43 -11 68 -19.5t52.5 -25.5t40 -44.5t12.5 -66.5q0 -66 -50 -109t-129 -43zM103 591l94 146h70l94 -146h-51l-79 87l-79 -87h-49z" />
    <glyph glyph-name="Scedilla" unicode="&#x15e;" horiz-adv-x="663" 
d="M346 -209q-75 0 -102 56l48 19q14 -30 52 -30q47 0 47 38t-37 38q-26 0 -34 -18h-42v102q-103 13 -156.5 67t-74.5 142l83 17q10 -37 21 -61t33.5 -48.5t61 -36t93.5 -11.5q82 0 131.5 36.5t49.5 109.5q0 66 -40 92.5t-156 48.5q-68 13 -110.5 27t-79 38t-53 60.5
t-16.5 89.5q0 90 65.5 142.5t178.5 52.5q115 0 173 -42.5t89 -134.5l-77 -20q-25 71 -65 99t-115 28q-168 0 -168 -121q0 -63 37 -88t156 -48q69 -13 113.5 -27.5t81 -39.5t53.5 -63t17 -92q0 -106 -71 -163.5t-194 -57.5h-13v-51q15 13 39 13q35 0 58.5 -22.5t23.5 -61.5
q0 -37 -29 -58t-72 -21z" />
    <glyph glyph-name="scedilla" unicode="&#x15f;" horiz-adv-x="465" 
d="M256 -209q-75 0 -102 56l48 19q14 -30 52 -30q47 0 47 38t-37 38q-26 0 -34 -18h-42v101q-130 21 -150 148l74 15q12 -50 38.5 -74.5t89.5 -24.5q48 0 78.5 21.5t30.5 61.5q0 37 -23.5 51t-90.5 30q-5 1 -8 2t-7.5 2t-8.5 2q-79 20 -118.5 50.5t-39.5 90.5q0 67 48 103.5
t119 36.5q77 0 118.5 -25t65.5 -82l-67 -31q-14 38 -40 54t-74 16q-94 0 -94 -67q0 -33 22 -45.5t88 -28.5q9 -2 13 -3q43 -11 68 -19.5t52.5 -25.5t40 -44.5t12.5 -66.5q0 -66 -50 -109t-129 -43h-10v-49q15 13 39 13q35 0 58.5 -22.5t23.5 -61.5q0 -37 -29 -58t-72 -21z
" />
    <glyph glyph-name="Scaron" unicode="&#x160;" horiz-adv-x="663" 
d="M339 -8q-134 0 -201 56.5t-91 156.5l83 17q10 -37 21 -61t33.5 -48.5t61 -36t93.5 -11.5q82 0 131.5 36.5t49.5 109.5q0 66 -40 92.5t-156 48.5q-68 13 -110.5 27t-79 38t-53 60.5t-16.5 89.5q0 90 65.5 142.5t178.5 52.5q115 0 173 -42.5t89 -134.5l-77 -20
q-25 71 -65 99t-115 28q-168 0 -168 -121q0 -63 37 -88t156 -48q69 -13 113.5 -27.5t81 -39.5t53.5 -63t17 -92q0 -106 -71 -163.5t-194 -57.5zM449 953l-94 -146h-70l-94 146h51l79 -87l79 87h49z" />
    <glyph glyph-name="scaron" unicode="&#x161;" horiz-adv-x="465" 
d="M246 -10q-183 0 -208 153l74 15q12 -50 38.5 -74.5t89.5 -24.5q48 0 78.5 21.5t30.5 61.5q0 37 -23.5 51t-90.5 30q-5 1 -8 2t-7.5 2t-8.5 2q-79 20 -118.5 50.5t-39.5 90.5q0 67 48 103.5t119 36.5q77 0 118.5 -25t65.5 -82l-67 -31q-14 38 -40 54t-74 16q-94 0 -94 -67
q0 -33 22 -45.5t88 -28.5q9 -2 13 -3q43 -11 68 -19.5t52.5 -25.5t40 -44.5t12.5 -66.5q0 -66 -50 -109t-129 -43zM360 737l-94 -146h-70l-94 146h51l79 -87l79 87h49z" />
    <glyph glyph-name="Tcommaaccent" unicode="&#x162;" horiz-adv-x="617" 
d="M265 0v680h-239v73h565v-73h-239v-680h-20v-59q15 13 39 13q35 0 58.5 -22.5t23.5 -61.5q0 -37 -29 -58t-72 -21q-75 0 -102 56l48 19q14 -30 52 -30q47 0 47 38t-37 38q-26 0 -34 -18h-42v106h-19z" />
    <glyph glyph-name="tcommaaccent" unicode="&#x163;" horiz-adv-x="307" 
d="M217 -209q-75 0 -102 56l48 19q14 -30 52 -30q47 0 47 38t-37 38q-26 0 -34 -18h-42v104q-14 6 -23 16q-24 24 -24 91v328h-80v65h80v139q46 39 76 84h3v-223h90v-65h-90v-324q0 -29 10 -39t34 -10q28 0 49 16h2l-12 -70q-30 -15 -67 -16v-49q15 13 39 13
q35 0 58.5 -22.5t23.5 -61.5q0 -37 -29 -58t-72 -21z" />
    <glyph glyph-name="Tcaron" unicode="&#x164;" horiz-adv-x="617" 
d="M265 0v680h-239v73h565v-73h-239v-680h-87zM437 953l-94 -146h-70l-94 146h51l79 -87l79 87h49z" />
    <glyph glyph-name="tcaron" unicode="&#x165;" horiz-adv-x="386" 
d="M102 433h-80v65h80v139q46 39 76 84h3v-223h90v-65h-90v-324q0 -29 10 -39t34 -10q28 0 49 16h2l-12 -70q-32 -16 -70 -16q-47 0 -68 24q-24 24 -24 91v328zM315 515l-2 48q51 8 52 76h-52v114h105v-106q0 -61 -28 -93.5t-75 -38.5z" />
    <glyph glyph-name="Tbar" unicode="&#x166;" horiz-adv-x="617" 
d="M141 342v73h124v265h-239v73h565v-73h-239v-265h123v-73h-123v-342h-87v342h-124z" />
    <glyph glyph-name="tbar" unicode="&#x167;" horiz-adv-x="307" 
d="M102 433h-80v65h80v139q46 39 76 84h3v-223h90v-65h-90v-135h90v-65h-90v-124q0 -29 10 -39t34 -10q28 0 49 16h2l-12 -70q-32 -16 -70 -16q-47 0 -68 24q-24 24 -24 91v128h-80v65h80v135z" />
    <glyph glyph-name="Utilde" unicode="&#x168;" horiz-adv-x="706" 
d="M348 -9q-130 0 -199 72.5t-69 209.5v480h87v-470q0 -117 44 -167.5t140 -50.5q97 0 145 50.5t48 181.5v456h82v-469q0 -140 -69.5 -216.5t-208.5 -76.5zM410 816q-31 0 -64.5 21t-44.5 21q-28 0 -35 -46l-50 8q14 99 89 99q30 0 61.5 -21t47.5 -21q27 0 32 42l50 -7
q-5 -43 -27 -69.5t-59 -26.5z" />
    <glyph glyph-name="utilde" unicode="&#x169;" horiz-adv-x="529" 
d="M224 -12q-66 0 -109 43t-43 129v338h80v-343q0 -97 87 -97q58 0 94 36t36 111v293h80v-498h-80l2 73q-20 -37 -57.5 -61t-89.5 -24zM317 600q-31 0 -64.5 21t-44.5 21q-28 0 -35 -46l-50 8q7 49 30 74t59 25q30 0 61.5 -21t47.5 -21q27 0 32 42l50 -7q-5 -43 -27 -69.5
t-59 -26.5z" />
    <glyph glyph-name="Umacron" unicode="&#x16a;" horiz-adv-x="706" 
d="M348 -9q-130 0 -199 72.5t-69 209.5v480h87v-470q0 -117 44 -167.5t140 -50.5q97 0 145 50.5t48 181.5v456h82v-469q0 -140 -69.5 -216.5t-208.5 -76.5zM242 822v64h222v-64h-222z" />
    <glyph glyph-name="umacron" unicode="&#x16b;" horiz-adv-x="529" 
d="M224 -12q-66 0 -109 43t-43 129v338h80v-343q0 -97 87 -97q58 0 94 36t36 111v293h80v-498h-80l2 73q-20 -37 -57.5 -61t-89.5 -24zM153 614v64h222v-64h-222z" />
    <glyph glyph-name="Ubreve" unicode="&#x16c;" horiz-adv-x="706" 
d="M348 -9q-130 0 -199 72.5t-69 209.5v480h87v-470q0 -117 44 -167.5t140 -50.5q97 0 145 50.5t48 181.5v456h82v-469q0 -140 -69.5 -216.5t-208.5 -76.5zM346 808q-52 0 -86.5 34.5t-37.5 88.5h57q6 -35 21.5 -51t48.5 -16q32 0 48 16.5t22 50.5h55q-3 -53 -39.5 -88
t-88.5 -35z" />
    <glyph glyph-name="ubreve" unicode="&#x16d;" horiz-adv-x="529" 
d="M224 -12q-66 0 -109 43t-43 129v338h80v-343q0 -97 87 -97q58 0 94 36t36 111v293h80v-498h-80l2 73q-20 -37 -57.5 -61t-89.5 -24zM263 594q-52 0 -86.5 34.5t-37.5 88.5h57q6 -35 21.5 -51t48.5 -16q32 0 48 16.5t22 50.5h55q-3 -53 -39.5 -88t-88.5 -35z" />
    <glyph glyph-name="Uring" unicode="&#x16e;" horiz-adv-x="706" 
d="M348 -9q-130 0 -199 72.5t-69 209.5v480h87v-470q0 -117 44 -167.5t140 -50.5q97 0 145 50.5t48 181.5v456h82v-469q0 -140 -69.5 -216.5t-208.5 -76.5zM351 757q-46 0 -72.5 30t-26.5 74t26.5 74t72.5 30q43 0 71 -29.5t28 -74.5t-26.5 -74.5t-72.5 -29.5zM351 798
q53 0 53 63t-53 63q-52 0 -52 -61q0 -65 52 -65z" />
    <glyph glyph-name="uring" unicode="&#x16f;" horiz-adv-x="529" 
d="M224 -12q-66 0 -109 43t-43 129v338h80v-343q0 -97 87 -97q58 0 94 36t36 111v293h80v-498h-80l2 73q-20 -37 -57.5 -61t-89.5 -24zM262 571q-46 0 -72.5 30t-26.5 74t26.5 74t72.5 30q44 0 71.5 -28.5t27.5 -75.5q0 -44 -26.5 -74t-72.5 -30zM262 612q53 0 53 63t-53 63
q-52 0 -52 -61q0 -65 52 -65z" />
    <glyph glyph-name="Uhungarumlaut" unicode="&#x170;" horiz-adv-x="706" 
d="M348 -9q-130 0 -199 72.5t-69 209.5v480h87v-470q0 -117 44 -167.5t140 -50.5q97 0 145 50.5t48 181.5v456h82v-469q0 -140 -69.5 -216.5t-208.5 -76.5zM394 807l54 146h89l-97 -146h-46zM260 807l54 146h89l-97 -146h-46z" />
    <glyph glyph-name="uhungarumlaut" unicode="&#x171;" horiz-adv-x="529" 
d="M224 -12q-66 0 -109 43t-43 129v338h80v-343q0 -97 87 -97q58 0 94 36t36 111v293h80v-498h-80l2 73q-20 -37 -57.5 -61t-89.5 -24zM303 591l54 146h89l-97 -146h-46zM169 591l54 146h89l-97 -146h-46z" />
    <glyph glyph-name="Uogonek" unicode="&#x172;" horiz-adv-x="706" 
d="M348 -9q-130 0 -199 72.5t-69 209.5v480h87v-470q0 -117 44 -167.5t140 -50.5q97 0 145 50.5t48 181.5v456h82v-469q0 -193 -130 -262q-11 -6 -25.5 -13t-21.5 -11t-17.5 -11t-20.5 -16q-44 -39 -44 -78q0 -36 42 -36q30 0 55 17l-10 -63q-21 -12 -58 -12q-49 0 -76 23
t-27 62q0 61 68 107h-13z" />
    <glyph glyph-name="uogonek" unicode="&#x173;" horiz-adv-x="529" 
d="M466 -126l-10 -63q-21 -12 -58 -12q-49 0 -76 23t-27 62q0 63 74 111l2 78q-20 -37 -57.5 -61t-89.5 -24q-66 0 -109 43t-43 129v338h80v-343q0 -97 87 -97q58 0 94 36t36 111v293h80v-498q-43 -32 -61.5 -54.5t-18.5 -52.5q0 -36 42 -36q30 0 55 17z" />
    <glyph glyph-name="Wcircumflex" unicode="&#x174;" horiz-adv-x="962" 
d="M239 0l-226 753h91l174 -600l172 600h69l173 -602l174 602h83l-221 -753h-71l-174 604l-173 -604h-71zM354 807l94 146h70l94 -146h-51l-79 87l-79 -87h-49z" />
    <glyph glyph-name="wcircumflex" unicode="&#x175;" horiz-adv-x="746" 
d="M181 0l-160 498h86l114 -380l126 380h63l118 -380l117 380h80l-162 -498h-70l-117 374l-124 -374h-71zM247 591l94 146h70l94 -146h-51l-79 87l-79 -87h-49z" />
    <glyph glyph-name="Ycircumflex" unicode="&#x176;" horiz-adv-x="624" 
d="M275 328l-265 425h100l211 -350l204 350h89l-252 -426v-327h-87v328zM192 807l94 146h70l94 -146h-51l-79 87l-79 -87h-49z" />
    <glyph glyph-name="ycircumflex" unicode="&#x177;" horiz-adv-x="480" 
d="M207 -1l-186 499h86l140 -389l133 389h79l-216 -606q-17 -50 -40 -75q-31 -34 -83 -34q-42 0 -68 19l7 68h2q21 -21 54 -21q45 0 69 76zM108 591l94 146h70l94 -146h-51l-79 87l-79 -87h-49z" />
    <glyph glyph-name="Ydieresis" unicode="&#x178;" horiz-adv-x="624" 
d="M275 328l-265 425h100l211 -350l204 350h89l-252 -426v-327h-87v328zM197 807v97h84v-97h-84zM349 807v97h84v-97h-84z" />
    <glyph glyph-name="Zacute" unicode="&#x179;" horiz-adv-x="620" 
d="M43 0v81l443 599h-421v73h508v-90l-433 -587h428v-76h-525zM293 807l68 146h105l-120 -146h-53z" />
    <glyph glyph-name="zacute" unicode="&#x17a;" horiz-adv-x="467" 
d="M33 0v67l311 364h-282v67h365v-82l-297 -347h303v-69h-400zM207 591l68 146h105l-120 -146h-53z" />
    <glyph glyph-name="Zdotaccent" unicode="&#x17b;" horiz-adv-x="620" 
d="M43 0v81l443 599h-421v73h508v-90l-433 -587h428v-76h-525zM279 827v97h84v-97h-84z" />
    <glyph glyph-name="zdotaccent" unicode="&#x17c;" horiz-adv-x="467" 
d="M33 0v67l311 364h-282v67h365v-82l-297 -347h303v-69h-400zM199 638v95h85v-95h-85z" />
    <glyph glyph-name="Zcaron" unicode="&#x17d;" horiz-adv-x="620" 
d="M43 0v81l443 599h-421v73h508v-90l-433 -587h428v-76h-525zM448 953l-94 -146h-70l-94 146h51l79 -87l79 87h49z" />
    <glyph glyph-name="zcaron" unicode="&#x17e;" horiz-adv-x="467" 
d="M33 0v67l311 364h-282v67h365v-82l-297 -347h303v-69h-400zM374 737l-94 -146h-70l-94 146h51l79 -87l79 87h49z" />
    <glyph glyph-name="longs" unicode="&#x17f;" horiz-adv-x="305" 
d="M102 0v628q0 76 45 110q30 23 77 23q39 0 72 -20l-12 -72h-3q-18 18 -51 18q-48 0 -48 -54v-633h-80z" />
    <glyph glyph-name="uni018F" unicode="&#x18f;" horiz-adv-x="775" 
d="M58 380v16h569q-7 133 -66 214.5t-173 81.5q-95 0 -157.5 -52.5t-87.5 -149.5l-79 26q30 111 112.5 179.5t213.5 68.5q154 0 240.5 -109t86.5 -281q0 -170 -87.5 -276.5t-242.5 -106.5t-242 105.5t-87 283.5zM387 65q102 0 165 70t73 190h-475q9 -125 71 -192.5
t166 -67.5z" />
    <glyph glyph-name="florin" unicode="&#x192;" horiz-adv-x="383" 
d="M222 428h124v-66h-132l-52 -432q-9 -72 -38 -103t-86 -31q-42 0 -72 20l15 70h3q22 -18 47 -18q46 0 53 56l53 438h-100v66h108l24 200q9 72 39 102.5t87 30.5q58 0 82 -26l-16 -70h-3q-21 23 -58 23q-24 0 -36.5 -12t-16.5 -43z" />
    <glyph glyph-name="uni01B5" unicode="&#x1b5;" horiz-adv-x="620" 
d="M111 347v73h182l193 260h-421v73h508v-90l-179 -243h125v-73h-179l-200 -271h428v-76h-525v81l196 266h-128z" />
    <glyph glyph-name="uni01B6" unicode="&#x1b6;" horiz-adv-x="467" 
d="M84 229v61h139l121 141h-282v67h365v-82l-108 -126h88v-61h-140l-137 -160h303v-69h-400v67l138 162h-87z" />
    <glyph glyph-name="Aringacute" unicode="&#x1fa;" horiz-adv-x="633" 
d="M178 227l-78 -227h-85l257 724q-55 27 -55 95q0 44 26.5 74t72.5 30q45 0 72 -28.5t27 -75.5q0 -68 -52 -94l255 -725h-90l-78 227h-272zM425 300l-111 325l-111 -325h222zM316 756q53 0 53 63t-53 63q-52 0 -52 -61q0 -65 52 -65zM286 943l68 146h105l-120 -146h-53z
" />
    <glyph glyph-name="aringacute" unicode="&#x1fb;" horiz-adv-x="517" 
d="M352 295v44q0 101 -97 101q-49 0 -78 -20.5t-52 -67.5l-66 35q54 123 200 123q71 0 122 -42.5t51 -134.5v-227q0 -26 7 -36.5t26 -10.5q21 0 42 12h2l-8 -66q-28 -14 -53 -14q-75 0 -92 75q-61 -77 -158 -77q-71 0 -115 34t-44 101q0 40 18 70t45.5 48t70.5 30t84.5 16.5
t94.5 6.5zM352 237q-53 -2 -90 -7t-72 -16.5t-53 -33.5t-18 -54q0 -72 92 -72q60 0 100.5 30.5t40.5 79.5v73zM255 571q-46 0 -72.5 30t-26.5 74t26.5 74t72.5 30q44 0 71.5 -28.5t27.5 -75.5q0 -44 -26.5 -74t-72.5 -30zM255 612q53 0 53 63t-53 63q-52 0 -52 -61
q0 -65 52 -65zM221 819l68 146h105l-120 -146h-53z" />
    <glyph glyph-name="AEacute" unicode="&#x1fc;" horiz-adv-x="995" 
d="M209 207l-123 -207h-86l455 753h489v-73h-374v-265h307v-71h-307v-271h393v-73h-480v207h-274zM483 280v390l-231 -390h231zM647 807l68 146h105l-120 -146h-53z" />
    <glyph glyph-name="aeacute" unicode="&#x1fd;" horiz-adv-x="820" 
d="M198 -11q-71 0 -115 34t-44 101q0 40 18 70t45.5 48t70.5 30t84.5 16.5t94.5 6.5v44q0 101 -97 101q-49 0 -78 -20.5t-52 -67.5l-66 35q54 123 200 123q106 0 140 -87q57 87 163 87q97 0 155.5 -67t62.5 -206h-354q7 -179 144 -179q58 0 88.5 30t47.5 92l70 -14
q-22 -82 -70 -129t-137 -47q-120 0 -179 106q-62 -107 -192 -107zM211 54q60 0 100.5 30.5t40.5 79.5v73q-53 -2 -90 -7t-72 -16.5t-53 -33.5t-18 -54q0 -72 92 -72zM428 298h269q-9 77 -40.5 110t-94.5 33q-118 0 -134 -143zM373 591l68 146h105l-120 -146h-53z" />
    <glyph glyph-name="Oslashacute" unicode="&#x1fe;" horiz-adv-x="812" 
d="M681 623q73 -103 73 -245q0 -166 -98 -276.5t-251 -110.5q-134 0 -227 87l-73 -78h-94l121 130q-74 104 -74 246q0 165 97.5 276.5t251.5 111.5q135 0 229 -89l72 78h93zM186 189l398 430q-70 75 -177 75q-120 0 -192 -87.5t-72 -229.5q0 -108 43 -188zM625 563
l-397 -430q70 -70 177 -70q123 0 193.5 85t70.5 231q0 107 -44 184zM370 807l68 146h105l-120 -146h-53z" />
    <glyph glyph-name="oslashacute" unicode="&#x1ff;" horiz-adv-x="549" 
d="M463 411q42 -67 42 -156q0 -117 -60.5 -191t-170.5 -74q-87 0 -146 51l-37 -41h-83l80 88q-44 69 -44 163q0 112 61.5 185.5t169.5 73.5q88 0 148 -52l35 39h83zM140 146l235 259q-38 38 -100 38q-77 0 -114.5 -52t-37.5 -138q0 -59 17 -107zM409 351l-234 -258
q38 -38 100 -38q78 0 114.5 52.5t36.5 140.5q0 60 -17 103zM246 591l68 146h105l-120 -146h-53z" />
    <glyph glyph-name="Scommaaccent" unicode="&#x218;" horiz-adv-x="663" 
d="M339 -8q-134 0 -201 56.5t-91 156.5l83 17q10 -37 21 -61t33.5 -48.5t61 -36t93.5 -11.5q82 0 131.5 36.5t49.5 109.5q0 66 -40 92.5t-156 48.5q-68 13 -110.5 27t-79 38t-53 60.5t-16.5 89.5q0 90 65.5 142.5t178.5 52.5q115 0 173 -42.5t89 -134.5l-77 -20
q-25 71 -65 99t-115 28q-168 0 -168 -121q0 -63 37 -88t156 -48q69 -13 113.5 -27.5t81 -39.5t53.5 -63t17 -92q0 -106 -71 -163.5t-194 -57.5zM296 -270l-1 44q42 9 43 66h-44v110h90v-104q0 -106 -88 -116z" />
    <glyph glyph-name="scommaaccent" unicode="&#x219;" horiz-adv-x="465" 
d="M246 -10q-183 0 -208 153l74 15q12 -50 38.5 -74.5t89.5 -24.5q48 0 78.5 21.5t30.5 61.5q0 37 -23.5 51t-90.5 30q-5 1 -8 2t-7.5 2t-8.5 2q-79 20 -118.5 50.5t-39.5 90.5q0 67 48 103.5t119 36.5q77 0 118.5 -25t65.5 -82l-67 -31q-14 38 -40 54t-74 16q-94 0 -94 -67
q0 -33 22 -45.5t88 -28.5q9 -2 13 -3q43 -11 68 -19.5t52.5 -25.5t40 -44.5t12.5 -66.5q0 -66 -50 -109t-129 -43zM199 -270l-1 44q42 9 43 66h-44v110h90v-104q0 -106 -88 -116z" />
    <glyph glyph-name="uni021A" unicode="&#x21a;" horiz-adv-x="617" 
d="M265 0v680h-239v73h565v-73h-239v-680h-87zM264 -270l-1 44q42 9 43 66h-44v110h90v-104q0 -106 -88 -116z" />
    <glyph glyph-name="uni021B" unicode="&#x21b;" horiz-adv-x="307" 
d="M102 433h-80v65h80v139q46 39 76 84h3v-223h90v-65h-90v-324q0 -29 10 -39t34 -10q28 0 49 16h2l-12 -70q-32 -16 -70 -16q-47 0 -68 24q-24 24 -24 91v328zM130 -270l-1 44q42 9 43 66h-44v110h90v-104q0 -106 -88 -116z" />
    <glyph glyph-name="uni0237" unicode="&#x237;" horiz-adv-x="247" 
d="M3 -127h1q14 -14 37 -14q42 0 42 66v573h81v-586q0 -55 -25 -88q-26 -34 -83 -34q-31 0 -59 15z" />
    <glyph glyph-name="uni0259" unicode="&#x259;" horiz-adv-x="528" 
d="M404 263q-7 179 -144 179q-113 0 -146 -122l-70 14q47 176 217 176q104 0 163.5 -73t59.5 -185q0 -116 -59 -189t-162 -73q-100 0 -159.5 67t-63.5 206h364zM402 202h-279q9 -76 43 -109.5t97 -33.5q122 0 139 143z" />
    <glyph glyph-name="uni02BB" unicode="&#x2bb;" horiz-adv-x="229" 
d="M62 505v126q0 61 28 93.5t75 38.5l2 -48q-51 -8 -52 -76h52v-134h-105z" />
    <glyph glyph-name="afii57929" unicode="&#x2bc;" horiz-adv-x="229" 
d="M64 495l-2 48q51 8 52 76h-52v134h105v-126q0 -61 -28 -93.5t-75 -38.5z" />
    <glyph glyph-name="circumflex" unicode="&#x2c6;" horiz-adv-x="500" 
d="M121 581l94 146h70l94 -146h-51l-79 87l-79 -87h-49z" />
    <glyph glyph-name="caron" unicode="&#x2c7;" horiz-adv-x="500" 
d="M379 727l-94 -146h-70l-94 146h51l79 -87l79 87h49z" />
    <glyph glyph-name="breve" unicode="&#x2d8;" horiz-adv-x="500" 
d="M248 582q-52 0 -86.5 34.5t-37.5 88.5h57q6 -35 21.5 -51t48.5 -16q32 0 48 16.5t22 50.5h55q-3 -53 -39.5 -88t-88.5 -35z" />
    <glyph glyph-name="dotaccent" unicode="&#x2d9;" horiz-adv-x="500" 
d="M208 581v97h84v-97h-84z" />
    <glyph glyph-name="ring" unicode="&#x2da;" horiz-adv-x="549" 
d="M272 531q-46 0 -72.5 30t-26.5 74t26.5 74t72.5 30q45 0 72 -29t27 -75q0 -45 -26.5 -74.5t-72.5 -29.5zM272 572q53 0 53 63t-53 63q-52 0 -52 -61q0 -65 52 -65z" />
    <glyph glyph-name="ogonek" unicode="&#x2db;" horiz-adv-x="495" 
d="M315 -126l-10 -63q-21 -12 -58 -12q-49 0 -76 23t-27 62q0 66 82 116h72q-43 -32 -61.5 -54.5t-18.5 -52.5q0 -36 42 -36q30 0 55 17z" />
    <glyph glyph-name="tilde" unicode="&#x2dc;" horiz-adv-x="500" 
d="M303 582q-31 0 -64.5 25t-44.5 25q-28 0 -35 -46l-50 8q7 49 30 74t59 25q30 0 61.5 -25t47.5 -25q27 0 32 42l50 -7q-5 -43 -27 -69.5t-59 -26.5z" />
    <glyph glyph-name="hungarumlaut" unicode="&#x2dd;" horiz-adv-x="500" 
d="M281 581l54 146h89l-97 -146h-46zM147 581l54 146h89l-97 -146h-46z" />
    <glyph glyph-name="gravecomb" unicode="&#x300;" 
d="M-290 591l-120 146h105l68 -146h-53z" />
    <glyph glyph-name="acutecomb" unicode="&#x301;" 
d="M-302 591l68 146h105l-120 -146h-53z" />
    <glyph glyph-name="uni0302" unicode="&#x302;" 
d="M-403 591l94 146h70l94 -146h-51l-79 87l-79 -87h-49z" />
    <glyph glyph-name="tildecomb" unicode="&#x303;" 
d="M-221 582q-31 0 -64.5 25t-44.5 25q-28 0 -35 -46l-50 8q7 49 30 74t59 25q30 0 61.5 -25t47.5 -25q27 0 32 42l50 -7q-5 -43 -27 -69.5t-59 -26.5z" />
    <glyph glyph-name="uni0304" unicode="&#x304;" 
d="M-360 673v64h222v-64h-222z" />
    <glyph glyph-name="uni0306" unicode="&#x306;" 
d="M-251 591q-52 0 -86.5 34.5t-37.5 88.5h57q6 -35 21.5 -51t48.5 -16q32 0 48 16.5t22 50.5h55q-3 -53 -39.5 -88t-88.5 -35z" />
    <glyph glyph-name="uni0307" unicode="&#x307;" 
d="M-165 658v95h85v-95h-85z" />
    <glyph glyph-name="uni0308" unicode="&#x308;" 
d="M-367 620v93h84v-93h-84zM-215 620v93h84v-93h-84z" />
    <glyph glyph-name="uni030A" unicode="&#x30a;" 
d="M-276 571q-46 0 -72.5 30t-26.5 74t26.5 74t72.5 30q45 0 72 -29t27 -75q0 -45 -26.5 -74.5t-72.5 -29.5zM-276 612q53 0 53 63t-53 63q-52 0 -52 -61q0 -65 52 -65z" />
    <glyph glyph-name="uni030B" unicode="&#x30b;" 
d="M-218 591l54 146h89l-97 -146h-46zM-352 591l54 146h89l-97 -146h-46z" />
    <glyph glyph-name="uni030C" unicode="&#x30c;" 
d="M-92 737l-94 -146h-70l-94 146h51l79 -87l79 87h49z" />
    <glyph glyph-name="uni0312" unicode="&#x312;" 
d="M-86 933l1 -54q-53 -11 -54 -83h55v-138h-112v130q0 131 110 145z" />
    <glyph glyph-name="uni0313" unicode="&#x313;" 
d="M-194 478l-1 54q53 11 54 83h-55v138h112v-130q0 -131 -110 -145z" />
    <glyph glyph-name="uni0326" unicode="&#x326;" 
d="M-164 -240l-2 48q51 8 52 76h-52v134h105v-126q0 -61 -28 -93.5t-75 -38.5z" />
    <glyph glyph-name="uni0327" unicode="&#x327;" 
d="M-216 -209q-75 0 -102 56l48 19q14 -30 52 -30q47 0 47 38t-37 38q-26 0 -34 -18h-42v106h48v-59q15 13 39 13q35 0 58.5 -22.5t23.5 -61.5q0 -37 -29 -58t-72 -21z" />
    <glyph glyph-name="uni0328" unicode="&#x328;" 
d="M-179 -134l-10 -63q-21 -12 -58 -12q-49 0 -76 23t-27 62q0 66 82 116h72q-43 -32 -61.5 -54.5t-18.5 -52.5q0 -36 42 -36q30 0 55 17z" />
    <glyph glyph-name="uni0335" unicode="&#x335;" 
d="M-360 217v64h222v-64h-222z" />
    <glyph glyph-name="uni0336" unicode="&#x336;" 
d="M-845 213v73h786v-73h-786z" />
    <glyph glyph-name="uni0394" unicode="&#x394;" horiz-adv-x="633" 
d="M15 0l268 754h70l265 -754h-603zM124 71h380l-190 554z" />
    <glyph glyph-name="uni03A9" unicode="&#x3a9;" horiz-adv-x="848" 
d="M27 0v82h262v9q-112 31 -171.5 117t-59.5 205q0 150 107 250t265 100q151 0 252.5 -98t101.5 -250q0 -115 -60 -201.5t-172 -123.5v-8h269v-82h-354v144q227 49 227 273q0 122 -75.5 195t-193.5 73q-121 0 -199 -75t-78 -197q0 -110 56.5 -179t169.5 -90v-144h-347z" />
    <glyph glyph-name="uni03BC" unicode="&#x3bc;" horiz-adv-x="537" 
d="M80 -197v695h80v-343q0 -97 87 -97q58 0 94 36t36 111v293h80v-498h-80l2 73q-20 -37 -55.5 -61t-83.5 -24q-52 0 -80 31v-216h-80z" />
    <glyph glyph-name="pi" unicode="&#x3c0;" horiz-adv-x="615" 
d="M390 432h-164v-432h-80v432h-112v65h547v-65h-111v-323q0 -29 10 -39t33 -10q27 0 49 18h2l-9 -74q-33 -14 -73 -14q-44 0 -67 26q-25 25 -25 89v327z" />
    <glyph glyph-name="Wgrave" unicode="&#x1e80;" horiz-adv-x="962" 
d="M239 0l-226 753h91l174 -600l172 600h69l173 -602l174 602h83l-221 -753h-71l-174 604l-173 -604h-71zM453 807l-120 146h105l68 -146h-53z" />
    <glyph glyph-name="wgrave" unicode="&#x1e81;" horiz-adv-x="746" 
d="M181 0l-160 498h86l114 -380l126 380h63l118 -380l117 380h80l-162 -498h-70l-117 374l-124 -374h-71zM355 555l-120 146h105l68 -146h-53z" />
    <glyph glyph-name="Wacute" unicode="&#x1e82;" horiz-adv-x="962" 
d="M239 0l-226 753h91l174 -600l172 600h69l173 -602l174 602h83l-221 -753h-71l-174 604l-173 -604h-71zM463 807l68 146h105l-120 -146h-53z" />
    <glyph glyph-name="wacute" unicode="&#x1e83;" horiz-adv-x="746" 
d="M181 0l-160 498h86l114 -380l126 380h63l118 -380l117 380h80l-162 -498h-70l-117 374l-124 -374h-71zM349 542l68 146h105l-120 -146h-53z" />
    <glyph glyph-name="Wdieresis" unicode="&#x1e84;" horiz-adv-x="962" 
d="M239 0l-226 753h91l174 -600l172 600h69l173 -602l174 602h83l-221 -753h-71l-174 604l-173 -604h-71zM365 807v97h84v-97h-84zM517 807v97h84v-97h-84z" />
    <glyph glyph-name="wdieresis" unicode="&#x1e85;" horiz-adv-x="746" 
d="M181 0l-160 498h86l114 -380l126 380h63l118 -380l117 380h80l-162 -498h-70l-117 374l-124 -374h-71zM258 587v93h84v-93h-84zM410 587v93h84v-93h-84z" />
    <glyph glyph-name="Ygrave" unicode="&#x1ef2;" horiz-adv-x="624" 
d="M275 328l-265 425h100l211 -350l204 350h89l-252 -426v-327h-87v328zM284 807l-120 146h105l68 -146h-53z" />
    <glyph glyph-name="ygrave" unicode="&#x1ef3;" horiz-adv-x="480" 
d="M207 -1l-186 499h86l140 -389l133 389h79l-216 -606q-17 -50 -40 -75q-31 -34 -83 -34q-42 0 -68 19l7 68h2q21 -21 54 -21q45 0 69 76zM222 555l-120 146h105l68 -146h-53z" />
    <glyph glyph-name="uni2007" unicode="&#x2007;" horiz-adv-x="762" 
 />
    <glyph glyph-name="uni2008" unicode="&#x2008;" horiz-adv-x="282" 
 />
    <glyph glyph-name="uni200B" unicode="&#x200b;" horiz-adv-x="0" 
 />
    <glyph glyph-name="endash" unicode="&#x2013;" horiz-adv-x="626" 
d="M60 268v73h506v-73h-506z" />
    <glyph glyph-name="emdash" unicode="&#x2014;" horiz-adv-x="906" 
d="M60 268v73h786v-73h-786z" />
    <glyph glyph-name="quoteleft" unicode="&#x2018;" horiz-adv-x="229" 
d="M62 505v126q0 61 28 93.5t75 38.5l2 -48q-51 -8 -52 -76h52v-134h-105z" />
    <glyph glyph-name="quoteright" unicode="&#x2019;" horiz-adv-x="229" 
d="M64 495l-2 48q51 8 52 76h-52v134h105v-126q0 -61 -28 -93.5t-75 -38.5z" />
    <glyph glyph-name="quotesinglbase" unicode="&#x201a;" horiz-adv-x="229" 
d="M64 -124l-2 48q51 8 52 76h-52v134h105v-126q0 -61 -28 -93.5t-75 -38.5z" />
    <glyph glyph-name="quotedblleft" unicode="&#x201c;" horiz-adv-x="401" 
d="M234 505v126q0 61 28 93.5t75 38.5l2 -48q-51 -8 -52 -76h52v-134h-105zM62 505v126q0 61 28 93.5t75 38.5l2 -48q-51 -8 -52 -76h52v-134h-105z" />
    <glyph glyph-name="quotedblright" unicode="&#x201d;" horiz-adv-x="401" 
d="M236 495l-2 48q51 8 52 76h-52v134h105v-126q0 -61 -28 -93.5t-75 -38.5zM64 495l-2 48q51 8 52 76h-52v134h105v-126q0 -61 -28 -93.5t-75 -38.5z" />
    <glyph glyph-name="quotedblbase" unicode="&#x201e;" horiz-adv-x="401" 
d="M236 -124l-2 48q51 8 52 76h-52v134h105v-126q0 -61 -28 -93.5t-75 -38.5zM64 -124l-2 48q51 8 52 76h-52v134h105v-126q0 -61 -28 -93.5t-75 -38.5z" />
    <glyph glyph-name="dagger" unicode="&#x2020;" horiz-adv-x="477" 
d="M200 473h-159v68h159v212h77v-212h159v-68h-159v-473h-77v473z" />
    <glyph glyph-name="daggerdbl" unicode="&#x2021;" horiz-adv-x="477" 
d="M200 473h-159v68h159v212h77v-212h159v-68h-159v-193h159v-68h-159v-212h-77v212h-159v68h159v193z" />
    <glyph glyph-name="bullet" unicode="&#x2022;" horiz-adv-x="468" 
d="M234 187q-81 0 -128.5 51.5t-47.5 129.5q0 80 47 132.5t130 52.5q79 0 127 -49.5t48 -134.5q0 -80 -46.5 -131t-129.5 -51z" />
    <glyph glyph-name="ellipsis" unicode="&#x2026;" horiz-adv-x="737" 
d="M545 0v148h107v-148h-107zM85 0v148h107v-148h-107zM315 0v148h107v-148h-107z" />
    <glyph glyph-name="perthousand" unicode="&#x2030;" horiz-adv-x="1415" 
d="M757 -10q-89 0 -137.5 59.5t-48.5 156.5q0 98 48 158t138 60q91 0 139 -59.5t48 -156.5q0 -99 -48.5 -158.5t-138.5 -59.5zM1192 -10q-89 0 -137.5 59.5t-48.5 156.5q0 98 48 158t138 60q91 0 139 -59.5t48 -156.5q0 -99 -48.5 -158.5t-138.5 -59.5zM757 54q58 0 83 39
t25 115q0 151 -108 151t-108 -152q0 -76 25.5 -114.5t82.5 -38.5zM1192 54q58 0 83 39t25 115q0 151 -108 151t-108 -152q0 -76 25.5 -114.5t82.5 -38.5zM222 328q-89 0 -137.5 59.5t-48.5 156.5q0 98 48 158t138 60q91 0 139 -59.5t48 -156.5q0 -99 -48.5 -158.5
t-138.5 -59.5zM222 392q58 0 83 39t25 115q0 151 -108 151t-108 -152q0 -76 25.5 -114.5t82.5 -38.5zM202 0l504 753h74l-504 -753h-74z" />
    <glyph glyph-name="guilsinglleft" unicode="&#x2039;" horiz-adv-x="322" 
d="M189 43l-130 198l130 198h82l-125 -198l125 -198h-82z" />
    <glyph glyph-name="guilsinglright" unicode="&#x203a;" horiz-adv-x="322" 
d="M51 43l125 198l-125 198h82l130 -198l-130 -198h-82z" />
    <glyph glyph-name="fraction" unicode="&#x2044;" horiz-adv-x="175" 
d="M-185 0l480 753h65l-480 -753h-65z" />
    <glyph glyph-name="uni2070" unicode="&#x2070;" horiz-adv-x="438" 
d="M218 346q-87 0 -132.5 57t-45.5 150q0 90 48 148t130 58q83 0 131 -56.5t48 -148.5q0 -95 -45.5 -151.5t-133.5 -56.5zM218 405q108 0 108 150q0 68 -27.5 107t-81.5 39q-52 0 -78.5 -40.5t-26.5 -106.5q0 -149 106 -149z" />
    <glyph glyph-name="uni2074" unicode="&#x2074;" horiz-adv-x="392" 
d="M237 353v104h-217v55q147 138 213 240h72v-240h65v-55h-65v-104h-68zM92 512h145v161q-62 -86 -145 -161z" />
    <glyph glyph-name="uni2075" unicode="&#x2075;" horiz-adv-x="376" 
d="M184 346q-132 0 -155 111l67 15q8 -35 27 -51t60 -16q85 0 85 87q0 77 -74 77q-59 0 -80 -46h-55l17 229h235v-61h-184l-7 -99q31 33 86 33q63 0 98.5 -35t35.5 -104q0 -64 -41 -102t-115 -38z" />
    <glyph glyph-name="uni2076" unicode="&#x2076;" horiz-adv-x="392" 
d="M203 346q-77 0 -120 48q-43 47 -43 141q0 97 50 160.5t124 63.5q102 0 130 -92l-62 -18q-9 28 -24 41t-45 13q-39 0 -68 -34.5t-33 -94.5q35 50 104 50q62 0 102 -36t40 -98q0 -66 -41.5 -105t-113.5 -39zM204 397q41 0 63 24.5t22 66.5q0 41 -22.5 63.5t-62.5 22.5
q-42 0 -65.5 -23.5t-23.5 -66.5q0 -38 24 -62.5t65 -24.5z" />
    <glyph glyph-name="uni2077" unicode="&#x2077;" horiz-adv-x="331" 
d="M84 353q2 98 49 188.5t111 150.5h-227v60h294v-59q-73 -67 -113 -155.5t-42 -184.5h-72z" />
    <glyph glyph-name="uni2078" unicode="&#x2078;" horiz-adv-x="390" 
d="M192 346q-74 0 -114.5 33t-40.5 87q0 67 79 93q-66 24 -66 88q0 52 40.5 82t106.5 30q68 0 105.5 -29.5t37.5 -81.5q0 -63 -66 -85q79 -22 79 -97q0 -57 -41 -88.5t-120 -31.5zM192 403q45 0 69 17.5t24 46.5q0 64 -88 64q-92 0 -92 -61q0 -67 87 -67zM193 585
q43 0 62 15t19 46q0 58 -78 58q-81 0 -81 -58q0 -61 78 -61z" />
    <glyph glyph-name="uni2079" unicode="&#x2079;" horiz-adv-x="392" 
d="M191 758q75 0 118 -48q43 -47 43 -132q0 -233 -174 -233q-113 0 -140 98l62 15q15 -57 79 -57q50 0 73.5 32t27.5 101q-35 -50 -102 -50q-62 0 -103 35.5t-41 97.5q0 64 44 102.5t113 38.5zM190 707q-42 0 -64.5 -23.5t-22.5 -64.5q0 -83 84 -83q43 0 66.5 22t23.5 64
q0 38 -23 61.5t-64 23.5z" />
    <glyph glyph-name="uni2080" unicode="&#x2080;" horiz-adv-x="438" 
d="M218 -141q-87 0 -132.5 57t-45.5 150q0 90 48 148t130 58q83 0 131 -56.5t48 -148.5q0 -95 -45.5 -151.5t-133.5 -56.5zM218 -82q108 0 108 150q0 68 -27.5 107t-81.5 39q-52 0 -78.5 -40.5t-26.5 -106.5q0 -149 106 -149z" />
    <glyph glyph-name="uni2081" unicode="&#x2081;" horiz-adv-x="257" 
d="M113 -134v269q-25 -19 -85 -22v53q96 9 120 99h34v-399h-69z" />
    <glyph glyph-name="uni2082" unicode="&#x2082;" horiz-adv-x="380" 
d="M36 -134q1 66 35.5 108t108.5 80q56 29 74.5 48.5t18.5 49.5t-21.5 45.5t-57.5 15.5q-40 0 -62.5 -22.5t-33.5 -68.5l-63 17q8 53 47.5 92.5t117.5 39.5q64 0 104.5 -32t40.5 -88q0 -48 -27 -75t-99 -63q-49 -25 -73.5 -44t-27.5 -42h227v-61h-309z" />
    <glyph glyph-name="uni2083" unicode="&#x2083;" horiz-adv-x="383" 
d="M193 -141q-137 0 -165 112l65 25q11 -39 31 -58t68 -19q40 0 62 17.5t22 44.5q0 59 -73 59h-50v56h50q68 0 68 58q0 28 -23 44t-59 16q-73 0 -89 -72l-63 18q12 52 51.5 82t102.5 30q69 0 109 -32t40 -86q0 -59 -57 -83q64 -26 64 -92q0 -57 -44 -88.5t-110 -31.5z" />
    <glyph glyph-name="uni2084" unicode="&#x2084;" horiz-adv-x="392" 
d="M237 -134v104h-217v55q147 138 213 240h72v-240h65v-55h-65v-104h-68zM92 25h145v161q-62 -86 -145 -161z" />
    <glyph glyph-name="uni2085" unicode="&#x2085;" horiz-adv-x="376" 
d="M184 -141q-132 0 -155 111l67 15q8 -35 27 -51t60 -16q85 0 85 87q0 77 -74 77q-59 0 -80 -46h-55l17 229h235v-61h-184l-7 -99q31 33 86 33q63 0 98.5 -35t35.5 -104q0 -64 -41 -102t-115 -38z" />
    <glyph glyph-name="uni2086" unicode="&#x2086;" horiz-adv-x="392" 
d="M203 -141q-77 0 -120 48q-43 47 -43 141q0 97 50 160.5t124 63.5q102 0 130 -92l-62 -18q-9 28 -24 41t-45 13q-39 0 -68 -34.5t-33 -94.5q35 50 104 50q62 0 102 -36t40 -98q0 -66 -41.5 -105t-113.5 -39zM204 -90q41 0 63 24.5t22 66.5q0 41 -22.5 63.5t-62.5 22.5
q-42 0 -65.5 -23.5t-23.5 -66.5q0 -38 24 -62.5t65 -24.5z" />
    <glyph glyph-name="uni2087" unicode="&#x2087;" horiz-adv-x="331" 
d="M84 -134q2 98 49 188.5t111 150.5h-227v60h294v-59q-73 -67 -113 -155.5t-42 -184.5h-72z" />
    <glyph glyph-name="uni2088" unicode="&#x2088;" horiz-adv-x="390" 
d="M192 -141q-74 0 -114.5 33t-40.5 87q0 67 79 93q-66 24 -66 88q0 52 40.5 82t106.5 30q68 0 105.5 -29.5t37.5 -81.5q0 -63 -66 -85q79 -22 79 -97q0 -57 -41 -88.5t-120 -31.5zM192 -84q45 0 69 17.5t24 46.5q0 64 -88 64q-92 0 -92 -61q0 -67 87 -67zM193 98
q43 0 62 15t19 46q0 58 -78 58q-81 0 -81 -58q0 -61 78 -61z" />
    <glyph glyph-name="uni2089" unicode="&#x2089;" horiz-adv-x="392" 
d="M191 271q75 0 118 -48q43 -47 43 -132q0 -233 -174 -233q-113 0 -140 98l62 15q15 -57 79 -57q50 0 73.5 32t27.5 101q-35 -50 -102 -50q-62 0 -103 35.5t-41 97.5q0 64 44 102.5t113 38.5zM190 220q-42 0 -64.5 -23.5t-22.5 -64.5q0 -83 84 -83q43 0 66.5 22t23.5 64
q0 38 -23 61.5t-64 23.5z" />
    <glyph glyph-name="lira" unicode="&#x20a4;" horiz-adv-x="580" 
d="M182 257h-148v64h115q-19 38 -27 58h-88v64h69q-7 28 -7 66q0 95 61 147.5t162 52.5q182 0 220 -171l-75 -21q-13 64 -45.5 93t-99.5 29q-143 0 -143 -132q0 -32 8 -64h237v-64h-216q8 -20 26 -58h190v-64h-162q23 -64 23 -118q0 -13 -1 -20q28 -20 42 -29.5t37 -19.5
t43 -10q41 0 59 20.5t24 70.5l71 -10q-9 -76 -42 -113.5t-101 -37.5q-70 0 -154 66q-19 -33 -51.5 -53t-71.5 -20q-47 0 -79.5 27.5t-32.5 75.5q0 47 31 75t74 28q37 0 79 -22q-4 38 -27 90zM204 101q-38 26 -67 26q-44 0 -44 -43q0 -18 13 -28.5t35 -10.5q48 0 63 56z" />
    <glyph glyph-name="Euro" unicode="&#x20ac;" horiz-adv-x="708" 
d="M98 412h-80v66h87q23 133 102.5 209.5t196.5 76.5q100 0 164.5 -51t101.5 -163l-74 -24q-31 88 -71 127t-119 39q-180 0 -216 -214h274v-66h-280q-1 -12 -1 -35q0 -28 1 -41h280v-66h-273q37 -205 213 -205q80 0 125.5 41t72.5 129l75 -27q-69 -217 -275 -217
q-120 0 -197 74t-99 205h-88v66h80q-1 13 -1 40q0 24 1 36z" />
    <glyph glyph-name="trademark" unicode="&#x2122;" horiz-adv-x="667" 
d="M312 753h62l84 -241l82 241h65v-302h-51v219l-75 -219h-45l-76 219v-219h-46v302zM130 710h-95v43h239v-43h-95v-259h-49v259z" />
    <glyph glyph-name="Omega" unicode="&#x2126;" horiz-adv-x="848" 
d="M27 0v82h262v9q-112 31 -171.5 117t-59.5 205q0 150 107 250t265 100q151 0 252.5 -98t101.5 -250q0 -115 -60 -201.5t-172 -123.5v-8h269v-82h-354v144q227 49 227 273q0 122 -75.5 195t-193.5 73q-121 0 -199 -75t-78 -197q0 -110 56.5 -179t169.5 -90v-144h-347z" />
    <glyph glyph-name="uni2150" unicode="&#x2150;" horiz-adv-x="783" 
d="M113 353v269q-25 -19 -85 -22v53q96 9 120 99h34v-399h-69zM72 0l480 753h65l-480 -753h-65zM536 0q2 98 49 188.5t111 150.5h-227v60h294v-59q-73 -67 -113 -155.5t-42 -184.5h-72z" />
    <glyph glyph-name="uni2151" unicode="&#x2151;" horiz-adv-x="794" 
d="M113 353v269q-25 -19 -85 -22v53q96 9 120 99h34v-399h-69zM72 0l480 753h65l-480 -753h-65zM593 405q75 0 118 -48q43 -47 43 -132q0 -233 -174 -233q-113 0 -140 98l62 15q15 -57 79 -57q50 0 73.5 32t27.5 101q-35 -50 -102 -50q-62 0 -103 35.5t-41 97.5
q0 64 44 102.5t113 38.5zM592 354q-42 0 -64.5 -23.5t-22.5 -64.5q0 -83 84 -83q43 0 66.5 22t23.5 64q0 38 -23 61.5t-64 23.5z" />
    <glyph glyph-name="uni2152" unicode="&#x2152;" horiz-adv-x="1071" 
d="M113 353v269q-25 -19 -85 -22v53q96 9 120 99h34v-399h-69zM72 0l480 753h65l-480 -753h-65zM518 0v269q-25 -19 -85 -22v53q96 9 120 99h34v-399h-69zM851 -7q-87 0 -132.5 57t-45.5 150q0 90 48 148t130 58q83 0 131 -56.5t48 -148.5q0 -95 -45.5 -151.5t-133.5 -56.5z
M851 52q108 0 108 150q0 68 -27.5 107t-81.5 39q-52 0 -78.5 -40.5t-26.5 -106.5q0 -149 106 -149z" />
    <glyph glyph-name="onethird" unicode="&#x2153;" horiz-adv-x="825" 
d="M113 353v269q-25 -19 -85 -22v53q96 9 120 99h34v-399h-69zM89 0l480 753h65l-480 -753h-65zM632 -7q-137 0 -165 112l65 25q11 -39 31 -58t68 -19q40 0 62 17.5t22 44.5q0 59 -73 59h-50v56h50q68 0 68 58q0 28 -23 44t-59 16q-73 0 -89 -72l-63 18q12 52 51.5 82
t102.5 30q69 0 109 -32t40 -86q0 -59 -57 -83q64 -26 64 -92q0 -57 -44 -88.5t-110 -31.5z" />
    <glyph glyph-name="twothirds" unicode="&#x2154;" horiz-adv-x="885" 
d="M36 353q1 66 35.5 108t108.5 80q56 29 74.5 48.5t18.5 49.5t-21.5 45.5t-57.5 15.5q-40 0 -62.5 -22.5t-33.5 -68.5l-63 17q8 53 47.5 92.5t117.5 39.5q64 0 104.5 -32t40.5 -88q0 -48 -27 -75t-99 -63q-49 -25 -73.5 -44t-27.5 -42h227v-61h-309zM186 0l480 753h65
l-480 -753h-65zM695 -7q-137 0 -165 112l65 25q11 -39 31 -58t68 -19q40 0 62 17.5t22 44.5q0 59 -73 59h-50v56h50q68 0 68 58q0 28 -23 44t-59 16q-73 0 -89 -72l-63 18q12 52 51.5 82t102.5 30q69 0 109 -32t40 -86q0 -59 -57 -83q64 -26 64 -92q0 -57 -44 -88.5
t-110 -31.5z" />
    <glyph glyph-name="uni2155" unicode="&#x2155;" horiz-adv-x="808" 
d="M113 353v269q-25 -19 -85 -22v53q96 9 120 99h34v-399h-69zM72 0l480 753h65l-480 -753h-65zM616 -7q-132 0 -155 111l67 15q8 -35 27 -51t60 -16q85 0 85 87q0 77 -74 77q-59 0 -80 -46h-55l17 229h235v-61h-184l-7 -99q31 33 86 33q63 0 98.5 -35t35.5 -104
q0 -64 -41 -102t-115 -38z" />
    <glyph glyph-name="uni2156" unicode="&#x2156;" horiz-adv-x="931" 
d="M36 353q1 66 35.5 108t108.5 80q56 29 74.5 48.5t18.5 49.5t-21.5 45.5t-57.5 15.5q-40 0 -62.5 -22.5t-33.5 -68.5l-63 17q8 53 47.5 92.5t117.5 39.5q64 0 104.5 -32t40.5 -88q0 -48 -27 -75t-99 -63q-49 -25 -73.5 -44t-27.5 -42h227v-61h-309zM195 0l480 753h65
l-480 -753h-65zM739 -7q-132 0 -155 111l67 15q8 -35 27 -51t60 -16q85 0 85 87q0 77 -74 77q-59 0 -80 -46h-55l17 229h235v-61h-184l-7 -99q31 33 86 33q63 0 98.5 -35t35.5 -104q0 -64 -41 -102t-115 -38z" />
    <glyph glyph-name="uni2157" unicode="&#x2157;" horiz-adv-x="914" 
d="M193 346q-137 0 -165 112l65 25q11 -39 31 -58t68 -19q40 0 62 17.5t22 44.5q0 59 -73 59h-50v56h50q68 0 68 58q0 28 -23 44t-59 16q-73 0 -89 -72l-63 18q12 52 51.5 82t102.5 30q69 0 109 -32t40 -86q0 -59 -57 -83q64 -26 64 -92q0 -57 -44 -88.5t-110 -31.5zM178 0
l480 753h65l-480 -753h-65zM722 -7q-132 0 -155 111l67 15q8 -35 27 -51t60 -16q85 0 85 87q0 77 -74 77q-59 0 -80 -46h-55l17 229h235v-61h-184l-7 -99q31 33 86 33q63 0 98.5 -35t35.5 -104q0 -64 -41 -102t-115 -38z" />
    <glyph glyph-name="uni2158" unicode="&#x2158;" horiz-adv-x="943" 
d="M237 353v104h-217v55q147 138 213 240h72v-240h65v-55h-65v-104h-68zM92 512h145v161q-62 -86 -145 -161zM207 0l480 753h65l-480 -753h-65zM751 -7q-132 0 -155 111l67 15q8 -35 27 -51t60 -16q85 0 85 87q0 77 -74 77q-59 0 -80 -46h-55l17 229h235v-61h-184l-7 -99
q31 33 86 33q63 0 98.5 -35t35.5 -104q0 -64 -41 -102t-115 -38z" />
    <glyph glyph-name="uni2159" unicode="&#x2159;" horiz-adv-x="784" 
d="M113 353v269q-25 -19 -85 -22v53q96 9 120 99h34v-399h-69zM72 0l480 753h65l-480 -753h-65zM595 -7q-77 0 -120 48q-43 47 -43 141q0 97 50 160.5t124 63.5q102 0 130 -92l-62 -18q-9 28 -24 41t-45 13q-39 0 -68 -34.5t-33 -94.5q35 50 104 50q62 0 102 -36t40 -98
q0 -66 -41.5 -105t-113.5 -39zM596 44q41 0 63 24.5t22 66.5q0 41 -22.5 63.5t-62.5 22.5q-42 0 -65.5 -23.5t-23.5 -66.5q0 -38 24 -62.5t65 -24.5z" />
    <glyph glyph-name="uni215A" unicode="&#x215a;" horiz-adv-x="883" 
d="M184 346q-132 0 -155 111l67 15q8 -35 27 -51t60 -16q85 0 85 87q0 77 -74 77q-59 0 -80 -46h-55l17 229h235v-61h-184l-7 -99q31 33 86 33q63 0 98.5 -35t35.5 -104q0 -64 -41 -102t-115 -38zM171 0l480 753h65l-480 -753h-65zM694 -7q-77 0 -120 48q-43 47 -43 141
q0 97 50 160.5t124 63.5q102 0 130 -92l-62 -18q-9 28 -24 41t-45 13q-39 0 -68 -34.5t-33 -94.5q35 50 104 50q62 0 102 -36t40 -98q0 -66 -41.5 -105t-113.5 -39zM695 44q41 0 63 24.5t22 66.5q0 41 -22.5 63.5t-62.5 22.5q-42 0 -65.5 -23.5t-23.5 -66.5q0 -38 24 -62.5
t65 -24.5z" />
    <glyph glyph-name="oneeighth" unicode="&#x215b;" horiz-adv-x="825" 
d="M113 353v269q-25 -19 -85 -22v53q96 9 120 99h34v-399h-69zM90 0l480 753h65l-480 -753h-65zM634 -7q-74 0 -114.5 33t-40.5 87q0 67 79 93q-66 24 -66 88q0 52 40.5 82t106.5 30q68 0 105.5 -29.5t37.5 -81.5q0 -63 -66 -85q79 -22 79 -97q0 -57 -41 -88.5t-120 -31.5z
M634 50q45 0 69 17.5t24 46.5q0 64 -88 64q-92 0 -92 -61q0 -67 87 -67zM635 232q43 0 62 15t19 46q0 58 -78 58q-81 0 -81 -58q0 -61 78 -61z" />
    <glyph glyph-name="threeeighths" unicode="&#x215c;" horiz-adv-x="885" 
d="M193 346q-137 0 -165 112l65 25q11 -39 31 -58t68 -19q40 0 62 17.5t22 44.5q0 59 -73 59h-50v56h50q68 0 68 58q0 28 -23 44t-59 16q-73 0 -89 -72l-63 18q12 52 51.5 82t102.5 30q69 0 109 -32t40 -86q0 -59 -57 -83q64 -26 64 -92q0 -57 -44 -88.5t-110 -31.5zM176 0
l480 753h65l-480 -753h-65zM694 -7q-74 0 -114.5 33t-40.5 87q0 67 79 93q-66 24 -66 88q0 52 40.5 82t106.5 30q68 0 105.5 -29.5t37.5 -81.5q0 -63 -66 -85q79 -22 79 -97q0 -57 -41 -88.5t-120 -31.5zM694 50q45 0 69 17.5t24 46.5q0 64 -88 64q-92 0 -92 -61
q0 -67 87 -67zM695 232q43 0 62 15t19 46q0 58 -78 58q-81 0 -81 -58q0 -61 78 -61z" />
    <glyph glyph-name="fiveeighths" unicode="&#x215d;" horiz-adv-x="885" 
d="M184 346q-132 0 -155 111l67 15q8 -35 27 -51t60 -16q85 0 85 87q0 77 -74 77q-59 0 -80 -46h-55l17 229h235v-61h-184l-7 -99q31 33 86 33q63 0 98.5 -35t35.5 -104q0 -64 -41 -102t-115 -38zM173 0l480 753h65l-480 -753h-65zM694 -7q-74 0 -114.5 33t-40.5 87
q0 67 79 93q-66 24 -66 88q0 52 40.5 82t106.5 30q68 0 105.5 -29.5t37.5 -81.5q0 -63 -66 -85q79 -22 79 -97q0 -57 -41 -88.5t-120 -31.5zM694 50q45 0 69 17.5t24 46.5q0 64 -88 64q-92 0 -92 -61q0 -67 87 -67zM695 232q43 0 62 15t19 46q0 58 -78 58q-81 0 -81 -58
q0 -61 78 -61z" />
    <glyph glyph-name="seveneighths" unicode="&#x215e;" horiz-adv-x="825" 
d="M84 353q2 98 49 188.5t111 150.5h-227v60h294v-59q-73 -67 -113 -155.5t-42 -184.5h-72zM84 0l480 753h65l-480 -753h-65zM634 -7q-74 0 -114.5 33t-40.5 87q0 67 79 93q-66 24 -66 88q0 52 40.5 82t106.5 30q68 0 105.5 -29.5t37.5 -81.5q0 -63 -66 -85q79 -22 79 -97
q0 -57 -41 -88.5t-120 -31.5zM634 50q45 0 69 17.5t24 46.5q0 64 -88 64q-92 0 -92 -61q0 -67 87 -67zM635 232q43 0 62 15t19 46q0 58 -78 58q-81 0 -81 -58q0 -61 78 -61z" />
    <glyph glyph-name="uni215F" unicode="&#x215f;" horiz-adv-x="432" 
d="M113 353v269q-25 -19 -85 -22v53q96 9 120 99h34v-399h-69zM72 0l480 753h65l-480 -753h-65z" />
    <glyph glyph-name="uni2189" unicode="&#x2189;" horiz-adv-x="885" 
d="M186 0l480 753h65l-480 -753h-65zM695 -7q-137 0 -165 112l65 25q11 -39 31 -58t68 -19q40 0 62 17.5t22 44.5q0 59 -73 59h-50v56h50q68 0 68 58q0 28 -23 44t-59 16q-73 0 -89 -72l-63 18q12 52 51.5 82t102.5 30q69 0 109 -32t40 -86q0 -59 -57 -83q64 -26 64 -92
q0 -57 -44 -88.5t-110 -31.5zM218 346q-87 0 -132.5 57t-45.5 150q0 90 48 148t130 58q83 0 131 -56.5t48 -148.5q0 -95 -45.5 -151.5t-133.5 -56.5zM218 405q108 0 108 150q0 68 -27.5 107t-81.5 39q-52 0 -78.5 -40.5t-26.5 -106.5q0 -149 106 -149z" />
    <glyph glyph-name="arrowleft" unicode="&#x2190;" horiz-adv-x="605" 
d="M174 288l240 -142v-80l-374 229v54l374 229v-82l-244 -141h406v-67h-402z" />
    <glyph glyph-name="arrowup" unicode="&#x2191;" horiz-adv-x="605" 
d="M268 489l-142 -240h-80l229 374h54l229 -374h-82l-139 240v-462h-69v462z" />
    <glyph glyph-name="arrowright" unicode="&#x2192;" horiz-adv-x="605" 
d="M430 355l-240 143v80l374 -229v-54l-374 -229v82l243 140h-405v67h402z" />
    <glyph glyph-name="arrowdown" unicode="&#x2193;" horiz-adv-x="605" 
d="M337 163l141 238h80l-229 -374h-54l-229 374h83l139 -242v464h69v-460z" />
    <glyph glyph-name="partialdiff" unicode="&#x2202;" horiz-adv-x="512" 
d="M256 -9q-99 0 -157 70t-58 173q0 105 55.5 173.5t151.5 68.5q65 0 112 -44q-50 116 -186 227l41 47q120 -86 188 -195.5t68 -265.5q0 -115 -56 -184.5t-159 -69.5zM257 54q70 0 104 48.5t34 128.5t-34 131t-104 51t-104.5 -49t-34.5 -128q0 -81 34.5 -131.5t104.5 -50.5z
" />
    <glyph glyph-name="Delta" unicode="&#x2206;" horiz-adv-x="633" 
d="M15 0l268 754h70l265 -754h-603zM124 71h380l-190 554z" />
    <glyph glyph-name="product" unicode="&#x220f;" horiz-adv-x="766" 
d="M158 -204v882h-122v75h694v-75h-122v-882h-87v882h-276v-882h-87z" />
    <glyph glyph-name="summation" unicode="&#x2211;" horiz-adv-x="616" 
d="M48 -204v81l341 405l-341 394v77h533v-75h-416l337 -392v-8l-349 -407h431v-75h-536z" />
    <glyph glyph-name="minus" unicode="&#x2212;" horiz-adv-x="464" 
d="M60 236v72h344v-72h-344z" />
    <glyph glyph-name="uni2219" unicode="&#x2219;" horiz-adv-x="464" 
d="M232 187q-81 0 -128.5 51.5t-47.5 129.5q0 80 47 132.5t130 52.5q79 0 127 -49.5t48 -134.5q0 -80 -46.5 -131t-129.5 -51z" />
    <glyph glyph-name="radical" unicode="&#x221a;" horiz-adv-x="539" 
d="M176 0l-155 364h90l99 -246l229 636h85l-278 -754h-70z" />
    <glyph glyph-name="infinity" unicode="&#x221e;" horiz-adv-x="631" 
d="M180 167q-59 0 -98.5 42t-39.5 112q0 68 39.5 110t99.5 42q77 0 136 -89q57 89 134 89q59 0 98.5 -42t39.5 -112q0 -68 -39.5 -110t-99.5 -42q-46 0 -77.5 24.5t-58.5 64.5q-59 -89 -134 -89zM445 234q71 0 71 86t-70 86q-53 0 -94 -84q23 -44 44 -66t49 -22zM185 234
q53 0 94 84q-23 44 -44 66t-49 22q-71 0 -71 -86t70 -86z" />
    <glyph glyph-name="integral" unicode="&#x222b;" horiz-adv-x="292" 
d="M178 -71q0 -75 -45 -110q-30 -23 -77 -23q-39 0 -72 20l12 72h3q18 -18 51 -18q48 0 48 54v704q0 76 45 110q30 23 77 23q39 0 72 -20l-12 -72h-3q-18 18 -51 18q-48 0 -48 -54v-704z" />
    <glyph glyph-name="approxequal" unicode="&#x2248;" horiz-adv-x="460" 
d="M302 282q-31 0 -59 17.5t-50 35t-38 17.5q-38 0 -45 -69l-60 10q18 129 112 129q30 0 56 -18t48 -35.5t43 -17.5q36 0 41 64l60 -8q-6 -55 -34.5 -90t-73.5 -35zM302 96q-31 0 -59 17.5t-50 35t-38 17.5q-38 0 -45 -69l-60 10q18 129 112 129q30 0 56 -18t48 -35.5
t43 -17.5q36 0 41 64l60 -8q-6 -55 -34.5 -90t-73.5 -35z" />
    <glyph glyph-name="notequal" unicode="&#x2260;" horiz-adv-x="464" 
d="M219 316h-159v72h187l38 95h72l-38 -95h85v-72h-114l-43 -108h157v-72h-186l-39 -99h-72l40 99h-87v72h115z" />
    <glyph glyph-name="lessequal" unicode="&#x2264;" horiz-adv-x="454" 
d="M394 126l-344 165v62l344 165v-77l-261 -118l261 -122v-75zM50 0v72h344v-72h-344z" />
    <glyph glyph-name="greaterequal" unicode="&#x2265;" horiz-adv-x="454" 
d="M60 126v77l261 118l-261 122v75l344 -165v-62zM60 0v72h344v-72h-344z" />
    <glyph glyph-name="dotmath" unicode="&#x22c5;" horiz-adv-x="464" 
d="M176 254v148h112v-148h-112z" />
    <glyph glyph-name="lozenge" unicode="&#x25ca;" horiz-adv-x="496" 
d="M222 70l-171 288l167 300h60l167 -290l-163 -298h-60zM251 143l114 219l-119 219l-112 -219z" />
    <glyph glyph-name="uniFB00" unicode="&#xfb00;" horiz-adv-x="558" 
d="M355 433h-173v-433h-80v433h-80v65h80v124q0 76 45 110q30 23 77 23q39 0 72 -20l-12 -72h-3q-18 18 -51 18q-48 0 -48 -54v-129h173v130q0 76 45 110q30 23 77 23q39 0 72 -20l-12 -72h-3q-18 18 -51 18q-48 0 -48 -54v-135h101v-65h-101v-433h-80v433z" />
    <glyph glyph-name="fi" unicode="&#xfb01;" horiz-adv-x="537" 
d="M102 433h-80v65h80v130q0 76 45 110q30 23 77 23q39 0 65 -16l-12 -72h-3q-14 14 -44 14q-48 0 -48 -54v-135h94v-65h-94v-433h-80v433zM373 0v498h81v-498h-81zM371 658v95h85v-95h-85z" />
    <glyph glyph-name="fl" unicode="&#xfb02;" horiz-adv-x="537" 
d="M102 433h-80v65h80v130q0 76 45 110q30 23 77 23q39 0 65 -16l-12 -72h-3q-14 14 -44 14q-48 0 -48 -54v-135h94v-65h-94v-433h-80v433zM373 0v757h81v-757h-81z" />
    <glyph glyph-name="i.latn_TRK" horiz-adv-x="247" 
d="M83 0v498h81v-498h-81zM81 658v95h85v-95h-85z" />
    <glyph glyph-name="Ldot.latn_CAT" horiz-adv-x="587" 
d="M83 0v753h87v-680h385v-73h-472zM389 347v97h84v-97h-84z" />
    <glyph glyph-name="ldot.latn_CAT" horiz-adv-x="310" 
d="M83 0v757h81v-757h-81zM234 279v95h85v-95h-85z" />
    <glyph glyph-name="zero.numr" horiz-adv-x="438" 
d="M218 346q-87 0 -132.5 57t-45.5 150q0 90 48 148t130 58q83 0 131 -56.5t48 -148.5q0 -95 -45.5 -151.5t-133.5 -56.5zM218 405q108 0 108 150q0 68 -27.5 107t-81.5 39q-52 0 -78.5 -40.5t-26.5 -106.5q0 -149 106 -149z" />
    <glyph glyph-name="one.numr" horiz-adv-x="257" 
d="M113 353v269q-25 -19 -85 -22v53q96 9 120 99h34v-399h-69z" />
    <glyph glyph-name="two.numr" horiz-adv-x="380" 
d="M36 353q1 66 35.5 108t108.5 80q56 29 74.5 48.5t18.5 49.5t-21.5 45.5t-57.5 15.5q-40 0 -62.5 -22.5t-33.5 -68.5l-63 17q8 53 47.5 92.5t117.5 39.5q64 0 104.5 -32t40.5 -88q0 -48 -27 -75t-99 -63q-49 -25 -73.5 -44t-27.5 -42h227v-61h-309z" />
    <glyph glyph-name="three.numr" horiz-adv-x="383" 
d="M193 346q-137 0 -165 112l65 25q11 -39 31 -58t68 -19q40 0 62 17.5t22 44.5q0 59 -73 59h-50v56h50q68 0 68 58q0 28 -23 44t-59 16q-73 0 -89 -72l-63 18q12 52 51.5 82t102.5 30q69 0 109 -32t40 -86q0 -59 -57 -83q64 -26 64 -92q0 -57 -44 -88.5t-110 -31.5z" />
    <glyph glyph-name="four.numr" horiz-adv-x="392" 
d="M237 353v104h-217v55q147 138 213 240h72v-240h65v-55h-65v-104h-68zM92 512h145v161q-62 -86 -145 -161z" />
    <glyph glyph-name="five.numr" horiz-adv-x="376" 
d="M184 346q-132 0 -155 111l67 15q8 -35 27 -51t60 -16q85 0 85 87q0 77 -74 77q-59 0 -80 -46h-55l17 229h235v-61h-184l-7 -99q31 33 86 33q63 0 98.5 -35t35.5 -104q0 -64 -41 -102t-115 -38z" />
    <glyph glyph-name="six.numr" horiz-adv-x="392" 
d="M203 346q-77 0 -120 48q-43 47 -43 141q0 97 50 160.5t124 63.5q102 0 130 -92l-62 -18q-9 28 -24 41t-45 13q-39 0 -68 -34.5t-33 -94.5q35 50 104 50q62 0 102 -36t40 -98q0 -66 -41.5 -105t-113.5 -39zM204 397q41 0 63 24.5t22 66.5q0 41 -22.5 63.5t-62.5 22.5
q-42 0 -65.5 -23.5t-23.5 -66.5q0 -38 24 -62.5t65 -24.5z" />
    <glyph glyph-name="seven.numr" horiz-adv-x="331" 
d="M84 353q2 98 49 188.5t111 150.5h-227v60h294v-59q-73 -67 -113 -155.5t-42 -184.5h-72z" />
    <glyph glyph-name="eight.numr" horiz-adv-x="370" 
d="M182 346q-74 0 -114.5 33t-40.5 87q0 67 79 93q-66 24 -66 88q0 52 40.5 82t106.5 30q68 0 105.5 -29.5t37.5 -81.5q0 -63 -66 -85q79 -22 79 -97q0 -57 -41 -88.5t-120 -31.5zM182 403q45 0 69 17.5t24 46.5q0 64 -88 64q-92 0 -92 -61q0 -67 87 -67zM183 585
q43 0 62 15t19 46q0 58 -78 58q-81 0 -81 -58q0 -61 78 -61z" />
    <glyph glyph-name="nine.numr" horiz-adv-x="392" 
d="M191 758q75 0 118 -48q43 -47 43 -132q0 -233 -174 -233q-113 0 -140 98l62 15q15 -57 79 -57q50 0 73.5 32t27.5 101q-35 -50 -102 -50q-62 0 -103 35.5t-41 97.5q0 64 44 102.5t113 38.5zM190 707q-42 0 -64.5 -23.5t-22.5 -64.5q0 -83 84 -83q43 0 66.5 22t23.5 64
q0 38 -23 61.5t-64 23.5z" />
    <glyph glyph-name="zero.dnom" horiz-adv-x="438" 
d="M218 -7q-87 0 -132.5 57t-45.5 150q0 90 48 148t130 58q83 0 131 -56.5t48 -148.5q0 -95 -45.5 -151.5t-133.5 -56.5zM218 52q108 0 108 150q0 68 -27.5 107t-81.5 39q-52 0 -78.5 -40.5t-26.5 -106.5q0 -149 106 -149z" />
    <glyph glyph-name="one.dnom" horiz-adv-x="257" 
d="M113 0v269q-25 -19 -85 -22v53q96 9 120 99h34v-399h-69z" />
    <glyph glyph-name="two.dnom" horiz-adv-x="380" 
d="M36 0q1 66 35.5 108t108.5 80q56 29 74.5 48.5t18.5 49.5t-21.5 45.5t-57.5 15.5q-40 0 -62.5 -22.5t-33.5 -68.5l-63 17q8 53 47.5 92.5t117.5 39.5q64 0 104.5 -32t40.5 -88q0 -48 -27 -75t-99 -63q-49 -25 -73.5 -44t-27.5 -42h227v-61h-309z" />
    <glyph glyph-name="three.dnom" horiz-adv-x="383" 
d="M193 -7q-137 0 -165 112l65 25q11 -39 31 -58t68 -19q40 0 62 17.5t22 44.5q0 59 -73 59h-50v56h50q68 0 68 58q0 28 -23 44t-59 16q-73 0 -89 -72l-63 18q12 52 51.5 82t102.5 30q69 0 109 -32t40 -86q0 -59 -57 -83q64 -26 64 -92q0 -57 -44 -88.5t-110 -31.5z" />
    <glyph glyph-name="four.dnom" horiz-adv-x="392" 
d="M237 0v104h-217v55q147 138 213 240h72v-240h65v-55h-65v-104h-68zM92 159h145v161q-62 -86 -145 -161z" />
    <glyph glyph-name="five.dnom" horiz-adv-x="376" 
d="M184 -7q-132 0 -155 111l67 15q8 -35 27 -51t60 -16q85 0 85 87q0 77 -74 77q-59 0 -80 -46h-55l17 229h235v-61h-184l-7 -99q31 33 86 33q63 0 98.5 -35t35.5 -104q0 -64 -41 -102t-115 -38z" />
    <glyph glyph-name="six.dnom" horiz-adv-x="392" 
d="M203 -7q-77 0 -120 48q-43 47 -43 141q0 97 50 160.5t124 63.5q102 0 130 -92l-62 -18q-9 28 -24 41t-45 13q-39 0 -68 -34.5t-33 -94.5q35 50 104 50q62 0 102 -36t40 -98q0 -66 -41.5 -105t-113.5 -39zM204 44q41 0 63 24.5t22 66.5q0 41 -22.5 63.5t-62.5 22.5
q-42 0 -65.5 -23.5t-23.5 -66.5q0 -38 24 -62.5t65 -24.5z" />
    <glyph glyph-name="seven.dnom" horiz-adv-x="331" 
d="M84 0q2 98 49 188.5t111 150.5h-227v60h294v-59q-73 -67 -113 -155.5t-42 -184.5h-72z" />
    <glyph glyph-name="eight.dnom" horiz-adv-x="370" 
d="M182 -7q-74 0 -114.5 33t-40.5 87q0 67 79 93q-66 24 -66 88q0 52 40.5 82t106.5 30q68 0 105.5 -29.5t37.5 -81.5q0 -63 -66 -85q79 -22 79 -97q0 -57 -41 -88.5t-120 -31.5zM182 50q45 0 69 17.5t24 46.5q0 64 -88 64q-92 0 -92 -61q0 -67 87 -67zM183 232q43 0 62 15
t19 46q0 58 -78 58q-81 0 -81 -58q0 -61 78 -61z" />
    <glyph glyph-name="nine.dnom" horiz-adv-x="392" 
d="M191 405q75 0 118 -48q43 -47 43 -132q0 -233 -174 -233q-113 0 -140 98l62 15q15 -57 79 -57q50 0 73.5 32t27.5 101q-35 -50 -102 -50q-62 0 -103 35.5t-41 97.5q0 64 44 102.5t113 38.5zM190 354q-42 0 -64.5 -23.5t-22.5 -64.5q0 -83 84 -83q43 0 66.5 22t23.5 64
q0 38 -23 61.5t-64 23.5z" />
    <glyph glyph-name="space.frac" horiz-adv-x="56" 
 />
    <glyph glyph-name="dollar.osf" horiz-adv-x="610" 
d="M337 -6v-136h-67v137q-101 10 -152.5 61t-72.5 135l80 15q16 -63 45.5 -98t99.5 -44v267q-110 25 -161 66.5t-51 129.5q0 79 56.5 127t155.5 52v90h67v-91q88 -7 134 -45.5t72 -116.5l-74 -18q-20 60 -49 85t-83 29v-241q118 -24 172 -66t54 -134q0 -94 -60.5 -146.5
t-165.5 -57.5zM337 318v-256q67 4 106.5 37.5t39.5 96.5q0 56 -31.5 80t-114.5 42zM270 412v228q-135 -8 -135 -109q0 -53 27 -77t108 -42z" />
    <glyph glyph-name="plus.osf" horiz-adv-x="464" 
d="M267 236v-151h-70v151h-137v72h137v151h70v-151h137v-72h-137z" />
    <glyph glyph-name="zero.osf" horiz-adv-x="590" 
d="M297 -10q-116 0 -184 78t-68 212q0 132 68.5 209.5t181.5 77.5q117 0 183.5 -79t66.5 -209q0 -133 -67 -211t-181 -78zM297 62q80 0 123 55.5t43 165.5q0 104 -44 159t-124 55t-124 -53.5t-44 -162.5q0 -111 44.5 -165t125.5 -54z" />
    <glyph glyph-name="one.osf" horiz-adv-x="303" 
d="M143 0v393q-37 -29 -98 -34v61q55 11 89 42.5t50 94.5h39v-557h-80z" />
    <glyph glyph-name="two.osf" horiz-adv-x="536" 
d="M44 0v14q0 49 18 89.5t51 70.5t66.5 50t77.5 39l21 9q36 15 54.5 24.5t38 24.5t27 34t7.5 45q0 51 -29 74.5t-93 23.5q-127 0 -152 -119l-74 17q12 79 71.5 125t154.5 46q93 0 147.5 -42t54.5 -123q0 -33 -10.5 -60t-23 -44t-42.5 -36.5t-48.5 -28.5t-61.5 -29
q-80 -37 -121 -67.5t-43 -69.5h350v-67h-441z" />
    <glyph glyph-name="three.osf" horiz-adv-x="535" 
d="M273 -149q-101 0 -164.5 48.5t-76.5 140.5l78 17q14 -73 50 -104t115 -31q139 0 139 126q0 74 -35 106.5t-109 32.5h-67v68h63q67 0 94.5 29t27.5 95q0 62 -30 90t-90 28q-62 0 -91 -27t-44 -81l-72 19q13 67 65.5 113t142.5 46q94 0 146 -46.5t52 -139.5q0 -65 -24 -101
t-76 -55q65 -18 97 -66.5t32 -110.5q0 -94 -57 -145.5t-166 -51.5z" />
    <glyph glyph-name="four.osf" horiz-adv-x="571" 
d="M447 70h104v-70h-104v-139h-80v139h-340v78q197 215 334 479h86v-487zM367 70v375q-91 -181 -265 -375h265z" />
    <glyph glyph-name="five.osf" horiz-adv-x="545" 
d="M273 -149q-107 0 -168.5 54t-72.5 141l79 15q11 -70 47.5 -104t113.5 -34q152 0 152 170q0 168 -149 168q-82 0 -122 -63h-67l27 359h350v-71h-290l-15 -205q43 50 127 50q105 0 163 -63.5t58 -174.5t-62 -176.5t-171 -65.5z" />
    <glyph glyph-name="six.osf" horiz-adv-x="572" 
d="M293 -10q-73 0 -126 31.5t-81 85.5q-37 70 -37 190q0 191 72.5 301.5t198.5 110.5q71 0 117.5 -38.5t63.5 -107.5l-77 -23q-24 98 -110 98q-155 0 -183 -282q61 95 178 95q100 0 159 -62.5t59 -166.5q0 -111 -63 -171.5t-171 -60.5zM293 62q74 0 113.5 40t39.5 119
t-40.5 120t-112.5 41q-71 0 -114 -39.5t-43 -115.5q0 -77 43.5 -121t113.5 -44z" />
    <glyph glyph-name="seven.osf" horiz-adv-x="530" 
d="M158 -139q8 193 72.5 353.5t178.5 273.5h-374v69h460v-75q-72 -68 -121 -145t-74.5 -159t-36 -155t-13.5 -162h-92z" />
    <glyph glyph-name="eight.osf" horiz-adv-x="567" 
d="M283 -10q-112 0 -176 56t-64 148q0 75 36.5 121.5t93.5 62.5q-98 46 -98 157q0 77 59 125.5t150 48.5q89 0 147.5 -47.5t58.5 -126.5q0 -60 -25 -95.5t-73 -58.5q60 -15 96 -64.5t36 -122.5q0 -94 -62.5 -149t-178.5 -55zM283 59q71 0 114 33t43 106q0 144 -156 144
q-159 0 -159 -144q0 -71 43.5 -105t114.5 -34zM283 411q62 0 95.5 30.5t33.5 89.5q0 54 -34.5 82t-93.5 28q-60 0 -95 -28.5t-35 -81.5q0 -59 33.5 -89.5t95.5 -30.5z" />
    <glyph glyph-name="nine.osf" horiz-adv-x="574" 
d="M268 -149q-84 0 -137.5 43t-70.5 116l74 16q16 -55 45.5 -79.5t91.5 -24.5q161 0 171 271q-59 -97 -179 -97q-102 0 -160 63.5t-58 165.5q0 111 64.5 176.5t175.5 65.5q76 0 135 -40q105 -70 105 -282q0 -195 -66 -294.5t-191 -99.5zM274 166q72 0 117 40.5t45 119.5
q0 80 -40 125.5t-111 45.5q-75 0 -116.5 -43.5t-41.5 -128.5q0 -82 36.5 -120.5t110.5 -38.5z" />
    <glyph glyph-name="less.osf" horiz-adv-x="454" 
d="M394 66l-344 165v62l344 165v-77l-261 -118l261 -122v-75z" />
    <glyph glyph-name="equal.osf" horiz-adv-x="464" 
d="M60 316v72h344v-72h-344zM60 136v72h344v-72h-344z" />
    <glyph glyph-name="greater.osf" horiz-adv-x="454" 
d="M60 66v77l261 118l-261 122v75l344 -165v-62z" />
    <glyph glyph-name="cent.osf" horiz-adv-x="518" 
d="M237 -7q-91 16 -142 87.5t-51 170.5q0 106 51.5 175t141.5 82v115h67v-115q132 -15 173 -152l-73 -18q-13 45 -35.5 70t-64.5 32v-382q49 7 75.5 39.5t40.5 90.5l72 -15q-43 -167 -188 -181v-134h-67v135zM237 439q-112 -23 -112 -186q0 -167 112 -193v379z" />
    <glyph glyph-name="sterling.osf" horiz-adv-x="580" 
d="M152 315h-118v64h88q-26 64 -26 130q0 95 61 147.5t162 52.5q182 0 220 -171l-75 -21q-13 64 -45.5 93t-99.5 29q-143 0 -143 -132q0 -56 29 -128h216v-64h-187q48 -102 48 -176q0 -13 -1 -20q28 -20 42 -29.5t37 -19.5t43 -10q41 0 59 20.5t24 70.5l71 -10
q-9 -76 -42 -113.5t-101 -37.5q-70 0 -154 66q-19 -33 -51.5 -53t-71.5 -20q-47 0 -79.5 27.5t-32.5 75.5q0 47 31 75t74 28q37 0 79 -22q-2 24 -11.5 51t-18 44t-27.5 53zM204 101q-38 26 -67 26q-44 0 -44 -43q0 -18 13 -28.5t35 -10.5q48 0 63 56z" />
    <glyph glyph-name="currency.osf" horiz-adv-x="571" 
d="M397 149q-49 -33 -113 -33q-62 0 -109 33l-78 -82l-55 53l81 85q-30 48 -30 113q0 69 32 118l-83 88l55 53l81 -86q46 30 106 30q62 0 109 -30l81 86l55 -53l-82 -87q31 -51 31 -119q0 -61 -29 -113l80 -85l-55 -53zM284 184q58 0 89 35t31 99q0 61 -32.5 99t-87.5 38
q-54 0 -85 -36t-31 -96q0 -63 31 -101t85 -38z" />
    <glyph glyph-name="yen.osf" horiz-adv-x="581" 
d="M363 353l-25 -46v-34h205v-64h-205v-209h-80v209h-204v64h204v29l-29 51h-175v64h138l-164 283h90l181 -330l175 330h79l-155 -283h145v-64h-180z" />
    <glyph glyph-name="plusminus.osf" horiz-adv-x="464" 
d="M267 296v-151h-70v151h-137v72h137v151h70v-151h137v-72h-137zM60 0v72h344v-72h-344z" />
    <glyph glyph-name="multiply.osf" horiz-adv-x="464" 
d="M231 219l-110 -119l-47 45l113 122l-113 122l47 45l110 -119l110 119l47 -45l-113 -122l113 -122l-47 -45z" />
    <glyph glyph-name="divide.osf" horiz-adv-x="464" 
d="M60 236v72h344v-72h-344zM186 50v108h92v-108h-92zM186 386v108h92v-108h-92z" />
    <glyph glyph-name="florin.osf" horiz-adv-x="383" 
d="M222 428h124v-66h-132l-52 -432q-9 -72 -38 -103t-86 -31q-42 0 -72 20l15 70h3q22 -18 47 -18q46 0 53 56l53 438h-100v66h108l24 200q9 72 39 102.5t87 30.5q58 0 82 -26l-16 -70h-3q-21 23 -58 23q-24 0 -36.5 -12t-16.5 -43z" />
    <glyph glyph-name="lira.osf" horiz-adv-x="580" 
d="M182 257h-148v64h115q-19 38 -27 58h-88v64h69q-7 28 -7 66q0 95 61 147.5t162 52.5q182 0 220 -171l-75 -21q-13 64 -45.5 93t-99.5 29q-143 0 -143 -132q0 -32 8 -64h237v-64h-216q8 -20 26 -58h190v-64h-162q23 -64 23 -118q0 -13 -1 -20q28 -20 42 -29.5t37 -19.5
t43 -10q41 0 59 20.5t24 70.5l71 -10q-9 -76 -42 -113.5t-101 -37.5q-70 0 -154 66q-19 -33 -51.5 -53t-71.5 -20q-47 0 -79.5 27.5t-32.5 75.5q0 47 31 75t74 28q37 0 79 -22q-4 38 -27 90zM204 101q-38 26 -67 26q-44 0 -44 -43q0 -18 13 -28.5t35 -10.5q48 0 63 56z" />
    <glyph glyph-name="Euro.osf" horiz-adv-x="658" 
d="M91 386h-74v64h82q23 121 96 191t181 70q94 0 155 -47t93 -153l-70 -22q-28 82 -65.5 117.5t-110.5 35.5q-165 0 -199 -192h253v-64h-260q-1 -11 -1 -35q0 -27 1 -40h260v-64h-253q34 -185 197 -185q74 0 116.5 37.5t67.5 119.5l70 -26q-64 -201 -256 -201
q-111 0 -182.5 67.5t-92.5 187.5h-82v64h74q-1 12 -1 39q0 24 1 36z" />
    <glyph glyph-name="minus.osf" horiz-adv-x="464" 
d="M60 236v72h344v-72h-344z" />
    <glyph glyph-name="dollar.tf" horiz-adv-x="700" 
d="M382 -7v-135h-68v136q-75 7 -126.5 38t-77.5 72.5t-40 100.5l83 17q18 -68 51 -106.5t110 -48.5v291q-59 13 -97.5 27.5t-70.5 38t-47 59t-15 84.5q0 85 61.5 137.5t168.5 56.5v95h68v-96q95 -7 145.5 -49t78.5 -127l-77 -20q-22 65 -54.5 93.5t-92.5 33.5v-263
q128 -26 186.5 -71t58.5 -144q0 -101 -65.5 -158t-179.5 -62zM382 345v-280q74 4 117.5 41t43.5 105q0 61 -34.5 87.5t-126.5 46.5zM314 441v251q-149 -8 -149 -121q0 -57 30 -83.5t119 -46.5z" />
    <glyph glyph-name="plus.tf" horiz-adv-x="700" 
d="M385 236v-171h-70v171h-157v72h157v171h70v-171h157v-72h-157z" />
    <glyph glyph-name="zero.tf" horiz-adv-x="700" 
d="M352 -12q-145 0 -221.5 106.5t-76.5 281.5q0 176 75.5 283.5t220.5 107.5q64 0 115 -22t84.5 -58.5t55.5 -87.5t31.5 -106.5t9.5 -117.5q0 -175 -75.5 -281t-218.5 -106zM352 64q104 0 155 82t51 233q0 146 -51.5 230t-156.5 84t-156.5 -82.5t-51.5 -233.5
q0 -152 52.5 -232.5t157.5 -80.5z" />
    <glyph glyph-name="one.tf" horiz-adv-x="700" 
d="M321 74v490q-55 -36 -142 -41v64q69 14 114.5 51t70.5 115h43v-679h154v-74h-396v74h156z" />
    <glyph glyph-name="two.tf" horiz-adv-x="700" 
d="M92 0q0 3 -0.5 9.5t-0.5 9.5q0 48 15.5 91t37 73.5t60 63t68.5 52.5t78 49l10 6q41 24 62.5 39.5t46.5 39.5t36 52t11 64q0 143 -156 143q-81 0 -126 -39t-61 -123l-77 19q16 103 86 160.5t178 57.5q109 0 175.5 -56t66.5 -160q0 -47 -15 -85t-47.5 -70t-62.5 -53.5
t-81 -52.5q-111 -67 -157 -112.5t-51 -103.5h399v-74h-495z" />
    <glyph glyph-name="three.tf" horiz-adv-x="700" 
d="M356 -12q-135 0 -207 54.5t-89 163.5l86 18q8 -41 18.5 -67.5t33 -50t62 -34.5t98.5 -11q79 0 127.5 38.5t48.5 108.5q0 77 -48 111.5t-126 34.5h-95v74h91q78 0 118.5 32t40.5 107q0 127 -166 127q-78 0 -120 -37.5t-59 -108.5l-79 22q16 88 82 142.5t178 54.5
q114 0 182.5 -50t68.5 -147q0 -133 -116 -176q68 -21 102.5 -70.5t34.5 -115.5q0 -109 -75 -164.5t-192 -55.5z" />
    <glyph glyph-name="four.tf" horiz-adv-x="700" 
d="M520 285h135v-72h-135v-213h-88v213h-376v87q198 205 367 453h97v-468zM432 285v362q-114 -171 -292 -362h292z" />
    <glyph glyph-name="five.tf" horiz-adv-x="700" 
d="M347 -10q-116 0 -181.5 58t-77.5 157l79 17q9 -79 52 -119.5t127 -40.5q167 0 167 190q0 182 -162 182q-98 0 -139 -74h-71l28 393h380v-78h-310l-15 -222q49 51 131 51q115 0 180.5 -66.5t65.5 -185.5q0 -120 -67.5 -191t-186.5 -71z" />
    <glyph glyph-name="six.tf" horiz-adv-x="700" 
d="M357 -12q-150 0 -226 116q-52 79 -52 226q0 201 78.5 319t224.5 118q178 0 213 -174l-81 -17q-13 61 -43.5 89t-94.5 28q-96 0 -146 -73.5t-64 -219.5q70 108 208 108q115 0 184 -73t69 -184q0 -121 -75 -192t-195 -71zM357 64q88 0 135.5 46.5t47.5 138.5
q0 93 -48 138.5t-134 45.5q-85 0 -136.5 -45.5t-51.5 -135.5q0 -88 51.5 -138t135.5 -50z" />
    <glyph glyph-name="seven.tf" horiz-adv-x="700" 
d="M228 0q16 383 315 680h-452v73h534v-86q-291 -275 -304 -667h-93z" />
    <glyph glyph-name="eight.tf" horiz-adv-x="700" 
d="M351 -12q-125 0 -199.5 59.5t-74.5 157.5q0 78 35 122.5t102 66.5q-62 24 -88.5 65.5t-26.5 111.5q0 91 72.5 143.5t180.5 52.5t180 -52.5t72 -143.5q0 -69 -28.5 -110.5t-91.5 -66.5q70 -20 106 -65t36 -124q0 -99 -75.5 -158t-199.5 -59zM351 64q87 0 138 35.5
t51 109.5q0 145 -188 145q-189 0 -189 -145t188 -145zM351 432q86 0 128 31.5t42 102.5q0 129 -169 129q-170 0 -170 -129q0 -71 41.5 -102.5t127.5 -31.5z" />
    <glyph glyph-name="nine.tf" horiz-adv-x="700" 
d="M327 -12q-96 0 -157 44t-79 129l78 18q18 -64 52.5 -89.5t108.5 -25.5q66 0 111.5 41t65.5 103t23 144q-32 -49 -86 -75.5t-120 -26.5q-116 0 -182.5 70.5t-66.5 180.5q0 121 74.5 193.5t198.5 72.5q114 0 185 -69q86 -83 86 -283q0 -203 -75.5 -315t-216.5 -112z
M336 325q85 0 137 43.5t52 133.5q0 88 -47 138.5t-131 50.5q-184 0 -184 -190q0 -91 43.5 -133.5t129.5 -42.5z" />
    <glyph glyph-name="less.tf" horiz-adv-x="700" 
d="M537 126l-384 165v62l384 165v-77l-299 -118l299 -122v-75z" />
    <glyph glyph-name="equal.tf" horiz-adv-x="700" 
d="M148 376v72h404v-72h-404zM148 196v72h404v-72h-404z" />
    <glyph glyph-name="greater.tf" horiz-adv-x="700" 
d="M163 518l384 -165v-62l-384 -165v77l299 118l-299 122v75z" />
    <glyph glyph-name="cent.tf" horiz-adv-x="700" 
d="M328 -7q-93 16 -143 89t-50 169q0 106 51.5 175t141.5 82v115h68v-115q131 -15 172 -152l-74 -18q-13 44 -35 68.5t-63 30.5v-377q48 7 74 39.5t40 88.5l73 -15q-43 -167 -187 -181v-134h-68v135zM328 437q-111 -23 -111 -184q0 -165 111 -191v375z" />
    <glyph glyph-name="sterling.tf" horiz-adv-x="700" 
d="M201 339h-126v66h95q-29 70 -29 142q0 103 66 161.5t174 58.5q59 0 102.5 -16t70 -45t41.5 -61t24 -73l-81 -23q-15 74 -50 108t-107 34q-154 0 -154 -146q0 -65 33 -140h231v-66h-201q52 -112 52 -190q0 -10 -2 -28q87 -55 132 -55q44 0 63 21.5t26 74.5l76 -10
q-10 -82 -45 -122t-109 -40t-168 64q-48 -71 -129 -71q-52 0 -84.5 28t-32.5 77q0 47 33 73t75 26q41 0 87 -23q-1 41 -16 79t-47 96zM253 96q-39 24 -68 24q-42 0 -42 -34q0 -37 47 -37q45 0 63 47z" />
    <glyph glyph-name="currency.tf" horiz-adv-x="700" 
d="M467 214q-49 -38 -119 -38q-66 0 -116 37l-89 -88l-52 53l93 92q-27 46 -27 108q0 65 29 114l-95 94l52 53l93 -92q46 34 112 34q67 0 115 -34l93 92l52 -53l-94 -94q28 -48 28 -108q0 -65 -27 -114l93 -92l-52 -53zM348 244q58 0 89 35t31 99q0 61 -32.5 99t-87.5 38
q-54 0 -85 -36t-31 -96q0 -63 31 -101t85 -38z" />
    <glyph glyph-name="yen.tf" horiz-adv-x="700" 
d="M429 382l-28 -51v-25h221v-66h-221v-240h-86v240h-219v66h219v20l-32 56h-187v66h148l-176 305h96l195 -355l188 355h85l-167 -305h157v-66h-193z" />
    <glyph glyph-name="plusminus.tf" horiz-adv-x="700" 
d="M385 296v-151h-70v151h-137v72h137v151h70v-151h137v-72h-137zM178 0v72h344v-72h-344z" />
    <glyph glyph-name="multiply.tf" horiz-adv-x="700" 
d="M349 281l-135 -136l-47 45l136 137l-136 137l47 45l135 -136l135 136l47 -45l-136 -137l136 -137l-47 -45z" />
    <glyph glyph-name="divide.tf" horiz-adv-x="700" 
d="M148 296v72h404v-72h-404zM304 446v108h92v-108h-92zM304 110v108h92v-108h-92z" />
    <glyph glyph-name="florin.tf" horiz-adv-x="700" 
d="M355 428h134v-66h-142l-52 -432q-9 -72 -38 -103t-86 -31q-42 0 -72 20l15 70h3q22 -18 47 -18q46 0 53 56l53 438h-110v66h118l24 200q9 72 39.5 102.5t86.5 30.5q58 0 82 -26l-16 -70h-3q-21 23 -58 23q-24 0 -36.5 -12t-16.5 -43z" />
    <glyph glyph-name="uni2007.tf" horiz-adv-x="700" 
 />
    <glyph glyph-name="lira.tf" horiz-adv-x="700" 
d="M241 257h-148v64h115q-19 38 -27 58h-88v64h69q-7 28 -7 66q0 95 61 147.5t162 52.5q182 0 220 -171l-75 -21q-13 64 -45.5 93t-99.5 29q-143 0 -143 -132q0 -32 8 -64h237v-64h-216q8 -20 26 -58h190v-64h-162q23 -64 23 -118q0 -13 -1 -20q28 -20 42 -29.5t37 -19.5
t43 -10q41 0 59 20.5t24 70.5l71 -10q-9 -76 -42 -113.5t-101 -37.5q-70 0 -154 66q-19 -33 -51.5 -53t-71.5 -20q-47 0 -79.5 27.5t-32.5 75.5q0 47 31 75t74 28q37 0 79 -22q-4 38 -27 90zM263 101q-38 26 -67 26q-44 0 -44 -43q0 -18 13 -28.5t35 -10.5q48 0 63 56z" />
    <glyph glyph-name="Euro.tf" horiz-adv-x="700" 
d="M116 412h-80v66h86q21 133 94 209.5t186 76.5q100 0 158.5 -52t92.5 -162l-73 -23q-28 87 -64.5 126t-111.5 39q-167 0 -197 -214h255v-66h-260q-1 -12 -1 -35q0 -28 1 -41h260v-66h-254q31 -205 194 -205q75 0 117 42t66 126l75 -25q-65 -217 -260 -217
q-115 0 -186 73.5t-91 205.5h-87v66h80q-1 13 -1 40q0 24 1 36z" />
    <glyph glyph-name="minus.tf" horiz-adv-x="700" 
d="M148 296v72h404v-72h-404z" />
    <glyph glyph-name="dollar.tosf" horiz-adv-x="600" 
d="M332 -6v-136h-67v137q-98 10 -149.5 61t-72.5 135l80 15q16 -63 45.5 -98.5t96.5 -43.5v267q-100 23 -151.5 66t-51.5 130q0 78 55.5 126t147.5 53v90h67v-91q86 -6 129 -44t69 -118l-74 -18q-21 61 -46 85.5t-78 28.5v-241q107 -22 160.5 -65.5t53.5 -134.5
q0 -93 -58 -146t-156 -58zM332 318v-256q63 4 98.5 37.5t35.5 96.5q0 56 -30.5 81t-103.5 41zM265 412v228q-126 -8 -126 -109q0 -52 27.5 -77.5t98.5 -41.5z" />
    <glyph glyph-name="plus.tosf" horiz-adv-x="600" 
d="M335 296v-151h-70v151h-137v72h137v151h70v-151h137v-72h-137z" />
    <glyph glyph-name="zero.tosf" horiz-adv-x="600" 
d="M302 -10q-116 0 -181.5 78t-65.5 212q0 132 66.5 209.5t178.5 77.5q117 0 181 -78.5t64 -209.5q0 -134 -64.5 -211.5t-178.5 -77.5zM302 62q161 0 161 221q0 105 -42 159.5t-121 54.5q-163 0 -163 -216q0 -219 165 -219z" />
    <glyph glyph-name="one.tosf" horiz-adv-x="600" 
d="M292 67v303q-55 -36 -142 -41v62q69 14 114.5 51t70.5 115h37v-490h144v-67h-370v67h146z" />
    <glyph glyph-name="two.tosf" horiz-adv-x="600" 
d="M76 0v14q0 49 18 89.5t51 70.5t66.5 50t77.5 39l21 9q36 15 54.5 24.5t38 24.5t27 34t7.5 45q0 51 -29 74.5t-93 23.5q-127 0 -152 -119l-74 17q12 79 71.5 125t154.5 46q93 0 147.5 -42t54.5 -123q0 -33 -10.5 -60t-23 -44t-42.5 -36.5t-48.5 -28.5t-61.5 -29
q-80 -37 -121 -67.5t-43 -69.5h350v-67h-441z" />
    <glyph glyph-name="three.tosf" horiz-adv-x="600" 
d="M306 -149q-101 0 -164.5 48.5t-76.5 140.5l78 17q14 -73 50 -104t115 -31q139 0 139 126q0 74 -35 106.5t-109 32.5h-67v68h63q67 0 94.5 29t27.5 95q0 62 -30 90t-90 28q-62 0 -91 -27t-44 -81l-72 19q13 67 65.5 113t142.5 46q94 0 146 -46.5t52 -139.5q0 -65 -24 -101
t-76 -55q65 -18 97 -66.5t32 -110.5q0 -94 -57 -145.5t-166 -51.5z" />
    <glyph glyph-name="four.tosf" horiz-adv-x="600" 
d="M453 70h104v-70h-104v-139h-80v139h-320v78q164 202 314 479h86v-487zM373 70v375q-96 -189 -247 -375h247z" />
    <glyph glyph-name="five.tosf" horiz-adv-x="600" 
d="M301 -149q-107 0 -168.5 54t-72.5 141l79 15q11 -70 47.5 -104t113.5 -34q152 0 152 170q0 168 -149 168q-82 0 -122 -63h-67l27 359h350v-71h-290l-15 -205q43 50 127 50q105 0 163 -63.5t58 -174.5t-62 -176.5t-171 -65.5z" />
    <glyph glyph-name="six.tosf" horiz-adv-x="600" 
d="M307 -10q-70 0 -122.5 31.5t-80.5 85.5q-37 70 -37 190q0 192 70.5 302t196.5 110q71 0 117.5 -38.5t63.5 -107.5l-77 -23q-24 98 -110 98q-151 0 -179 -282q61 95 174 95q97 0 155.5 -62.5t58.5 -166.5q0 -110 -62.5 -171t-167.5 -61zM307 62q72 0 110.5 40t38.5 119
t-39.5 120t-109.5 41q-69 0 -111 -39.5t-42 -115.5t42.5 -120.5t110.5 -44.5z" />
    <glyph glyph-name="seven.tosf" horiz-adv-x="600" 
d="M193 -139q8 193 72.5 353.5t178.5 273.5h-374v69h460v-75q-72 -68 -121 -145t-74.5 -159t-36 -155t-13.5 -162h-92z" />
    <glyph glyph-name="eight.tosf" horiz-adv-x="600" 
d="M300 -10q-112 0 -176 56t-64 148q0 75 36.5 121.5t93.5 62.5q-98 46 -98 157q0 77 59 125.5t150 48.5q88 0 146.5 -47.5t58.5 -126.5q0 -60 -25 -95.5t-73 -58.5q60 -15 96 -64.5t36 -122.5q0 -94 -62 -149t-178 -55zM300 59q70 0 113 33t43 106q0 144 -155 144
q-159 0 -159 -144q0 -71 43.5 -105t114.5 -34zM300 411q62 0 95 30.5t33 89.5q0 54 -34 82t-93 28q-60 0 -95 -28.5t-35 -81.5q0 -59 33.5 -89.5t95.5 -30.5z" />
    <glyph glyph-name="nine.tosf" horiz-adv-x="600" 
d="M281 -149q-81 0 -134 43t-70 116l74 16q16 -55 45 -79.5t88 -24.5q157 0 167 271q-59 -97 -175 -97q-99 0 -156.5 63.5t-57.5 165.5q0 111 63.5 176.5t172.5 65.5q72 0 131 -40q105 -70 105 -282q0 -194 -65.5 -294t-187.5 -100zM287 166q70 0 114 41t44 119
q0 80 -39 125.5t-108 45.5q-73 0 -113.5 -43.5t-40.5 -128.5q0 -82 35.5 -120.5t107.5 -38.5z" />
    <glyph glyph-name="less.tosf" horiz-adv-x="600" 
d="M467 66l-344 165v62l344 165v-77l-261 -118l261 -122v-75z" />
    <glyph glyph-name="equal.tosf" horiz-adv-x="600" 
d="M128 316v72h344v-72h-344zM128 136v72h344v-72h-344z" />
    <glyph glyph-name="greater.tosf" horiz-adv-x="600" 
d="M133 66v77l261 118l-261 122v75l344 -165v-62z" />
    <glyph glyph-name="cent.tosf" horiz-adv-x="600" 
d="M278 -7q-91 16 -142 87.5t-51 170.5q0 106 51.5 175t141.5 82v115h67v-115q132 -15 173 -152l-73 -18q-13 45 -35.5 70t-64.5 32v-382q49 7 75.5 39.5t40.5 90.5l72 -15q-43 -167 -188 -181v-134h-67v135zM278 439q-112 -23 -112 -186q0 -167 112 -193v379z" />
    <glyph glyph-name="sterling.tosf" horiz-adv-x="600" 
d="M162 315h-118v64h88q-26 64 -26 130q0 94 61.5 147t156.5 53q53 0 91.5 -14t62 -40t36 -53.5t20.5 -63.5l-75 -21q-14 65 -42.5 93.5t-92.5 28.5q-62 0 -100 -31.5t-38 -100.5q0 -56 29 -128h216v-64h-187q48 -102 48 -176q0 -13 -1 -20q3 -2 16.5 -12.5t17.5 -13
t15.5 -10t17.5 -10t15.5 -6.5t17.5 -5.5t17 -1.5q40 0 57 20.5t23 70.5l71 -10q-10 -77 -41 -114t-99 -37q-30 0 -59 11t-46 22t-44 33q-19 -33 -51.5 -53t-71.5 -20q-47 0 -79.5 27.5t-32.5 75.5q0 47 31 75t74 28q37 0 79 -22q-2 24 -11.5 51t-18 44t-27.5 53zM214 101
q-38 26 -67 26q-44 0 -44 -43q0 -18 13 -28.5t35 -10.5q48 0 63 56z" />
    <glyph glyph-name="currency.tosf" horiz-adv-x="600" 
d="M412 149q-49 -33 -113 -33q-62 0 -109 33l-78 -82l-55 53l81 85q-30 48 -30 113q0 69 32 118l-83 88l55 53l81 -86q46 30 106 30q62 0 109 -30l81 86l55 -53l-82 -87q31 -51 31 -119q0 -61 -29 -113l80 -85l-55 -53zM299 184q58 0 89 35t31 99q0 61 -32.5 99t-87.5 38
q-54 0 -85 -36t-31 -96q0 -63 31 -101t85 -38z" />
    <glyph glyph-name="yen.tosf" horiz-adv-x="600" 
d="M265 302l-27 51h-171v64h137l-148 283h90l160 -330l155 330h79l-141 -283h145v-64h-177l-22 -46v-34h199v-64h-199v-209h-80v209h-198v64h198v29z" />
    <glyph glyph-name="plusminus.tosf" horiz-adv-x="600" 
d="M335 296v-151h-70v151h-137v72h137v151h70v-151h137v-72h-137zM128 0v72h344v-72h-344z" />
    <glyph glyph-name="multiply.tosf" horiz-adv-x="600" 
d="M299 219l-110 -119l-47 45l113 122l-113 122l47 45l110 -119l110 119l47 -45l-113 -122l113 -122l-47 -45z" />
    <glyph glyph-name="divide.tosf" horiz-adv-x="600" 
d="M128 236v72h344v-72h-344zM254 50v108h92v-108h-92zM254 386v108h92v-108h-92z" />
    <glyph glyph-name="florin.tosf" horiz-adv-x="600" 
d="M331 428h134v-66h-142l-52 -432q-9 -72 -38 -103t-86 -31q-42 0 -72 20l15 70h3q22 -18 47 -18q46 0 53 56l53 438h-100v66h108l24 200q9 72 39.5 102.5t86.5 30.5q58 0 82 -26l-16 -70h-3q-21 23 -58 23q-24 0 -36.5 -12t-16.5 -43z" />
    <glyph glyph-name="uni2007.tosf" horiz-adv-x="600" 
 />
    <glyph glyph-name="lira.tosf" horiz-adv-x="600" 
d="M191 257h-148v64h115q-19 38 -27 58h-88v64h69q-7 28 -7 66q0 95 61 147.5t162 52.5q182 0 220 -171l-75 -21q-13 64 -45.5 93t-99.5 29q-143 0 -143 -132q0 -32 8 -64h237v-64h-216q8 -20 26 -58h190v-64h-162q23 -64 23 -118q0 -13 -1 -20q28 -20 42 -29.5t37 -19.5
t43 -10q41 0 59 20.5t24 70.5l71 -10q-9 -76 -42 -113.5t-101 -37.5q-70 0 -154 66q-19 -33 -51.5 -53t-71.5 -20q-47 0 -79.5 27.5t-32.5 75.5q0 47 31 75t74 28q37 0 79 -22q-4 38 -27 90zM213 101q-38 26 -67 26q-44 0 -44 -43q0 -18 13 -28.5t35 -10.5q48 0 63 56z" />
    <glyph glyph-name="Euro.tosf" horiz-adv-x="600" 
d="M79 386h-55v64h60q15 123 84 192t169 69q89 0 145 -47t80 -148l-69 -21q-22 81 -56 115t-98 34q-152 0 -173 -194h197v-64h-201q-1 -12 -1 -36q0 -27 1 -39h201v-64h-196q13 -96 55 -141t116 -45q65 0 101.5 37.5t56.5 114.5l72 -21q-26 -96 -84.5 -148.5t-146.5 -52.5
q-102 0 -169.5 67t-82.5 189h-61v64h55q-1 12 -1 38q0 25 1 37z" />
    <glyph glyph-name="minus.tosf" horiz-adv-x="600" 
d="M128 236v72h344v-72h-344z" />
    <glyph glyph-name="parenleft.case" horiz-adv-x="427" 
d="M318 -125q-236 208 -236 498q0 161 64.5 289t171.5 214l47 -49q-90 -83 -141.5 -188.5t-51.5 -265.5q0 -82 15.5 -151.5t45.5 -124t59.5 -92.5t72.5 -81z" />
    <glyph glyph-name="parenright.case" horiz-adv-x="427" 
d="M109 -125l-47 49q43 43 72.5 81t59.5 92.5t45.5 124t15.5 151.5q0 160 -51.5 265.5t-141.5 188.5l47 49q107 -86 171.5 -214t64.5 -289q0 -290 -236 -498z" />
    <glyph glyph-name="hyphen.case" horiz-adv-x="335" 
d="M60 337v78h214v-78h-214z" />
    <glyph glyph-name="bracketleft.case" horiz-adv-x="405" 
d="M90 -112v975h249v-73h-165v-829h165v-73h-249z" />
    <glyph glyph-name="bracketright.case" horiz-adv-x="405" 
d="M66 -112v73h165v829h-165v73h249v-975h-249z" />
    <glyph glyph-name="braceleft.case" horiz-adv-x="438" 
d="M368 -112q-106 11 -157.5 56.5t-51.5 134.5q0 21 6.5 72t6.5 76q0 120 -113 120h-11v68h11q113 0 113 120q0 25 -6.5 71t-6.5 67q0 89 51.5 134.5t157.5 56.5l8 -71q-77 -15 -104 -39.5t-27 -86.5q0 -26 5 -72t5 -73q0 -52 -26 -89t-77 -52q51 -15 77 -52t26 -89
q0 -27 -5 -78t-5 -77q0 -62 27 -86.5t104 -39.5z" />
    <glyph glyph-name="braceright.case" horiz-adv-x="438" 
d="M70 -112l-8 71q77 15 104 39.5t27 86.5q0 26 -5 77t-5 78q0 52 26 89t77 52q-51 15 -77 52t-26 89q0 27 5 73t5 72q0 62 -27 86.5t-104 39.5l8 71q106 -11 157.5 -56.5t51.5 -134.5q0 -21 -6.5 -67t-6.5 -71q0 -120 113 -120h11v-68h-11q-113 0 -113 -120q0 -25 6.5 -76
t6.5 -72q0 -89 -51.5 -134.5t-157.5 -56.5z" />
    <glyph glyph-name="exclamdown.case" horiz-adv-x="302" 
d="M101 0v110l26 396h48l26 -396v-110h-100zM95 625v128h112v-128h-112z" />
    <glyph glyph-name="guillemotleft.case" horiz-adv-x="500" 
d="M367 178l-130 198l130 198h82l-125 -198l125 -198h-82zM189 178l-130 198l130 198h82l-125 -198l125 -198h-82z" />
    <glyph glyph-name="uni00AD.case" horiz-adv-x="335" 
d="M60 337v78h214v-78h-214z" />
    <glyph glyph-name="guillemotright.case" horiz-adv-x="500" 
d="M229 178l125 198l-125 198h82l130 -198l-130 -198h-82zM51 178l125 198l-125 198h82l130 -198l-130 -198h-82z" />
    <glyph glyph-name="questiondown.case" horiz-adv-x="557" 
d="M520 187q-27 -204 -244 -204q-120 0 -175.5 51.5t-55.5 129.5q0 37 9 64.5t30 48.5t38 33t51 32l17 10q45 27 63 52.5t18 70.5v31h80v-42q0 -64 -29.5 -99.5t-87.5 -70.5q-56 -34 -78 -58.5t-22 -68.5q0 -54 33 -80.5t108 -26.5q78 0 114 32t50 110zM366 753v-128h-112
v128h112z" />
    <glyph glyph-name="gravecomb.case" 
d="M-421 807l-120 146h105l68 -146h-53z" />
    <glyph glyph-name="acutecomb.case" 
d="M-441 807l68 146h105l-120 -146h-53z" />
    <glyph glyph-name="uni0302.case" 
d="M-534 807l94 146h70l94 -146h-51l-79 87l-79 -87h-49z" />
    <glyph glyph-name="tildecomb.case" 
d="M-351 816q-31 0 -64.5 21t-44.5 21q-28 0 -35 -46l-50 8q14 99 89 99q30 0 61.5 -21t47.5 -21q27 0 32 42l50 -7q-5 -43 -27 -69.5t-59 -26.5z" />
    <glyph glyph-name="uni0304.case" 
d="M-360 848v64h222v-64h-222z" />
    <glyph glyph-name="uni0306.case" 
d="M-251 807q-52 0 -86.5 34.5t-37.5 88.5h57q6 -35 21.5 -51t48.5 -16q32 0 48 16.5t22 50.5h55q-3 -53 -39.5 -88t-88.5 -35z" />
    <glyph glyph-name="uni0307.case" 
d="M-291 807v97h84v-97h-84z" />
    <glyph glyph-name="uni0308.case" 
d="M-367 809v93h84v-93h-84zM-215 809v93h84v-93h-84z" />
    <glyph glyph-name="uni030A.case" 
d="M-276 715q-46 0 -72.5 30t-26.5 74t26.5 74t72.5 30q45 0 72 -29t27 -75q0 -45 -26.5 -74.5t-72.5 -29.5zM-276 756q53 0 53 63t-53 63q-52 0 -52 -61q0 -65 52 -65z" />
    <glyph glyph-name="uni030B.case" 
d="M-218 807l54 146h89l-97 -146h-46zM-352 807l54 146h89l-97 -146h-46z" />
    <glyph glyph-name="uni030C.case" 
d="M-171 953l-94 -146h-70l-94 146h51l79 -87l79 87h49z" />
    <glyph glyph-name="uni0326.case" 
d="M-164 -240l-2 48q51 8 52 76h-52v134h105v-126q0 -61 -28 -93.5t-75 -38.5z" />
    <glyph glyph-name="uni0327.case" 
d="M-216 -209q-75 0 -102 56l48 19q14 -30 52 -30q47 0 47 38t-37 38q-26 0 -34 -18h-42v106h48v-59q15 13 39 13q35 0 58.5 -22.5t23.5 -61.5q0 -37 -29 -58t-72 -21z" />
    <glyph glyph-name="uni0328.case" 
d="M-179 -134l-10 -63q-21 -12 -58 -12q-49 0 -76 23t-27 62q0 66 82 116h72q-43 -32 -61.5 -54.5t-18.5 -52.5q0 -36 42 -36q30 0 55 17z" />
    <glyph glyph-name="endash.case" horiz-adv-x="626" 
d="M60 339v73h506v-73h-506z" />
    <glyph glyph-name="emdash.case" horiz-adv-x="906" 
d="M60 339v73h786v-73h-786z" />
    <glyph glyph-name="guilsinglleft.case" horiz-adv-x="322" 
d="M189 178l-130 198l130 198h82l-125 -198l125 -198h-82z" />
    <glyph glyph-name="guilsinglright.case" horiz-adv-x="322" 
d="M51 178l125 198l-125 198h82l130 -198l-130 -198h-82z" />
    <glyph glyph-name="R.ss01" horiz-adv-x="684" 
d="M170 417h220q149 0 149 134q0 68 -37.5 99t-111.5 31h-220v-264zM458 354l190 -354h-101l-183 347h-194v-347h-87v753h300q113 0 178 -52t65 -155q0 -81 -44.5 -129t-123.5 -63z" />
    <glyph glyph-name="Racute.ss01" horiz-adv-x="684" 
d="M170 417h220q149 0 149 134q0 68 -37.5 99t-111.5 31h-220v-264zM458 354l190 -354h-101l-183 347h-194v-347h-87v753h300q113 0 178 -52t65 -155q0 -81 -44.5 -129t-123.5 -63zM317 807l68 146h105l-120 -146h-53z" />
    <glyph glyph-name="Rcommaaccent.ss01" horiz-adv-x="684" 
d="M170 417h220q149 0 149 134q0 68 -37.5 99t-111.5 31h-220v-264zM458 354l190 -354h-101l-183 347h-194v-347h-87v753h300q113 0 178 -52t65 -155q0 -81 -44.5 -129t-123.5 -63zM308 -270l-1 44q42 9 43 66h-44v110h90v-104q0 -106 -88 -116z" />
    <glyph glyph-name="Rcaron.ss01" horiz-adv-x="684" 
d="M170 417h220q149 0 149 134q0 68 -37.5 99t-111.5 31h-220v-264zM458 354l190 -354h-101l-183 347h-194v-347h-87v753h300q113 0 178 -52t65 -155q0 -81 -44.5 -129t-123.5 -63zM462 953l-94 -146h-70l-94 146h51l79 -87l79 87h49z" />
    <glyph glyph-name="g.ss02" horiz-adv-x="565" 
d="M485 498v-494q0 -108 -64 -160.5t-150 -52.5q-75 0 -128.5 27t-93.5 93l62 45q31 -53 67 -74t89 -21q138 0 138 137v96q-53 -86 -157 -86q-91 0 -146.5 68t-55.5 180t53.5 183t151.5 71q109 0 156 -86l-2 74h80zM260 77q66 0 106.5 44.5t40.5 135.5q0 182 -148 182
q-131 0 -131 -183q0 -179 132 -179z" />
    <glyph glyph-name="gcircumflex.ss02" horiz-adv-x="565" 
d="M485 498v-494q0 -108 -64 -160.5t-150 -52.5q-75 0 -128.5 27t-93.5 93l62 45q31 -53 67 -74t89 -21q138 0 138 137v96q-53 -86 -157 -86q-91 0 -146.5 68t-55.5 180t53.5 183t151.5 71q109 0 156 -86l-2 74h80zM260 77q66 0 106.5 44.5t40.5 135.5q0 182 -148 182
q-131 0 -131 -183q0 -179 132 -179zM148 591l94 146h70l94 -146h-51l-79 87l-79 -87h-49z" />
    <glyph glyph-name="gbreve.ss02" horiz-adv-x="565" 
d="M485 498v-494q0 -108 -64 -160.5t-150 -52.5q-75 0 -128.5 27t-93.5 93l62 45q31 -53 67 -74t89 -21q138 0 138 137v96q-53 -86 -157 -86q-91 0 -146.5 68t-55.5 180t53.5 183t151.5 71q109 0 156 -86l-2 74h80zM260 77q66 0 106.5 44.5t40.5 135.5q0 182 -148 182
q-131 0 -131 -183q0 -179 132 -179zM264 594q-52 0 -86.5 34.5t-37.5 88.5h57q6 -35 21.5 -51t48.5 -16q32 0 48 16.5t22 50.5h55q-3 -53 -39.5 -88t-88.5 -35z" />
    <glyph glyph-name="gdotaccent.ss02" horiz-adv-x="565" 
d="M485 498v-494q0 -108 -64 -160.5t-150 -52.5q-75 0 -128.5 27t-93.5 93l62 45q31 -53 67 -74t89 -21q138 0 138 137v96q-53 -86 -157 -86q-91 0 -146.5 68t-55.5 180t53.5 183t151.5 71q109 0 156 -86l-2 74h80zM260 77q66 0 106.5 44.5t40.5 135.5q0 182 -148 182
q-131 0 -131 -183q0 -179 132 -179zM218 638v95h85v-95h-85z" />
    <glyph glyph-name="gcommaaccent.ss02" horiz-adv-x="565" 
d="M485 498v-494q0 -108 -64 -160.5t-150 -52.5q-75 0 -128.5 27t-93.5 93l62 45q31 -53 67 -74t89 -21q138 0 138 137v96q-53 -86 -157 -86q-91 0 -146.5 68t-55.5 180t53.5 183t151.5 71q109 0 156 -86l-2 74h80zM260 77q66 0 106.5 44.5t40.5 135.5q0 182 -148 182
q-131 0 -131 -183q0 -179 132 -179zM311 846l1 -44q-42 -9 -43 -66h44v-110h-90v104q0 106 88 116z" />
    <glyph glyph-name="two.ss04" horiz-adv-x="611" 
d="M90 410q-31 64 -31 131q0 101 64.5 163.5t179.5 62.5q109 0 175 -61t66 -172q0 -67 -31.5 -134.5t-86.5 -126.5t-117 -107t-135 -92h372v-74h-485v83q397 225 397 449q0 83 -41 122t-114 39q-79 0 -120.5 -42t-41.5 -114q0 -46 22 -96z" />
    <glyph glyph-name="three.ss04" horiz-adv-x="657" 
d="M48 227l87 -3q-2 -20 -2 -35q0 -64 47 -96t148 -32q86 0 135.5 37.5t49.5 109.5q0 148 -199 148q-43 0 -79 -4v76q52 -2 75 -2q95 0 139.5 32t44.5 109q0 69 -45.5 98t-131.5 29q-80 0 -123 -29.5t-43 -85.5q0 -24 7 -50l-82 -7q-7 27 -7 58q0 88 65.5 137.5t184.5 49.5
q124 0 193 -48t69 -149q0 -132 -119 -176q68 -21 104 -70.5t36 -115.5q0 -110 -75.5 -165t-200.5 -55q-79 0 -139.5 18.5t-101 64.5t-40.5 116q0 19 3 40z" />
    <glyph glyph-name="seven.ss04" horiz-adv-x="596" 
d="M250 0h-83q5 131 49.5 236.5t114.5 205.5q13 19 46.5 64.5t45.5 64t27 50t20 59.5h-342v-182h-80v255h527q-5 -44 -17 -82.5t-38 -83.5t-45.5 -74.5t-62.5 -90.5q-74 -105 -115.5 -199t-46.5 -223z" />
    <glyph glyph-name="a.ss04" horiz-adv-x="517" 
d="M254 440q-105 0 -111 -100h-72q1 87 56 128.5t131 41.5q72 0 123 -42.5t51 -134.5v-227q0 -26 7 -36.5t26 -10.5q21 0 42 12h2l-8 -66q-28 -14 -53 -14q-75 0 -92 75q-61 -77 -158 -77q-71 0 -115 34t-44 101q0 49 25 83t72.5 51.5t98 25.5t117.5 10v45q0 101 -98 101z
M211 54q60 0 100.5 30.5t40.5 79.5v73q-53 -2 -90.5 -7.5t-72 -17t-52.5 -33t-18 -53.5q0 -72 92 -72z" />
    <glyph glyph-name="f.ss04" horiz-adv-x="304" 
d="M102 575q0 186 132 186q54 0 84 -35.5t30 -105.5v-12h-65v18q0 37 -10.5 54t-37.5 17q-53 0 -53 -114v-85h89v-65h-89v-433h-80v433h-80v65h80v77z" />
    <glyph glyph-name="r.ss04" horiz-adv-x="395" 
d="M80 498h80l-2 -78q39 90 117 90q45 0 71.5 -28.5t31.5 -74.5l-75 -34h-2q-2 43 -13.5 57t-34.5 14q-36 0 -64.5 -44t-28.5 -127v-273h-80v498z" />
    <glyph glyph-name="s.ss04" horiz-adv-x="465" 
d="M220 510q80 0 128.5 -33t62.5 -110h-76q-7 40 -33.5 57.5t-78.5 17.5q-94 0 -94 -67q0 -33 22 -45.5t88 -28.5q9 -2 13 -3q43 -11 68 -19.5t52.5 -25.5t40 -44.5t12.5 -66.5q0 -66 -50 -109t-129 -43q-93 0 -150 51t-56 143l75 2q2 -127 125 -127q48 0 78.5 21.5
t30.5 61.5q0 37 -23.5 51t-90.5 30q-5 1 -8 2t-7.5 2t-8.5 2q-79 20 -118.5 50.5t-39.5 90.5q0 67 48 103.5t119 36.5z" />
    <glyph glyph-name="agrave.ss04" horiz-adv-x="517" 
d="M238 591l-120 146h105l68 -146h-53zM254 440q-105 0 -111 -100h-72q1 87 56 128.5t131 41.5q72 0 123 -42.5t51 -134.5v-227q0 -26 7 -36.5t26 -10.5q21 0 42 12h2l-8 -66q-28 -14 -53 -14q-75 0 -92 75q-61 -77 -158 -77q-71 0 -115 34t-44 101q0 49 25 83t72.5 51.5
t98 25.5t117.5 10v45q0 101 -98 101zM211 54q60 0 100.5 30.5t40.5 79.5v73q-53 -2 -90.5 -7.5t-72 -17t-52.5 -33t-18 -53.5q0 -72 92 -72z" />
    <glyph glyph-name="aacute.ss04" horiz-adv-x="517" 
d="M218 591l68 146h105l-120 -146h-53zM254 440q-105 0 -111 -100h-72q1 87 56 128.5t131 41.5q72 0 123 -42.5t51 -134.5v-227q0 -26 7 -36.5t26 -10.5q21 0 42 12h2l-8 -66q-28 -14 -53 -14q-75 0 -92 75q-61 -77 -158 -77q-71 0 -115 34t-44 101q0 49 25 83t72.5 51.5
t98 25.5t117.5 10v45q0 101 -98 101zM211 54q60 0 100.5 30.5t40.5 79.5v73q-53 -2 -90.5 -7.5t-72 -17t-52.5 -33t-18 -53.5q0 -72 92 -72z" />
    <glyph glyph-name="acircumflex.ss04" horiz-adv-x="517" 
d="M125 591l94 146h70l94 -146h-51l-79 87l-79 -87h-49zM254 440q-105 0 -111 -100h-72q1 87 56 128.5t131 41.5q72 0 123 -42.5t51 -134.5v-227q0 -26 7 -36.5t26 -10.5q21 0 42 12h2l-8 -66q-28 -14 -53 -14q-75 0 -92 75q-61 -77 -158 -77q-71 0 -115 34t-44 101
q0 49 25 83t72.5 51.5t98 25.5t117.5 10v45q0 101 -98 101zM211 54q60 0 100.5 30.5t40.5 79.5v73q-53 -2 -90.5 -7.5t-72 -17t-52.5 -33t-18 -53.5q0 -72 92 -72z" />
    <glyph glyph-name="atilde.ss04" horiz-adv-x="517" 
d="M307 600q-31 0 -64.5 21t-44.5 21q-28 0 -35 -46l-50 8q7 49 30 74t59 25q30 0 61.5 -21t47.5 -21q27 0 32 42l50 -7q-5 -43 -27 -69.5t-59 -26.5zM254 440q-105 0 -111 -100h-72q1 87 56 128.5t131 41.5q72 0 123 -42.5t51 -134.5v-227q0 -26 7 -36.5t26 -10.5
q21 0 42 12h2l-8 -66q-28 -14 -53 -14q-75 0 -92 75q-61 -77 -158 -77q-71 0 -115 34t-44 101q0 49 25 83t72.5 51.5t98 25.5t117.5 10v45q0 101 -98 101zM211 54q60 0 100.5 30.5t40.5 79.5v73q-53 -2 -90.5 -7.5t-72 -17t-52.5 -33t-18 -53.5q0 -72 92 -72z" />
    <glyph glyph-name="adieresis.ss04" horiz-adv-x="517" 
d="M136 620v93h84v-93h-84zM288 620v93h84v-93h-84zM254 440q-105 0 -111 -100h-72q1 87 56 128.5t131 41.5q72 0 123 -42.5t51 -134.5v-227q0 -26 7 -36.5t26 -10.5q21 0 42 12h2l-8 -66q-28 -14 -53 -14q-75 0 -92 75q-61 -77 -158 -77q-71 0 -115 34t-44 101q0 49 25 83
t72.5 51.5t98 25.5t117.5 10v45q0 101 -98 101zM211 54q60 0 100.5 30.5t40.5 79.5v73q-53 -2 -90.5 -7.5t-72 -17t-52.5 -33t-18 -53.5q0 -72 92 -72z" />
    <glyph glyph-name="aring.ss04" horiz-adv-x="517" 
d="M252 571q-46 0 -72.5 30t-26.5 74t26.5 74t72.5 30q44 0 71.5 -28.5t27.5 -75.5q0 -44 -26.5 -74t-72.5 -30zM252 612q53 0 53 63t-53 63q-52 0 -52 -61q0 -65 52 -65zM254 440q-105 0 -111 -100h-72q1 87 56 128.5t131 41.5q72 0 123 -42.5t51 -134.5v-227
q0 -26 7 -36.5t26 -10.5q21 0 42 12h2l-8 -66q-28 -14 -53 -14q-75 0 -92 75q-61 -77 -158 -77q-71 0 -115 34t-44 101q0 49 25 83t72.5 51.5t98 25.5t117.5 10v45q0 101 -98 101zM211 54q60 0 100.5 30.5t40.5 79.5v73q-53 -2 -90.5 -7.5t-72 -17t-52.5 -33t-18 -53.5
q0 -72 92 -72z" />
    <glyph glyph-name="amacron.ss04" horiz-adv-x="517" 
d="M139 614v64h222v-64h-222zM254 440q-105 0 -111 -100h-72q1 87 56 128.5t131 41.5q72 0 123 -42.5t51 -134.5v-227q0 -26 7 -36.5t26 -10.5q21 0 42 12h2l-8 -66q-28 -14 -53 -14q-75 0 -92 75q-61 -77 -158 -77q-71 0 -115 34t-44 101q0 49 25 83t72.5 51.5t98 25.5
t117.5 10v45q0 101 -98 101zM211 54q60 0 100.5 30.5t40.5 79.5v73q-53 -2 -90.5 -7.5t-72 -17t-52.5 -33t-18 -53.5q0 -72 92 -72z" />
    <glyph glyph-name="abreve.ss04" horiz-adv-x="517" 
d="M249 594q-52 0 -86.5 34.5t-37.5 88.5h57q6 -35 21.5 -51t48.5 -16q32 0 48 16.5t22 50.5h55q-3 -53 -39.5 -88t-88.5 -35zM254 440q-105 0 -111 -100h-72q1 87 56 128.5t131 41.5q72 0 123 -42.5t51 -134.5v-227q0 -26 7 -36.5t26 -10.5q21 0 42 12h2l-8 -66
q-28 -14 -53 -14q-75 0 -92 75q-61 -77 -158 -77q-71 0 -115 34t-44 101q0 49 25 83t72.5 51.5t98 25.5t117.5 10v45q0 101 -98 101zM211 54q60 0 100.5 30.5t40.5 79.5v73q-53 -2 -90.5 -7.5t-72 -17t-52.5 -33t-18 -53.5q0 -72 92 -72z" />
    <glyph glyph-name="aogonek.ss04" horiz-adv-x="517" 
d="M211 54q60 0 100.5 30.5t40.5 79.5v73q-53 -2 -90.5 -7.5t-72 -17t-52.5 -33t-18 -53.5q0 -72 92 -72zM356 66q-61 -77 -158 -77q-71 0 -115 34t-44 101q0 49 25 83t72.5 51.5t98 25.5t117.5 10v45q0 101 -98 101q-105 0 -111 -100h-72q1 87 56 128.5t131 41.5
q72 0 123 -42.5t51 -134.5v-227q0 -26 7 -36.5t26 -10.5q21 0 42 12h2l-7 -61q-32 -23 -48.5 -37t-31 -36t-14.5 -44q0 -36 42 -36q30 0 55 17l-10 -63q-21 -12 -58 -12q-49 0 -76 23t-27 62q0 63 81 114q-46 11 -59 68z" />
    <glyph glyph-name="racute.ss04" horiz-adv-x="395" 
d="M170 591l68 146h105l-120 -146h-53zM80 498h80l-2 -78q39 90 117 90q45 0 71.5 -28.5t31.5 -74.5l-75 -34h-2q-2 43 -13.5 57t-34.5 14q-36 0 -64.5 -44t-28.5 -127v-273h-80v498z" />
    <glyph glyph-name="rcommaaccent.ss04" horiz-adv-x="395" 
d="M79 -270l-1 44q42 9 43 66h-44v110h90v-104q0 -106 -88 -116zM80 498h80l-2 -78q39 90 117 90q45 0 71.5 -28.5t31.5 -74.5l-75 -34h-2q-2 43 -13.5 57t-34.5 14q-36 0 -64.5 -44t-28.5 -127v-273h-80v498z" />
    <glyph glyph-name="rcaron.ss04" horiz-adv-x="395" 
d="M347 737l-94 -146h-70l-94 146h51l79 -87l79 87h49zM80 498h80l-2 -78q39 90 117 90q45 0 71.5 -28.5t31.5 -74.5l-75 -34h-2q-2 43 -13.5 57t-34.5 14q-36 0 -64.5 -44t-28.5 -127v-273h-80v498z" />
    <glyph glyph-name="sacute.ss04" horiz-adv-x="465" 
d="M196 591l68 146h105l-120 -146h-53zM220 510q80 0 128.5 -33t62.5 -110h-76q-7 40 -33.5 57.5t-78.5 17.5q-94 0 -94 -67q0 -33 22 -45.5t88 -28.5q9 -2 13 -3q43 -11 68 -19.5t52.5 -25.5t40 -44.5t12.5 -66.5q0 -66 -50 -109t-129 -43q-93 0 -150 51t-56 143l75 2
q2 -127 125 -127q48 0 78.5 21.5t30.5 61.5q0 37 -23.5 51t-90.5 30q-5 1 -8 2t-7.5 2t-8.5 2q-79 20 -118.5 50.5t-39.5 90.5q0 67 48 103.5t119 36.5z" />
    <glyph glyph-name="scircumflex.ss04" horiz-adv-x="465" 
d="M103 591l94 146h70l94 -146h-51l-79 87l-79 -87h-49zM220 510q80 0 128.5 -33t62.5 -110h-76q-7 40 -33.5 57.5t-78.5 17.5q-94 0 -94 -67q0 -33 22 -45.5t88 -28.5q9 -2 13 -3q43 -11 68 -19.5t52.5 -25.5t40 -44.5t12.5 -66.5q0 -66 -50 -109t-129 -43q-93 0 -150 51
t-56 143l75 2q2 -127 125 -127q48 0 78.5 21.5t30.5 61.5q0 37 -23.5 51t-90.5 30q-5 1 -8 2t-7.5 2t-8.5 2q-79 20 -118.5 50.5t-39.5 90.5q0 67 48 103.5t119 36.5z" />
    <glyph glyph-name="scedilla.ss04" horiz-adv-x="465" 
d="M248 -209q-75 0 -102 56l48 19q14 -30 52 -30q47 0 47 38t-37 38q-26 0 -34 -18h-42v104q-65 15 -103 63.5t-37 122.5l75 2q2 -127 125 -127q48 0 78.5 21.5t30.5 61.5q0 37 -23.5 51t-90.5 30q-5 1 -8 2t-7.5 2t-8.5 2q-79 20 -118.5 50.5t-39.5 90.5q0 67 48 103.5
t119 36.5q80 0 128.5 -33t62.5 -110h-76q-7 40 -33.5 57.5t-78.5 17.5q-94 0 -94 -67q0 -33 22 -45.5t88 -28.5q9 -2 13 -3q43 -11 68 -19.5t52.5 -25.5t40 -44.5t12.5 -66.5q0 -66 -50 -109t-129 -43q-12 0 -18 1v-50q15 13 39 13q35 0 58.5 -22.5t23.5 -61.5
q0 -37 -29 -58t-72 -21z" />
    <glyph glyph-name="scaron.ss04" horiz-adv-x="465" 
d="M360 737l-94 -146h-70l-94 146h51l79 -87l79 87h49zM220 510q80 0 128.5 -33t62.5 -110h-76q-7 40 -33.5 57.5t-78.5 17.5q-94 0 -94 -67q0 -33 22 -45.5t88 -28.5q9 -2 13 -3q43 -11 68 -19.5t52.5 -25.5t40 -44.5t12.5 -66.5q0 -66 -50 -109t-129 -43q-93 0 -150 51
t-56 143l75 2q2 -127 125 -127q48 0 78.5 21.5t30.5 61.5q0 37 -23.5 51t-90.5 30q-5 1 -8 2t-7.5 2t-8.5 2q-79 20 -118.5 50.5t-39.5 90.5q0 67 48 103.5t119 36.5z" />
    <glyph glyph-name="aringacute.ss04" horiz-adv-x="517" 
d="M252 571q-46 0 -72.5 30t-26.5 74t26.5 74t72.5 30q44 0 71.5 -28.5t27.5 -75.5q0 -44 -26.5 -74t-72.5 -30zM252 612q53 0 53 63t-53 63q-52 0 -52 -61q0 -65 52 -65zM254 440q-105 0 -111 -100h-72q1 87 56 128.5t131 41.5q72 0 123 -42.5t51 -134.5v-227
q0 -26 7 -36.5t26 -10.5q21 0 42 12h2l-8 -66q-28 -14 -53 -14q-75 0 -92 75q-61 -77 -158 -77q-71 0 -115 34t-44 101q0 49 25 83t72.5 51.5t98 25.5t117.5 10v45q0 101 -98 101zM211 54q60 0 100.5 30.5t40.5 79.5v73q-53 -2 -90.5 -7.5t-72 -17t-52.5 -33t-18 -53.5
q0 -72 92 -72zM218 789l68 146h105l-120 -146h-53z" />
    <glyph glyph-name="scommaaccent.ss04" horiz-adv-x="465" 
d="M199 -270l-1 44q42 9 43 66h-44v110h90v-104q0 -106 -88 -116zM220 510q80 0 128.5 -33t62.5 -110h-76q-7 40 -33.5 57.5t-78.5 17.5q-94 0 -94 -67q0 -33 22 -45.5t88 -28.5q9 -2 13 -3q43 -11 68 -19.5t52.5 -25.5t40 -44.5t12.5 -66.5q0 -66 -50 -109t-129 -43
q-93 0 -150 51t-56 143l75 2q2 -127 125 -127q48 0 78.5 21.5t30.5 61.5q0 37 -23.5 51t-90.5 30q-5 1 -8 2t-7.5 2t-8.5 2q-79 20 -118.5 50.5t-39.5 90.5q0 67 48 103.5t119 36.5z" />
    <glyph glyph-name="fi.ss04" horiz-adv-x="537" 
d="M102 575q0 186 132 186q54 0 84 -35.5t30 -105.5v-12h-65v18q0 37 -10.5 54t-37.5 17q-53 0 -53 -114v-85h89v-65h-89v-433h-80v433h-80v65h80v77zM373 0v498h81v-498h-81zM371 658v95h85v-95h-85z" />
    <glyph glyph-name="fl.ss04" horiz-adv-x="537" 
d="M102 575q0 186 132 186q54 0 84 -35.5t30 -105.5v-12h-65v18q0 37 -10.5 54t-37.5 17q-53 0 -53 -114v-85h89v-65h-89v-433h-80v433h-80v65h80v77zM373 0v757h81v-757h-81z" />
    <glyph glyph-name="orn001" horiz-adv-x="651" 
d="M611 379q0 -120 -82.5 -203t-202.5 -83q-121 0 -203.5 83t-82.5 203q0 119 82.5 202t203.5 83q120 0 202.5 -83t82.5 -202zM56 379q0 -112 78.5 -191.5t191.5 -79.5t191 79.5t78 191.5t-78 191t-191 79t-191.5 -79t-78.5 -191zM402 236v-113l-343 256l343 256v-113h149
v-286h-149zM396 236h-130v286h130v101l-328 -244l328 -244v101zM402 498v-238h125v238h-125zM396 260v238h-105v-238h105z" />
    </font>
</defs>
</svg>
